<?xml version="1.0" standalone="no"?>
<!DOCTYPE svg PUBLIC "-//W3C//DTD SVG 1.1//EN" "http://www.w3.org/Graphics/SVG/1.1/DTD/svg11.dtd" >
<svg xmlns="http://www.w3.org/2000/svg">
<metadata></metadata>
<defs>
<font id="rutandemibold" horiz-adv-x="589" >
<font-face units-per-em="2048" ascent="1638" descent="-410" />
<missing-glyph horiz-adv-x="604" />
<glyph unicode="&#xfb01;" horiz-adv-x="1415" d="M61 893v233h164v33q0 188 91.5 266t273.5 78q70 0 172 -10v-201q-63 2 -135 2q-71 0 -101 -23.5t-30 -88.5v-56h266v-233h-266v-893h-271v893h-164zM952 1411q0 65 45.5 105t120.5 40q73 0 118.5 -40t45.5 -105q0 -66 -45 -105.5t-119 -39.5q-75 0 -120.5 39.5 t-45.5 105.5zM983 0v1126h270v-1126h-270z" />
<glyph horiz-adv-x="0" />
<glyph horiz-adv-x="682" />
<glyph unicode=" "  horiz-adv-x="604" />
<glyph unicode="&#x09;" horiz-adv-x="604" />
<glyph unicode="&#xa0;" horiz-adv-x="604" />
<glyph unicode="!" horiz-adv-x="636" d="M154 127q0 71 45.5 113.5t119.5 42.5q73 0 118.5 -42.5t45.5 -113.5q0 -72 -45.5 -114t-118.5 -42q-75 0 -120 41.5t-45 114.5zM178 1100v334h283v-334l-53 -654h-177z" />
<glyph unicode="&#x22;" horiz-adv-x="1034" d="M154 1303q0 77 41 118t116 41q76 0 117 -41t41 -118q0 -90 -84 -426h-147q-84 336 -84 426zM565 1303q0 77 41 118t117 41t117 -41t41 -118q0 -90 -84 -426h-148q-84 336 -84 426z" />
<glyph unicode="#" horiz-adv-x="1550" d="M154 358l51 211h205l53 217h-207l53 211h203l88 365h225l-86 -365h226l88 365h225l-88 -365h207l-54 -211h-202l-54 -217h207l-51 -211h-205l-86 -358h-225l86 358h-225l-86 -358h-228l86 358h-206zM637 569h225l53 217h-227z" />
<glyph unicode="$" horiz-adv-x="1329" d="M78 246l164 182q91 -101 206 -155t242 -54q123 0 199 52.5t76 138.5q0 78 -61.5 115t-254.5 77q-270 56 -394 154.5t-124 261.5q0 168 109 283t295 149v238h270v-234q275 -36 428 -203l-166 -180q-162 143 -393 143q-119 0 -189.5 -49.5t-70.5 -134.5q0 -45 28.5 -71.5 t101.5 -50t228 -56.5q255 -52 368 -153t113 -275q0 -167 -111.5 -285.5t-297.5 -154.5v-238h-273v234q-150 22 -278 90.5t-215 175.5z" />
<glyph unicode="%" horiz-adv-x="2459" d="M102 950v6q0 229 123 367.5t332 138.5h10q208 0 330.5 -138.5t122.5 -367.5v-6q0 -229 -122.5 -367.5t-330.5 -138.5h-10q-209 0 -332 138.5t-123 367.5zM350 948q0 -134 54 -210t155 -76h6q101 0 154 76t53 210v10q0 134 -53.5 210.5t-153.5 76.5h-6q-101 0 -155 -76.5 t-54 -210.5v-10zM711 0l774 1434h266l-774 -1434h-266zM1442 477v6q0 229 122 367.5t330 138.5h11q208 0 330 -138.5t122 -367.5v-6q0 -229 -122 -367.5t-330 -138.5h-11q-208 0 -330 138.5t-122 367.5zM1688 475q0 -133 53.5 -210t154.5 -77h7q101 0 154.5 76.5t53.5 210.5 v10q0 134 -54 210.5t-154 76.5h-7q-101 0 -154.5 -76.5t-53.5 -210.5v-10z" />
<glyph unicode="&#x26;" horiz-adv-x="1546" d="M78 369q0 127 76 221.5t262 191.5q-158 189 -158 334q0 153 128 249.5t329 96.5q204 0 331.5 -103t127.5 -269q0 -114 -75.5 -206t-246.5 -184l213 -231q64 51 240 203l178 -199q-160 -138 -242 -197l254 -276h-360l-115 125q-259 -154 -469 -154q-214 0 -343.5 109 t-129.5 289zM358 360q0 -69 52.5 -108t146.5 -39q130 0 289 98l-248 269q-146 -71 -193 -115t-47 -105zM539 1108q0 -34 26 -76.5t103 -130.5q133 63 179 105t46 96q0 56 -48.5 88.5t-131.5 32.5q-79 0 -126.5 -31t-47.5 -84z" />
<glyph unicode="'" horiz-adv-x="622" d="M154 1303q0 77 41 118t116 41q76 0 117 -41t41 -118q0 -90 -84 -426h-147q-84 336 -84 426z" />
<glyph unicode="(" horiz-adv-x="815" d="M102 711v18q0 271 111 522t305 418l174 -162q-156 -166 -237.5 -364.5t-81.5 -411.5v-22q0 -214 82 -412.5t237 -362.5l-174 -161q-194 166 -305 416.5t-111 521.5z" />
<glyph unicode=")" horiz-adv-x="878" d="M154 -66q155 164 237 362.5t82 412.5v22q0 213 -81.5 411.5t-237.5 364.5l174 162q194 -167 304.5 -418t110.5 -522v-18q0 -272 -111 -522t-304 -416z" />
<glyph unicode="*" horiz-adv-x="1374" d="M154 1010l92 250l311 -117l-4 327h268l-4 -327l311 117l93 -250l-320 -117l217 -262l-207 -170l-223 282l-225 -282l-207 170l217 262z" />
<glyph unicode="+" horiz-adv-x="1071" d="M72 528v252h331v334h265v-336h331v-252h-331v-336h-265v338h-331z" />
<glyph unicode="," horiz-adv-x="671" d="M154 -307q115 194 153 289q-60 8 -94.5 46t-34.5 99q0 71 44.5 113.5t119.5 42.5q77 0 126.5 -52.5t49.5 -134.5q0 -85 -65 -218t-177 -279z" />
<glyph unicode="-" horiz-adv-x="1046" d="M154 528v254h739v-254h-739z" />
<glyph unicode="." horiz-adv-x="636" d="M154 127q0 71 45.5 113.5t119.5 42.5q73 0 118.5 -42.5t45.5 -113.5q0 -72 -45.5 -114t-118.5 -42q-75 0 -120 41.5t-45 114.5z" />
<glyph unicode="/" horiz-adv-x="813" d="M51 -37l441 1544h270l-440 -1544h-271z" />
<glyph unicode="0" horiz-adv-x="1458" d="M102 711v12q0 338 165 538.5t454 200.5h14q290 0 455.5 -200.5t165.5 -538.5v-12q0 -338 -165.5 -539t-455.5 -201h-14q-289 0 -454 201t-165 539zM389 711q0 -227 86 -357.5t250 -130.5h8q163 0 249.5 131t86.5 357v12q0 227 -86.5 357t-249.5 130h-8 q-164 0 -250 -129.5t-86 -357.5v-12z" />
<glyph unicode="1" horiz-adv-x="921" d="M20 1018l512 416h236v-1434h-283v1075l-278 -231z" />
<glyph unicode="2" horiz-adv-x="1300" d="M117 0v188q180 158 287 253.5t200 183.5t137 135.5t75.5 94.5t39.5 77.5t8 68.5q0 93 -67.5 151t-169.5 58q-194 0 -342 -202l-166 184q97 129 234 199.5t292 70.5q231 0 369.5 -121t138.5 -327q0 -112 -52.5 -212.5t-181.5 -228.5t-372 -321h641v-252h-1071z" />
<glyph unicode="3" horiz-adv-x="1277" d="M78 233l168 181q170 -191 391 -191q122 0 199 56.5t77 146.5q0 97 -65.5 141.5t-206.5 44.5h-211v242h217q102 0 161.5 46t59.5 122q0 88 -65 138t-178 50q-194 0 -336 -170l-164 183q89 110 228 174.5t286 64.5q234 0 376 -111.5t142 -295.5q0 -98 -57.5 -179.5 t-153.5 -123.5q119 -34 187.5 -127t68.5 -222q0 -190 -156.5 -311t-396.5 -121q-169 0 -320 69.5t-251 192.5z" />
<glyph unicode="4" horiz-adv-x="1343" d="M51 334v196l594 904h399v-852h248v-248h-248v-334h-282v334h-711zM365 582h397v602z" />
<glyph unicode="5" horiz-adv-x="1304" d="M80 233l168 181q176 -191 381 -191q131 0 212 70t81 182t-73.5 177t-197.5 65q-167 0 -338 -115l-145 66l76 766h880v-252h-647l-28 -299q113 73 270 73q217 0 353 -133.5t136 -345.5q0 -223 -155 -364.5t-398 -141.5q-166 0 -318.5 69.5t-256.5 192.5z" />
<glyph unicode="6" horiz-adv-x="1288" d="M102 692q0 362 164.5 566t456.5 204q138 0 257 -47t202 -135l-172 -184q-135 123 -285 123q-295 0 -332 -402q70 64 162.5 101.5t185.5 37.5q201 0 331 -133.5t130 -339.5q0 -223 -148.5 -367.5t-377.5 -144.5q-270 0 -422 190.5t-152 530.5zM389 571q0 -156 76.5 -252 t200.5 -96h6q104 0 173 71t70 181v6q0 107 -62 171.5t-163 64.5q-175 0 -301 -135v-11z" />
<glyph unicode="7" horiz-adv-x="1191" d="M61 1182v252h1069v-189q-183 -215 -288.5 -361.5t-172.5 -292t-89.5 -277t-22.5 -314.5h-283q0 244 45 425.5t151 358t304 398.5h-713z" />
<glyph unicode="8" horiz-adv-x="1288" d="M82 397q0 119 63 213t174 144q-198 97 -198 309q0 178 144.5 288.5t373.5 110.5h8q232 0 376 -110.5t144 -288.5q0 -207 -196 -309q111 -48 173 -141.5t62 -215.5q0 -191 -153.5 -308.5t-405.5 -117.5h-8q-250 0 -403.5 118t-153.5 308zM367 424q0 -97 72 -153t200 -56 h10q127 0 200 56t73 153q0 99 -70 152t-203 53h-10q-134 0 -203 -52.5t-69 -152.5zM403 1032q0 -92 60 -139t176 -47h8q116 0 177 47.5t61 138.5q0 82 -65 132t-173 50h-6q-110 0 -174 -49t-64 -133z" />
<glyph unicode="9" horiz-adv-x="1288" d="M88 950q0 223 147.5 367.5t376.5 144.5q270 0 422 -190.5t152 -530.5q0 -362 -164.5 -566t-454.5 -204q-138 0 -257 47.5t-204 135.5l173 184q138 -123 284 -123q295 0 332 401q-70 -64 -162.5 -101.5t-183.5 -37.5q-201 0 -331 133.5t-130 339.5zM375 952 q0 -107 61 -171t162 -64q175 0 301 135v10q0 155 -75.5 251.5t-198.5 96.5h-7q-106 0 -174.5 -71t-68.5 -181v-6z" />
<glyph unicode=":" horiz-adv-x="636" d="M154 127q0 71 45.5 113.5t119.5 42.5q73 0 118.5 -42.5t45.5 -113.5q0 -72 -45.5 -114t-118.5 -42q-75 0 -120 41.5t-45 114.5zM154 1001q0 71 45.5 112.5t119.5 41.5q73 0 118.5 -41.5t45.5 -112.5q0 -72 -45.5 -114.5t-118.5 -42.5q-74 0 -119.5 42t-45.5 115z" />
<glyph unicode=";" horiz-adv-x="671" d="M154 -307q115 194 153 289q-60 8 -94.5 46t-34.5 99q0 71 44.5 113.5t119.5 42.5q77 0 126.5 -52.5t49.5 -134.5q0 -85 -65 -218t-177 -279zM178 1001q0 71 45 112.5t119 41.5t119 -41.5t45 -112.5q0 -73 -45 -115t-119 -42t-119 42t-45 115z" />
<glyph unicode="&#x3c;" horiz-adv-x="1071" d="M72 545v221l927 328v-263l-561 -176l561 -176v-262z" />
<glyph unicode="=" horiz-adv-x="1071" d="M72 313v252h927v-252h-927zM72 741v252h927v-252h-927z" />
<glyph unicode="&#x3e;" horiz-adv-x="1071" d="M72 217v262l561 176l-561 176v263l927 -328v-221z" />
<glyph unicode="?" horiz-adv-x="1255" d="M113 1247q212 215 505 215q227 0 364.5 -120.5t137.5 -319.5q0 -162 -121 -274.5t-317 -135.5l-14 -166h-183l-32 363q173 -9 275.5 45t102.5 154q0 95 -61.5 148.5t-169.5 53.5q-85 0 -157.5 -33t-159.5 -110zM412 127q0 71 46 113.5t120 42.5q73 0 118 -42.5t45 -113.5 q0 -72 -45 -114t-118 -42q-75 0 -120.5 42t-45.5 114z" />
<glyph unicode="@" horiz-adv-x="2310" d="M102 549q0 234 79.5 433.5t221 340t343.5 220t440 79.5q302 0 533.5 -120t359 -340.5t127.5 -510.5q0 -301 -132.5 -490.5t-344.5 -189.5q-105 0 -180 50t-107 141q-56 -90 -156.5 -140.5t-212.5 -50.5h-10q-217 0 -352.5 163t-135.5 421v16q0 256 136.5 420t355.5 164 h10q107 0 199 -45.5t143 -128.5v145h271v-796q0 -59 16.5 -87t52.5 -28q85 0 143 125.5t58 310.5q0 342 -212.5 543t-569.5 201q-246 0 -433 -103t-289.5 -291.5t-105.5 -437.5q-3 -369 210.5 -585t578.5 -216q168 0 327 43v-227q-145 -43 -348 -43q-298 0 -529 126.5 t-359 357.5t-128 530zM848 559q0 -155 76.5 -249.5t201.5 -94.5h11q125 0 203.5 95.5t78.5 248.5v8q0 154 -78.5 249t-203.5 95h-11q-125 0 -201.5 -94.5t-76.5 -249.5v-8z" />
<glyph unicode="A" horiz-adv-x="1495" d="M41 0l555 1434h303l555 -1434h-299l-133 369h-549l-133 -369h-299zM565 623h365l-182 501z" />
<glyph unicode="B" horiz-adv-x="1374" d="M154 0v1434h622q238 0 350.5 -95.5t112.5 -269.5q0 -210 -164 -291q221 -92 221 -358q0 -202 -122 -311t-371 -109h-649zM436 252h357q111 0 164 51t53 137q0 85 -55.5 136t-168.5 51h-350v-375zM436 854h309q209 0 209 162q0 80 -46.5 123t-153.5 43h-318v-328z" />
<glyph unicode="C" horiz-adv-x="1433" d="M102 707v20q0 328 190 531.5t496 203.5h11q162 0 307.5 -67t245.5 -187l-168 -180q-98 99 -185 140.5t-202 41.5h-6q-180 0 -291 -132.5t-111 -350.5v-20q0 -216 113 -350t295 -134h6q113 0 199.5 42.5t185.5 144.5l166 -177q-215 -262 -553 -262q-154 0 -284.5 53.5 t-221.5 149.5t-142 233.5t-51 299.5z" />
<glyph unicode="D" horiz-adv-x="1480" d="M154 0v1434h536q312 0 500 -193.5t188 -513.5v-20q0 -320 -188 -513.5t-500 -193.5h-536zM436 252h250q188 0 297 122t109 333v20q0 212 -109 333.5t-297 121.5h-250v-930z" />
<glyph unicode="E" horiz-adv-x="1191" d="M154 0v1434h960v-252h-678v-320h621v-252h-621v-358h678v-252h-960z" />
<glyph unicode="F" horiz-adv-x="1193" d="M154 0v1434h962v-252h-680v-330h623v-252h-623v-600h-282z" />
<glyph unicode="G" horiz-adv-x="1540" d="M102 707v20q0 328 190 531.5t496 203.5h11q162 0 307.5 -67t245.5 -187l-168 -180q-98 99 -185 140.5t-202 41.5h-6q-180 0 -291 -132.5t-111 -350.5v-20q0 -214 110.5 -349t295.5 -135q150 0 247.5 92t108.5 240h-379v231h633v-786h-229v172q-66 -94 -171.5 -147.5 t-244.5 -53.5q-191 0 -341 94t-233.5 261.5t-83.5 380.5z" />
<glyph unicode="H" horiz-adv-x="1538" d="M154 0v1434h282v-572h666v572h282v-1434h-282v610h-666v-610h-282z" />
<glyph unicode="I" d="M154 0v1434h282v-1434h-282z" />
<glyph unicode="J" horiz-adv-x="768" d="M51 -16v247q54 -8 109 -8q105 0 138.5 56t33.5 202v953h282v-998q0 -244 -103.5 -354.5t-311.5 -110.5q-81 0 -148 13z" />
<glyph unicode="K" horiz-adv-x="1492" d="M154 0v1434h282v-697l602 697h363l-533 -598l574 -836h-334l-426 625l-246 -277v-348h-282z" />
<glyph unicode="L" horiz-adv-x="1148" d="M154 0v1434h282v-1182h623v-252h-905z" />
<glyph unicode="M" horiz-adv-x="1730" d="M133 0v1434h318l403 -783l403 783h318v-1434h-281v983l-358 -715h-162l-358 715v-983h-283z" />
<glyph unicode="N" horiz-adv-x="1507" d="M133 0v1434h307l652 -1000v998h282v-1434h-305l-653 999v-997h-283z" />
<glyph unicode="O" horiz-adv-x="1605" d="M102 707v20q0 158 50 293.5t139.5 233t219 153t282.5 55.5h18q204 0 362 -95t243 -262t85 -378v-20q0 -211 -84.5 -378t-242.5 -262.5t-363 -95.5h-18q-203 0 -361.5 95.5t-244 262.5t-85.5 378zM389 707q0 -210 112.5 -347t295.5 -137h12q183 0 294 136t111 348v20 q0 213 -110.5 348t-294.5 135h-12q-184 0 -296 -135.5t-112 -347.5v-20z" />
<glyph unicode="P" horiz-adv-x="1376" d="M154 0v1434h632q252 0 372 -117t120 -334v-10q0 -451 -487 -451h-355v-522h-282zM436 774h344q211 0 211 201q0 207 -225 207h-330v-408z" />
<glyph unicode="Q" horiz-adv-x="1605" d="M102 707v20q0 158 50 293.5t139.5 233t219 153t282.5 55.5h18q204 0 362 -95t243 -262t85 -378v-20q0 -162 -50.5 -299t-145.5 -236l135 -162l-193 -155l-145 174q-135 -58 -291 -58h-18q-203 0 -361.5 95.5t-244 262.5t-85.5 378zM389 707q0 -210 112.5 -347t295.5 -137 h12q56 0 119 17l-158 190l191 158l165 -199q88 127 88 318v20q0 213 -110.5 348t-294.5 135h-12q-184 0 -296 -135.5t-112 -347.5v-20z" />
<glyph unicode="R" horiz-adv-x="1380" d="M154 0v1434h632q252 0 372 -117.5t120 -335.5q0 -328 -268 -416l295 -565h-318l-270 532h-281v-532h-282zM436 782h344q211 0 211 195q0 205 -225 205h-330v-400z" />
<glyph unicode="S" horiz-adv-x="1329" d="M78 246l164 182q91 -101 206 -155t242 -54q123 0 199 52.5t76 138.5q0 78 -61.5 115t-254.5 77q-270 56 -394 154.5t-124 261.5q0 199 150 321.5t395 122.5q173 0 318 -55t239 -156l-166 -180q-162 143 -393 143q-119 0 -189.5 -49.5t-70.5 -134.5q0 -45 28.5 -71.5 t101.5 -50t228 -56.5q255 -52 368 -153t113 -275q0 -201 -155 -327t-400 -126q-188 0 -351 72.5t-269 202.5z" />
<glyph unicode="T" horiz-adv-x="1263" d="M51 1182v252h1161v-252h-440v-1182h-280v1182h-441z" />
<glyph unicode="U" horiz-adv-x="1460" d="M154 573v861h282v-852q0 -178 77.5 -268.5t221.5 -90.5h13q143 0 219.5 90.5t76.5 268.5v852h283v-861q0 -287 -153.5 -444.5t-423.5 -157.5h-19q-270 0 -423.5 157.5t-153.5 444.5z" />
<glyph unicode="V" horiz-adv-x="1437" d="M51 1434h299l369 -1133l368 1133h299l-501 -1434h-330z" />
<glyph unicode="W" horiz-adv-x="2080" d="M51 1434h299l258 -1055l264 1055h336l265 -1055l260 1055h297l-392 -1434h-319l-279 1108l-276 -1108h-322z" />
<glyph unicode="X" horiz-adv-x="1427" d="M51 0l496 735l-473 699h332l317 -476l313 476h332l-479 -711l487 -723h-329l-334 500l-332 -500h-330z" />
<glyph unicode="Y" horiz-adv-x="1390" d="M51 1434h307l336 -680l338 680h307l-503 -965v-469h-281v469z" />
<glyph unicode="Z" horiz-adv-x="1261" d="M78 0v252l737 930h-709v252h1068v-252l-738 -930h748v-252h-1106z" />
<glyph unicode="[" horiz-adv-x="884" d="M154 -203v1841h575v-252h-293v-1335h293v-254h-575z" />
<glyph unicode="\" horiz-adv-x="813" d="M51 1507h271l440 -1544h-270z" />
<glyph unicode="]" horiz-adv-x="884" d="M154 51h295v1335h-295v252h575v-1841h-575v254z" />
<glyph unicode="^" horiz-adv-x="849" d="M72 1020l235 414h236l235 -414h-235l-117 217l-119 -217h-235z" />
<glyph unicode="_" horiz-adv-x="1376" d="M154 -63h1067v-213h-1067v213z" />
<glyph unicode="`" horiz-adv-x="696" d="M72 1964h297l256 -393h-260z" />
<glyph unicode="a" horiz-adv-x="1196" d="M82 313q0 193 172 286.5t547 94.5v6q0 113 -57 166.5t-175 53.5h-4q-74 0 -154.5 -34t-138.5 -85l-155 168q81 83 209.5 134.5t263.5 51.5h4q234 0 356.5 -116.5t122.5 -344.5v-694h-272v170q-54 -94 -146 -146.5t-202 -52.5h-4q-163 0 -265 95.5t-102 246.5zM350 338 q0 -63 45.5 -101t124.5 -38h2q123 0 201 88t78 227v4q-230 -2 -340.5 -45t-110.5 -135z" />
<glyph unicode="b" horiz-adv-x="1329" d="M133 0v1475h273v-478q54 75 147.5 116.5t198.5 41.5h8q217 0 352 -163t135 -421v-16q0 -257 -136.5 -420.5t-354.5 -163.5h-11q-105 0 -195.5 45t-143.5 127v-143h-273zM406 559q0 -154 77.5 -249t202.5 -95h10q126 0 203.5 94.5t77.5 249.5v8q0 155 -77.5 249.5 t-203.5 94.5h-10q-125 0 -202.5 -94.5t-77.5 -249.5v-8z" />
<glyph unicode="c" horiz-adv-x="1169" d="M82 555v16q0 259 155.5 421.5t405.5 162.5h12q128 0 248.5 -56t192.5 -151l-160 -174q-51 63 -127.5 103.5t-151.5 40.5h-8q-137 0 -217 -95t-80 -256v-8q0 -160 80 -255t217 -95h8q75 0 151.5 40t127.5 103l158 -170q-78 -99 -197.5 -155t-253.5 -56 q-248 0 -404.5 162.5t-156.5 421.5z" />
<glyph unicode="d" horiz-adv-x="1329" d="M82 555v16q0 258 135 421t352 163h9q106 0 199.5 -42.5t148.5 -117.5v480h270v-1475h-270v145q-51 -83 -143 -128.5t-199 -45.5h-11q-218 0 -354.5 163.5t-136.5 420.5zM352 559q0 -155 77.5 -249.5t203.5 -94.5h10q125 0 204 95.5t79 248.5v8q0 154 -79 249t-204 95h-10 q-126 0 -203.5 -94.5t-77.5 -249.5v-8z" />
<glyph unicode="e" horiz-adv-x="1245" d="M82 555v16q0 258 154.5 421t396.5 163h12q242 0 384 -162t142 -438v-68h-815q15 -135 98 -210.5t216 -75.5h8q89 0 169.5 36t133.5 99l147 -158q-76 -99 -198 -153t-268 -54q-258 0 -419 161.5t-161 422.5zM358 680h539q-14 123 -78 187.5t-174 64.5h-8q-112 0 -186 -68 t-93 -184z" />
<glyph unicode="f" horiz-adv-x="829" d="M61 893v233h164v33q0 188 91.5 266t273.5 78q70 0 172 -10v-201q-63 2 -135 2q-71 0 -101 -23.5t-30 -88.5v-56h266v-233h-266v-893h-271v893h-164z" />
<glyph unicode="g" horiz-adv-x="1318" d="M82 557v16q0 256 136 419t355 163h11q107 0 199 -45.5t143 -128.5v145h270v-1036q0 -274 -153.5 -432t-417.5 -158q-305 0 -492 193l156 168q136 -133 321 -133h8q140 2 224 87.5t84 227.5v100q-56 -80 -149.5 -124t-198.5 -44h-9q-217 0 -352 163.5t-135 418.5zM352 563 q0 -154 77.5 -248t203.5 -94h10q125 0 204 94.5t79 247.5v6q0 152 -79 247t-204 95h-10q-126 0 -203.5 -94t-77.5 -248v-6z" />
<glyph unicode="h" horiz-adv-x="1263" d="M143 0v1475h273v-484q48 73 137 118.5t190 45.5h5q188 0 290.5 -111t102.5 -315v-729h-273v690q0 221 -190 221h-4q-123 0 -190.5 -87.5t-67.5 -248.5v-575h-273z" />
<glyph unicode="i" horiz-adv-x="606" d="M143 1411q0 65 45.5 105t120.5 40q73 0 118.5 -40t45.5 -105q0 -66 -45 -105.5t-119 -39.5q-75 0 -120.5 39.5t-45.5 105.5zM174 0v1126h270v-1126h-270z" />
<glyph unicode="j" d="M-25 -264q50 -6 74 -6q58 0 83.5 27t25.5 93v1276h272v-1267q0 -174 -83 -266.5t-245 -92.5q-73 0 -127 13v223zM129 1411q0 65 44.5 105t119.5 40t119.5 -40t44.5 -105q0 -66 -44.5 -105.5t-119.5 -39.5t-119.5 39.5t-44.5 105.5z" />
<glyph unicode="k" horiz-adv-x="1257" d="M143 0v1475h273v-861l448 512h330l-428 -469l461 -657h-324l-313 465l-174 -191v-274h-273z" />
<glyph unicode="l" horiz-adv-x="538" d="M143 0v1475h273v-1475h-273z" />
<glyph unicode="m" horiz-adv-x="1880" d="M133 0v1126h273v-133q45 73 125 117.5t174 44.5h4q118 0 201 -50t126 -144q123 194 338 194h6q175 0 275 -111t100 -305v-739h-270v700q0 100 -44.5 155.5t-127.5 55.5h-2q-114 0 -173 -87.5t-59 -248.5v-575h-270v700q0 100 -44.5 155.5t-127.5 55.5h-2 q-114 0 -171.5 -87.5t-57.5 -248.5v-575h-273z" />
<glyph unicode="n" horiz-adv-x="1253" d="M133 0v1126h273v-135q48 73 137 118.5t190 45.5h4q188 0 290.5 -111t102.5 -315v-729h-272v690q0 221 -190 221h-4q-123 0 -190.5 -87.5t-67.5 -248.5v-575h-273z" />
<glyph unicode="o" horiz-adv-x="1292" d="M82 555v16q0 255 155.5 419.5t401.5 164.5h12q163 0 291 -75t198 -208t70 -301v-16q0 -254 -156 -419t-403 -165h-12q-162 0 -289.5 75.5t-197.5 208.5t-70 300zM352 559q0 -157 79.5 -250.5t209.5 -93.5h10q129 0 208 93.5t79 250.5v8q0 157 -79 250.5t-208 93.5h-10 q-130 0 -209.5 -93.5t-79.5 -250.5v-8z" />
<glyph unicode="p" horiz-adv-x="1339" d="M143 -471v1597h273v-143q53 82 144 127t196 45h10q218 0 354.5 -163.5t136.5 -420.5v-16q0 -258 -135 -421t-352 -163h-8q-105 0 -198.5 41.5t-147.5 116.5v-600h-273zM416 559q0 -155 77.5 -249.5t202.5 -94.5h11q126 0 203 94.5t77 249.5v8q0 155 -77 249.5t-203 94.5 h-11q-125 0 -202.5 -95t-77.5 -249v-8z" />
<glyph unicode="q" horiz-adv-x="1329" d="M82 555v16q0 257 136.5 420.5t354.5 163.5h11q107 0 199 -45.5t143 -128.5v145h270v-1597h-270v602q-55 -75 -148.5 -117.5t-199.5 -42.5h-9q-217 0 -352 163t-135 421zM352 559q0 -155 77.5 -249.5t203.5 -94.5h10q125 0 204 95t79 249v8q0 153 -79 248.5t-204 95.5h-10 q-126 0 -203.5 -94.5t-77.5 -249.5v-8z" />
<glyph unicode="r" horiz-adv-x="817" d="M133 0v1126h273v-170q50 96 139.5 147.5t199.5 51.5q18 0 41 -2v-254h-32q-166 0 -257 -94.5t-91 -276.5v-528h-273z" />
<glyph unicode="s" horiz-adv-x="1103" d="M72 190l141 158q152 -162 348 -162q88 0 143.5 35.5t55.5 91.5q0 54 -45 82t-174 54q-229 47 -330 131q-96 81 -96 214v13q3 157 125 252.5t317 95.5q146 0 262 -42.5t189 -125.5l-140 -153q-128 106 -305 106q-76 0 -127 -35t-51 -88q0 -45 48.5 -70t197.5 -55 q212 -43 308 -131q91 -84 91 -221v-14q-4 -161 -130 -258t-327 -97q-153 0 -285 58t-216 161z" />
<glyph unicode="t" horiz-adv-x="860" d="M61 889v237h164v185l271 45v-230h282v-237h-282v-557q0 -71 33.5 -98t119.5 -27q35 0 129 4v-215q-92 -25 -213 -25q-167 0 -253.5 89t-86.5 284v545h-164z" />
<glyph unicode="u" horiz-adv-x="1222" d="M123 391v735h272v-700q0 -100 47 -155.5t133 -55.5h5q118 0 182.5 88.5t64.5 247.5v575h271v-1126h-271v154q-50 -83 -139 -133t-190 -50h-4q-174 0 -272.5 111.5t-98.5 308.5z" />
<glyph unicode="v" horiz-adv-x="1200" d="M31 1126h297l272 -841l274 841h295l-409 -1126h-320z" />
<glyph unicode="w" horiz-adv-x="1736" d="M31 1126h293l192 -800l193 800h321l191 -800l192 800h293l-315 -1126h-320l-203 846l-200 -846h-320z" />
<glyph unicode="x" horiz-adv-x="1189" d="M31 0l407 573l-393 553h315l240 -354l244 354h313l-399 -561l401 -565h-313l-250 367l-252 -367h-313z" />
<glyph unicode="y" horiz-adv-x="1206" d="M37 1126h295l274 -835l273 835h297l-461 -1263q-72 -196 -165 -279.5t-241 -83.5q-65 0 -140.5 30.5t-121.5 74.5l156 170q61 -47 112 -47t88 47.5t80 167.5l19 57h-58z" />
<glyph unicode="z" horiz-adv-x="1079" d="M82 0v233l561 652h-543v241h881v-233l-563 -651h579v-242h-915z" />
<glyph unicode="{" horiz-adv-x="966" d="M51 596v252h105q68 0 95.5 25t27.5 88v362q0 183 88.5 264.5t275.5 81.5q103 0 211 -10v-246q-78 2 -176 2q-71 0 -100 -24.5t-29 -87.5v-363q0 -147 -98 -217q98 -76 98 -219v-371q0 -63 29 -88t100 -25q28 0 88.5 2t87.5 3v-246q-107 -10 -211 -10q-187 0 -275.5 81 t-88.5 263v370q0 63 -27.5 88t-95.5 25h-105z" />
<glyph unicode="|" d="M154 -205v1639h282v-1639h-282z" />
<glyph unicode="}" horiz-adv-x="1046" d="M154 25q28 -1 87.5 -3t86.5 -2q72 0 101.5 25t29.5 88v371q0 143 98 219q-98 70 -98 217v363q0 63 -29.5 87.5t-101.5 24.5q-96 0 -174 -2v246q107 10 211 10q187 0 275.5 -81.5t88.5 -264.5v-362q0 -63 27.5 -88t95.5 -25h104v-252h-104q-68 0 -95.5 -25t-27.5 -88v-370 q0 -182 -88.5 -263t-275.5 -81q-103 0 -211 10v246z" />
<glyph unicode="~" horiz-adv-x="1026" d="M72 559q42 158 106.5 235.5t159.5 77.5q102 0 215 -92q50 -41 73.5 -55t45.5 -14q35 0 59 31t57 122l166 -94q-42 -158 -106.5 -235.5t-159.5 -77.5q-103 0 -215 94q-50 42 -74 56t-45 14q-35 0 -59 -31.5t-57 -124.5z" />
<glyph unicode="&#xa1;" horiz-adv-x="636" d="M154 999q0 73 45 114.5t120 41.5q73 0 118.5 -42t45.5 -114q0 -71 -45.5 -113t-118.5 -42q-74 0 -119.5 42t-45.5 113zM178 27l53 653h177l53 -653v-334h-283v334z" />
<glyph unicode="&#xa2;" horiz-adv-x="1169" d="M82 555v16q0 220 116 374.5t310 195.5v239h270v-239q96 -20 179.5 -70.5t138.5 -122.5l-160 -174q-51 63 -127.5 103.5t-151.5 40.5h-8q-137 0 -217 -95t-80 -256v-8q0 -160 80 -255t217 -95h8q75 0 151.5 40t127.5 103l158 -170q-117 -148 -316 -196v-240h-270v240 q-194 42 -310 195t-116 374z" />
<glyph unicode="&#xa3;" horiz-adv-x="1335" d="M113 0v164q112 88 157 164.5t45 179.5l-2 29h-200v251h125q-29 100 -29 199q0 213 139 344t361 131q167 0 297 -69t217 -201l-164 -184q-70 108 -147 155t-179 47q-104 0 -169.5 -63.5t-65.5 -169.5q0 -80 37 -189h405v-251h-344q-3 -175 -119 -285h735v-252h-1099z" />
<glyph unicode="&#xa4;" horiz-adv-x="1406" d="M31 82l155 156q-86 141 -86 317v16q0 177 86 318l-155 155l190 193l162 -162q141 80 315 80h13q175 0 313 -80l162 162l190 -193l-155 -155q86 -141 86 -318v-16q0 -176 -86 -317l155 -156l-190 -193l-162 162q-138 -80 -313 -80h-13q-174 0 -315 80l-162 -162zM371 559 q0 -152 91 -248t236 -96h11q146 0 236.5 95.5t90.5 248.5v8q0 153 -90.5 248.5t-236.5 95.5h-11q-145 0 -236 -96t-91 -248v-8z" />
<glyph unicode="&#xa5;" horiz-adv-x="1390" d="M51 1434h307l336 -680l338 680h307l-397 -760h207v-207h-313v-94h313v-209h-313v-164h-281v164h-313v209h313v94h-313v207h207z" />
<glyph unicode="&#xa6;" d="M154 -205v656h282v-656h-282zM154 778v656h282v-656h-282z" />
<glyph unicode="&#xa7;" horiz-adv-x="1124" d="M82 514q6 160 131 246q-91 82 -88 221q3 157 125 252.5t317 95.5q145 0 261.5 -43t189.5 -125l-139 -153q-132 106 -306 106q-77 0 -127.5 -35.5t-50.5 -89.5q0 -44 48 -68t198 -55q211 -43 307.5 -131.5t91.5 -234.5q-6 -160 -131 -246q93 -84 90 -221 q-5 -157 -126 -252.5t-316 -95.5q-145 0 -261.5 43t-191.5 125l142 153q132 -106 305 -106q77 0 127.5 35.5t50.5 89.5q0 44 -48 67.5t-198 54.5q-211 43 -308.5 132.5t-92.5 234.5zM352 526q0 -52 44.5 -79.5t174.5 -55.5q14 -3 82 -18q55 12 86 42t31 72q0 52 -45 80 t-174 56q-36 8 -80 18q-55 -14 -87 -43.5t-32 -71.5z" />
<glyph unicode="&#xa8;" horiz-adv-x="935" d="M72 1767q0 72 45.5 114t120.5 42q73 0 117 -42.5t44 -113.5q0 -73 -44 -114t-117 -41q-76 0 -121 41t-45 114zM535 1767q0 71 45.5 113.5t119.5 42.5q73 0 118.5 -42.5t45.5 -113.5q0 -72 -45.5 -113.5t-118.5 -41.5q-75 0 -120 41.5t-45 113.5z" />
<glyph unicode="&#xa9;" horiz-adv-x="1339" d="M102 950q0 239 161 396t407 157t406.5 -157t160.5 -396t-160.5 -396t-406.5 -157t-407 157t-161 396zM272 950q0 -174 111.5 -284.5t286.5 -110.5t286 110t111 285t-111 286.5t-286 111.5t-286.5 -111.5t-111.5 -286.5zM399 948v6q0 128 76 207.5t199 79.5h2 q61 0 118.5 -26.5t100.5 -73.5l-102 -107q-35 28 -58.5 37.5t-54.5 9.5h-2q-47 0 -76 -36t-29 -93v-2q0 -56 29 -91.5t76 -35.5h2q32 0 55.5 9.5t57.5 37.5l100 -106q-85 -102 -217 -102h-4q-121 0 -197 80t-76 206z" />
<glyph unicode="&#xab;" horiz-adv-x="1419" d="M154 629l335 391h299l-339 -391l339 -393h-299zM631 629l336 391h299l-340 -391l340 -393h-299z" />
<glyph unicode="&#xac;" horiz-adv-x="1071" d="M72 528v254h927v-499h-280v245h-647z" />
<glyph unicode="&#xad;" horiz-adv-x="1046" d="M154 528v254h739v-254h-739z" />
<glyph unicode="&#xae;" horiz-adv-x="1337" d="M102 950q0 239 161 396t407 157q162 0 291 -71.5t201.5 -197.5t72.5 -284t-72.5 -284t-201.5 -197.5t-291 -71.5q-246 0 -407 157t-161 396zM272 950q0 -175 110.5 -285t287.5 -110t287 110t110 285t-110.5 286.5t-286.5 111.5t-287 -111.5t-111 -286.5zM432 680v553h275 q215 0 215 -189q0 -107 -99 -157l109 -207h-195l-90 180h-41v-180h-174zM606 1010h94q48 0 48 34q0 39 -54 39h-88v-73z" />
<glyph unicode="&#xaf;" horiz-adv-x="655" d="M72 1645v213h512v-213h-512z" />
<glyph unicode="&#xb0;" horiz-adv-x="872" d="M102 1137v8q0 136 95.5 226.5t236.5 90.5h6q141 0 235.5 -91t94.5 -226v-8q0 -135 -95 -226.5t-235 -91.5h-6q-140 0 -236 91.5t-96 226.5zM307 1139q0 -55 36.5 -92t90.5 -37h4q54 0 90.5 37t36.5 92v4q0 57 -36.5 93t-90.5 36h-4q-56 0 -91.5 -36t-35.5 -93v-4z" />
<glyph unicode="&#xb1;" horiz-adv-x="1071" d="M72 129v203h927v-203h-927zM72 678v201h352v247h221v-249h354v-201h-354v-250h-221v252h-352z" />
<glyph unicode="&#xb4;" horiz-adv-x="696" d="M72 1571l256 393h297l-293 -393h-260z" />
<glyph unicode="&#xb6;" horiz-adv-x="1386" d="M102 1028q0 223 101 328.5t315 105.5h715v-1933h-219v1733h-277v-1733h-219v1067q-416 0 -416 432z" />
<glyph unicode="&#xb7;" horiz-adv-x="636" d="M154 639q0 71 45.5 113.5t119.5 42.5q73 0 118.5 -42.5t45.5 -113.5q0 -72 -45.5 -114t-118.5 -42q-75 0 -120 41.5t-45 114.5z" />
<glyph unicode="&#xb8;" horiz-adv-x="606" d="M72 -236l141 236h205l-64 -82q77 2 129 -43t52 -121q0 -131 -132 -202t-331 -46v138q98 -6 153.5 17.5t55.5 70.5q0 43 -56 51.5t-153 -19.5z" />
<glyph unicode="&#xbb;" horiz-adv-x="1419" d="M154 236l340 393l-340 391h299l335 -391l-335 -393h-299zM631 236l340 393l-340 391h299l336 -391l-336 -393h-299z" />
<glyph unicode="&#xbc;" horiz-adv-x="2459" d="M154 1118l389 316h215v-961h-248v664l-197 -168zM666 0l774 1434h266l-774 -1434h-266zM1419 207v145l400 609h323v-539h164v-215h-164v-207h-246v207h-477zM1690 422h206v323z" />
<glyph unicode="&#xbd;" horiz-adv-x="2502" d="M154 1118l389 316h215v-961h-248v664l-197 -168zM666 0l774 1434h266l-774 -1434h-266zM1575 807q73 88 172 135t209 47q157 0 260.5 -94.5t103.5 -237.5q0 -112 -81 -212t-275 -228h383v-217h-754v176q227 175 319.5 253t125.5 121.5t33 88.5q0 60 -39.5 96.5 t-104.5 36.5q-109 0 -211 -123z" />
<glyph unicode="&#xbe;" horiz-adv-x="2572" d="M154 627l141 149q104 -119 242 -119q70 0 115.5 29.5t45.5 75.5q0 54 -32.5 78t-102.5 24h-145v195h133q54 0 85.5 24.5t31.5 67.5q0 46 -38 72t-104 26q-129 0 -219 -108l-137 153q63 76 164.5 122t204.5 46q164 0 270 -79.5t106 -202.5q0 -69 -37 -123t-102 -82 q80 -23 125 -85t45 -151q0 -127 -111 -211t-278 -84q-119 0 -230.5 50.5t-172.5 132.5zM778 0l774 1434h267l-775 -1434h-266zM1532 207v145l399 609h324v-539h162v-215h-162v-207h-248v207h-475zM1802 422h205v319z" />
<glyph unicode="&#xbf;" horiz-adv-x="1232" d="M113 104q0 162 121.5 274.5t316.5 135.5l16 166h181l32 -363q-173 9 -276 -44.5t-103 -153.5q0 -95 62 -149t170 -54q86 0 159 33t160 110l168 -180q-212 -215 -506 -215q-226 0 -363.5 120.5t-137.5 319.5zM494 999q0 73 44.5 114.5t118.5 41.5t119 -41.5t45 -114.5 q0 -71 -45 -113t-119 -42t-118.5 42t-44.5 113z" />
<glyph unicode="&#xc0;" horiz-adv-x="1495" d="M41 0l555 1434h303l555 -1434h-299l-133 369h-549l-133 -369h-299zM311 1964h297l256 -393h-260zM565 623h365l-182 501z" />
<glyph unicode="&#xc1;" horiz-adv-x="1495" d="M41 0l555 1434h303l555 -1434h-299l-133 369h-549l-133 -369h-299zM565 623h365l-182 501zM625 1571l256 393h297l-293 -393h-260z" />
<glyph unicode="&#xc2;" horiz-adv-x="1495" d="M41 0l555 1434h303l555 -1434h-299l-133 369h-549l-133 -369h-299zM328 1571l256 393h325l256 -393h-260l-157 213l-160 -213h-260zM565 623h365l-182 501z" />
<glyph unicode="&#xc3;" horiz-adv-x="1495" d="M41 0l555 1434h303l555 -1434h-299l-133 369h-549l-133 -369h-299zM371 1579q-23 189 32.5 286t186.5 97q108 0 194 -98q59 -65 76 -77q19 -13 37 -13q27 0 40.5 21t15.5 59.5t-1 91.5h170q23 -190 -32.5 -286.5t-186.5 -96.5q-102 0 -188 92q-7 8 -19.5 21.5t-18.5 19.5 t-15.5 16t-14.5 14t-13 10t-13.5 8.5t-12.5 4.5t-14 2q-37 0 -47.5 -41.5t-7.5 -130.5h-168zM565 623h365l-182 501z" />
<glyph unicode="&#xc4;" horiz-adv-x="1495" d="M41 0l555 1434h303l555 -1434h-299l-133 369h-549l-133 -369h-299zM350 1767q0 72 45.5 114t120.5 42q73 0 117.5 -42.5t44.5 -113.5q0 -72 -44.5 -113.5t-117.5 -41.5q-76 0 -121 41t-45 114zM565 623h365l-182 501zM813 1767q0 71 46 113.5t120 42.5q73 0 118.5 -42.5 t45.5 -113.5q0 -72 -45.5 -113.5t-118.5 -41.5q-75 0 -120.5 41.5t-45.5 113.5z" />
<glyph unicode="&#xc5;" horiz-adv-x="1495" d="M41 0l555 1434h303l555 -1434h-299l-133 369h-549l-133 -369h-299zM508 1767q0 98 67 160t173 62t172.5 -62t66.5 -160t-66.5 -159.5t-172.5 -61.5t-173 61.5t-67 159.5zM565 623h365l-182 501zM664 1767q0 -39 23.5 -62.5t60.5 -23.5q38 0 60.5 23t22.5 63t-22.5 63 t-60.5 23q-37 0 -60.5 -23.5t-23.5 -62.5z" />
<glyph unicode="&#xc6;" horiz-adv-x="1810" d="M41 0l555 1434h1137v-252h-678v-320h620v-252h-620v-358h678v-252h-959v369h-301l-133 -369h-299zM565 623h209v581z" />
<glyph unicode="&#xc7;" horiz-adv-x="1433" d="M102 707v20q0 328 190 531.5t496 203.5h11q162 0 307.5 -67t245.5 -187l-168 -180q-98 99 -185 140.5t-202 41.5h-6q-180 0 -291 -132.5t-111 -350.5v-20q0 -216 113 -350t295 -134h6q113 0 199.5 42.5t185.5 144.5l166 -177q-187 -231 -471 -258l-45 -57q77 2 128.5 -43 t51.5 -121q0 -131 -132 -202t-331 -46v138q98 -6 153.5 17.5t55.5 70.5q0 43 -56 51.5t-153 -19.5l129 216q-264 38 -423 235t-159 492z" />
<glyph unicode="&#xc8;" horiz-adv-x="1191" d="M154 0v1434h960v-252h-678v-320h621v-252h-621v-358h678v-252h-960zM199 1964h297l256 -393h-260z" />
<glyph unicode="&#xc9;" horiz-adv-x="1191" d="M154 0v1434h960v-252h-678v-320h621v-252h-621v-358h678v-252h-960zM512 1571l256 393h297l-293 -393h-260z" />
<glyph unicode="&#xca;" horiz-adv-x="1191" d="M154 0v1434h960v-252h-678v-320h621v-252h-621v-358h678v-252h-960zM213 1571l256 393h326l256 -393h-260l-158 213l-160 -213h-260z" />
<glyph unicode="&#xcb;" horiz-adv-x="1191" d="M154 0v1434h960v-252h-678v-320h621v-252h-621v-358h678v-252h-960zM238 1767q0 72 45 114t120 42q73 0 117.5 -42.5t44.5 -113.5q0 -72 -44.5 -113.5t-117.5 -41.5q-76 0 -120.5 41t-44.5 114zM700 1767q0 71 46 113.5t120 42.5q73 0 118.5 -42.5t45.5 -113.5 q0 -72 -45.5 -113.5t-118.5 -41.5q-75 0 -120.5 41.5t-45.5 113.5z" />
<glyph unicode="&#xcc;" d="M-139 1964h297l256 -393h-260zM154 0v1434h282v-1434h-282z" />
<glyph unicode="&#xcd;" d="M154 0v1434h282v-1434h-282zM174 1571l256 393h297l-293 -393h-260z" />
<glyph unicode="&#xce;" d="M-123 1571l256 393h326l256 -393h-260l-158 213l-160 -213h-260zM154 0v1434h282v-1434h-282z" />
<glyph unicode="&#xcf;" d="M-100 1767q0 72 45.5 114t120.5 42q73 0 117 -42.5t44 -113.5q0 -73 -44 -114t-117 -41q-76 0 -121 41t-45 114zM154 0v1434h282v-1434h-282zM362 1767q0 71 46 113.5t120 42.5q73 0 118.5 -42.5t45.5 -113.5q0 -72 -45.5 -113.5t-118.5 -41.5q-75 0 -120.5 41.5 t-45.5 113.5z" />
<glyph unicode="&#xd0;" horiz-adv-x="1480" d="M-23 598v254h177v582h536q312 0 500 -193.5t188 -513.5v-20q0 -320 -188 -513.5t-500 -193.5h-536v598h-177zM436 252h250q188 0 297 122t109 333v20q0 212 -109 333.5t-297 121.5h-250v-330h281v-254h-281v-346z" />
<glyph unicode="&#xd1;" horiz-adv-x="1507" d="M133 0v1434h307l652 -1000v998h282v-1434h-305l-653 999v-997h-283zM375 1579q-23 189 32.5 286t186.5 97q108 0 194 -98q59 -65 76 -77q19 -13 37 -13q27 0 40.5 21t15.5 59.5t-1 91.5h170q23 -190 -32.5 -286.5t-186.5 -96.5q-102 0 -188 92q-7 8 -19.5 21.5 t-18.5 19.5t-15.5 16t-14.5 14t-13 10t-13.5 8.5t-12.5 4.5t-14 2q-37 0 -47.5 -41.5t-7.5 -130.5h-168z" />
<glyph unicode="&#xd2;" horiz-adv-x="1605" d="M102 707v20q0 158 50 293.5t139.5 233t219 153t282.5 55.5h18q204 0 362 -95t243 -262t85 -378v-20q0 -211 -84.5 -378t-242.5 -262.5t-363 -95.5h-18q-203 0 -361.5 95.5t-244 262.5t-85.5 378zM367 1964h297l256 -393h-261zM389 707q0 -210 112.5 -347t295.5 -137h12 q183 0 294 136t111 348v20q0 213 -110.5 348t-294.5 135h-12q-184 0 -296 -135.5t-112 -347.5v-20z" />
<glyph unicode="&#xd3;" horiz-adv-x="1605" d="M102 707v20q0 158 50 293.5t139.5 233t219 153t282.5 55.5h18q204 0 362 -95t243 -262t85 -378v-20q0 -211 -84.5 -378t-242.5 -262.5t-363 -95.5h-18q-203 0 -361.5 95.5t-244 262.5t-85.5 378zM389 707q0 -210 112.5 -347t295.5 -137h12q183 0 294 136t111 348v20 q0 213 -110.5 348t-294.5 135h-12q-184 0 -296 -135.5t-112 -347.5v-20zM680 1571l256 393h297l-293 -393h-260z" />
<glyph unicode="&#xd4;" horiz-adv-x="1605" d="M102 707v20q0 158 50 293.5t139.5 233t219 153t282.5 55.5h18q204 0 362 -95t243 -262t85 -378v-20q0 -211 -84.5 -378t-242.5 -262.5t-363 -95.5h-18q-203 0 -361.5 95.5t-244 262.5t-85.5 378zM383 1571l256 393h326l256 -393h-260l-158 213l-160 -213h-260zM389 707 q0 -210 112.5 -347t295.5 -137h12q183 0 294 136t111 348v20q0 213 -110.5 348t-294.5 135h-12q-184 0 -296 -135.5t-112 -347.5v-20z" />
<glyph unicode="&#xd5;" horiz-adv-x="1605" d="M102 707v20q0 158 50 293.5t139.5 233t219 153t282.5 55.5h18q204 0 362 -95t243 -262t85 -378v-20q0 -211 -84.5 -378t-242.5 -262.5t-363 -95.5h-18q-203 0 -361.5 95.5t-244 262.5t-85.5 378zM389 707q0 -210 112.5 -347t295.5 -137h12q183 0 294 136t111 348v20 q0 213 -110.5 348t-294.5 135h-12q-184 0 -296 -135.5t-112 -347.5v-20zM426 1579q-23 189 32.5 286t186.5 97q109 0 195 -98q58 -65 74 -76q19 -14 38 -14q27 0 40.5 21t16 59.5t-0.5 91.5h170q23 -190 -33 -286.5t-187 -96.5q-102 0 -188 92q-7 8 -19.5 21.5t-18.5 19.5 t-15.5 16t-14.5 14t-13 10t-13.5 8.5t-12.5 4.5t-14 2q-37 0 -47.5 -41.5t-7.5 -130.5h-168z" />
<glyph unicode="&#xd6;" horiz-adv-x="1605" d="M102 707v20q0 158 50 293.5t139.5 233t219 153t282.5 55.5h18q204 0 362 -95t243 -262t85 -378v-20q0 -211 -84.5 -378t-242.5 -262.5t-363 -95.5h-18q-203 0 -361.5 95.5t-244 262.5t-85.5 378zM389 707q0 -210 112.5 -347t295.5 -137h12q183 0 294 136t111 348v20 q0 213 -110.5 348t-294.5 135h-12q-184 0 -296 -135.5t-112 -347.5v-20zM406 1767q0 72 45 114t120 42q73 0 117.5 -42.5t44.5 -113.5q0 -72 -44.5 -113.5t-117.5 -41.5q-76 0 -120.5 41t-44.5 114zM868 1767q0 71 46 113.5t120 42.5q73 0 118.5 -42.5t45.5 -113.5 q0 -72 -45.5 -113.5t-118.5 -41.5q-75 0 -120.5 41.5t-45.5 113.5z" />
<glyph unicode="&#xd7;" horiz-adv-x="978" d="M72 416l241 241l-239 238l178 178l240 -237l237 237l178 -178l-239 -240l239 -239l-178 -178l-237 239l-240 -239z" />
<glyph unicode="&#xd8;" horiz-adv-x="1605" d="M102 707v20q0 158 50 293.5t139.5 233t219 153t282.5 55.5h18q116 0 215 -30l51 104h252l-100 -207q130 -97 201 -254t71 -348v-20q0 -211 -84.5 -378t-242.5 -262.5t-363 -95.5h-18q-111 0 -213 31l-52 -104h-252l101 204q-130 99 -202.5 256t-72.5 349zM389 707 q0 -214 113 -349l409 840q-47 12 -102 12h-12q-184 0 -296 -135.5t-112 -347.5v-20zM694 236q54 -13 103 -13h12q183 0 294 136t111 348v20q0 217 -110 348z" />
<glyph unicode="&#xd9;" horiz-adv-x="1460" d="M154 573v861h282v-852q0 -178 77.5 -268.5t221.5 -90.5h13q143 0 219.5 90.5t76.5 268.5v852h283v-861q0 -287 -153.5 -444.5t-423.5 -157.5h-19q-270 0 -423.5 157.5t-153.5 444.5zM305 1964h297l256 -393h-260z" />
<glyph unicode="&#xda;" horiz-adv-x="1460" d="M154 573v861h282v-852q0 -178 77.5 -268.5t221.5 -90.5h13q143 0 219.5 90.5t76.5 268.5v852h283v-861q0 -287 -153.5 -444.5t-423.5 -157.5h-19q-270 0 -423.5 157.5t-153.5 444.5zM618 1571l256 393h297l-292 -393h-261z" />
<glyph unicode="&#xdb;" horiz-adv-x="1460" d="M154 573v861h282v-852q0 -178 77.5 -268.5t221.5 -90.5h13q143 0 219.5 90.5t76.5 268.5v852h283v-861q0 -287 -153.5 -444.5t-423.5 -157.5h-19q-270 0 -423.5 157.5t-153.5 444.5zM322 1571l256 393h325l256 -393h-260l-158 213l-159 -213h-260z" />
<glyph unicode="&#xdc;" horiz-adv-x="1460" d="M154 573v861h282v-852q0 -178 77.5 -268.5t221.5 -90.5h13q143 0 219.5 90.5t76.5 268.5v852h283v-861q0 -287 -153.5 -444.5t-423.5 -157.5h-19q-270 0 -423.5 157.5t-153.5 444.5zM344 1767q0 72 45.5 114t120.5 42q73 0 117.5 -42.5t44.5 -113.5q0 -72 -44.5 -113.5 t-117.5 -41.5q-76 0 -121 41t-45 114zM807 1767q0 71 46 113.5t120 42.5q73 0 118.5 -42.5t45.5 -113.5q0 -72 -45.5 -113.5t-118.5 -41.5q-75 0 -120.5 41.5t-45.5 113.5z" />
<glyph unicode="&#xdd;" horiz-adv-x="1390" d="M51 1434h307l336 -680l338 680h307l-503 -965v-469h-281v469zM573 1571l256 393h297l-292 -393h-261z" />
<glyph unicode="&#xde;" horiz-adv-x="1376" d="M154 0v1434h282v-189h350q492 0 492 -450v-11q0 -450 -487 -450h-355v-334h-282zM436 588h344q117 0 164 53t47 145q0 98 -51.5 152.5t-173.5 54.5h-330v-405z" />
<glyph unicode="&#xdf;" horiz-adv-x="1275" d="M143 0v1026q0 218 134 346.5t360 128.5t367 -112.5t141 -294.5q0 -105 -59 -187.5t-160 -122.5q125 -29 199.5 -124t74.5 -228q0 -201 -130 -316.5t-357 -115.5h-195v246h170q115 0 177.5 54.5t62.5 154.5q0 95 -68.5 140.5t-214.5 45.5h-80v242h82q100 0 162.5 51.5 t62.5 134.5q0 90 -61.5 140.5t-171.5 50.5q-103 0 -163 -60.5t-60 -163.5v-1036h-273z" />
<glyph unicode="&#xe0;" horiz-adv-x="1196" d="M82 313q0 193 172 286.5t547 94.5v6q0 113 -57 166.5t-175 53.5h-4q-74 0 -154.5 -34t-138.5 -85l-155 168q81 83 209.5 134.5t263.5 51.5h4q234 0 356.5 -116.5t122.5 -344.5v-694h-272v170q-54 -94 -146 -146.5t-202 -52.5h-4q-163 0 -265 95.5t-102 246.5zM160 1657 h297l256 -393h-260zM350 338q0 -63 45.5 -101t124.5 -38h2q123 0 201 88t78 227v4q-230 -2 -340.5 -45t-110.5 -135z" />
<glyph unicode="&#xe1;" horiz-adv-x="1196" d="M82 313q0 193 172 286.5t547 94.5v6q0 113 -57 166.5t-175 53.5h-4q-74 0 -154.5 -34t-138.5 -85l-155 168q81 83 209.5 134.5t263.5 51.5h4q234 0 356.5 -116.5t122.5 -344.5v-694h-272v170q-54 -94 -146 -146.5t-202 -52.5h-4q-163 0 -265 95.5t-102 246.5zM350 338 q0 -63 45.5 -101t124.5 -38h2q123 0 201 88t78 227v4q-230 -2 -340.5 -45t-110.5 -135zM473 1264l256 393h297l-293 -393h-260z" />
<glyph unicode="&#xe2;" horiz-adv-x="1196" d="M82 313q0 193 172 286.5t547 94.5v6q0 113 -57 166.5t-175 53.5h-4q-74 0 -154.5 -34t-138.5 -85l-155 168q81 83 209.5 134.5t263.5 51.5h4q234 0 356.5 -116.5t122.5 -344.5v-694h-272v170q-54 -94 -146 -146.5t-202 -52.5h-4q-163 0 -265 95.5t-102 246.5zM176 1264 l256 393h326l256 -393h-260l-158 213l-160 -213h-260zM350 338q0 -63 45.5 -101t124.5 -38h2q123 0 201 88t78 227v4q-230 -2 -340.5 -45t-110.5 -135z" />
<glyph unicode="&#xe3;" horiz-adv-x="1196" d="M82 313q0 193 172 286.5t547 94.5v6q0 113 -57 166.5t-175 53.5h-4q-74 0 -154.5 -34t-138.5 -85l-155 168q81 83 209.5 134.5t263.5 51.5h4q234 0 356.5 -116.5t122.5 -344.5v-694h-272v170q-54 -94 -146 -146.5t-202 -52.5h-4q-163 0 -265 95.5t-102 246.5zM219 1272 q-23 189 32.5 286t186.5 97q109 0 195 -99q58 -65 74 -76q19 -14 38 -14q27 0 40.5 21t16 59.5t-0.5 91.5h170q23 -190 -32.5 -286.5t-186.5 -96.5q-102 0 -189 93q-7 8 -19.5 21.5t-18.5 19.5t-15.5 16t-14.5 14t-13 10t-13.5 8.5t-12.5 4.5t-14 2q-37 0 -47.5 -41.5 t-7.5 -130.5h-168zM350 338q0 -63 45.5 -101t124.5 -38h2q123 0 201 88t78 227v4q-230 -2 -340.5 -45t-110.5 -135z" />
<glyph unicode="&#xe4;" horiz-adv-x="1196" d="M82 313q0 193 172 286.5t547 94.5v6q0 113 -57 166.5t-175 53.5h-4q-74 0 -154.5 -34t-138.5 -85l-155 168q81 83 209.5 134.5t263.5 51.5h4q234 0 356.5 -116.5t122.5 -344.5v-694h-272v170q-54 -94 -146 -146.5t-202 -52.5h-4q-163 0 -265 95.5t-102 246.5zM199 1460 q0 72 45.5 114t120.5 42q73 0 117 -42.5t44 -113.5q0 -73 -44 -114t-117 -41q-76 0 -121 41t-45 114zM350 338q0 -63 45.5 -101t124.5 -38h2q123 0 201 88t78 227v4q-230 -2 -340.5 -45t-110.5 -135zM662 1460q0 71 45.5 113.5t119.5 42.5q73 0 118.5 -42.5t45.5 -113.5 q0 -72 -45.5 -113.5t-118.5 -41.5q-75 0 -120 41.5t-45 113.5z" />
<glyph unicode="&#xe5;" horiz-adv-x="1196" d="M82 313q0 193 172 286.5t547 94.5v6q0 113 -57 166.5t-175 53.5h-4q-74 0 -154.5 -34t-138.5 -85l-155 168q81 83 209.5 134.5t263.5 51.5h4q234 0 356.5 -116.5t122.5 -344.5v-694h-272v170q-54 -94 -146 -146.5t-202 -52.5h-4q-163 0 -265 95.5t-102 246.5zM350 338 q0 -63 45.5 -101t124.5 -38h2q123 0 201 88t78 227v4q-230 -2 -340.5 -45t-110.5 -135zM356 1460q0 98 67 159.5t173 61.5t173 -61.5t67 -159.5t-67 -159.5t-173 -61.5t-173 61.5t-67 159.5zM512 1460q0 -39 23.5 -62.5t60.5 -23.5q38 0 61 23t23 63t-23 63t-61 23 q-37 0 -60.5 -23.5t-23.5 -62.5z" />
<glyph unicode="&#xe6;" horiz-adv-x="1964" d="M82 313q0 196 173.5 287.5t545.5 93.5v6q0 116 -57.5 168t-174.5 52h-4q-79 0 -159.5 -35t-133.5 -84l-155 168q83 84 211 135t262 51h4q262 0 383 -145q151 145 377 145h12q244 0 384 -163.5t140 -436.5v-68h-813q15 -135 99 -210.5t213 -75.5h8q92 0 171.5 37t131.5 98 l147 -158q-74 -96 -196 -151.5t-271 -55.5q-150 0 -272.5 60.5t-200.5 169.5q-166 -230 -436 -230h-6q-168 0 -275.5 96t-107.5 246zM350 338q0 -64 46 -101.5t126 -37.5q123 0 201 88t78 227v4q-231 -2 -341 -45t-110 -135zM1079 680h537q-12 120 -75 186t-175 66h-10 q-106 0 -181.5 -67.5t-95.5 -184.5z" />
<glyph unicode="&#xe7;" horiz-adv-x="1169" d="M82 555v16q0 259 155.5 421.5t405.5 162.5h12q128 0 248.5 -56t192.5 -151l-160 -174q-51 63 -127.5 103.5t-151.5 40.5h-8q-137 0 -217 -95t-80 -256v-8q0 -160 80 -255t217 -95h8q75 0 151.5 40t127.5 103l158 -170q-66 -83 -162.5 -136.5t-206.5 -68.5l-45 -59 q77 2 128.5 -43t51.5 -121q0 -131 -132 -202t-331 -46v138q98 -6 153.5 17.5t55.5 70.5q0 43 -56 51.5t-153 -19.5l131 218q-202 37 -324 192t-122 381z" />
<glyph unicode="&#xe8;" horiz-adv-x="1245" d="M82 555v16q0 258 154.5 421t396.5 163h12q242 0 384 -162t142 -438v-68h-815q15 -135 98 -210.5t216 -75.5h8q89 0 169.5 36t133.5 99l147 -158q-76 -99 -198 -153t-268 -54q-258 0 -419 161.5t-161 422.5zM205 1657h297l256 -393h-260zM358 680h539q-14 123 -78 187.5 t-174 64.5h-8q-112 0 -186 -68t-93 -184z" />
<glyph unicode="&#xe9;" horiz-adv-x="1245" d="M82 555v16q0 258 154.5 421t396.5 163h12q242 0 384 -162t142 -438v-68h-815q15 -135 98 -210.5t216 -75.5h8q89 0 169.5 36t133.5 99l147 -158q-76 -99 -198 -153t-268 -54q-258 0 -419 161.5t-161 422.5zM358 680h539q-14 123 -78 187.5t-174 64.5h-8q-112 0 -186 -68 t-93 -184zM518 1264l256 393h297l-293 -393h-260z" />
<glyph unicode="&#xea;" horiz-adv-x="1245" d="M82 555v16q0 258 154.5 421t396.5 163h12q242 0 384 -162t142 -438v-68h-815q15 -135 98 -210.5t216 -75.5h8q89 0 169.5 36t133.5 99l147 -158q-76 -99 -198 -153t-268 -54q-258 0 -419 161.5t-161 422.5zM221 1264l256 393h326l256 -393h-260l-158 213l-160 -213h-260z M358 680h539q-14 123 -78 187.5t-174 64.5h-8q-112 0 -186 -68t-93 -184z" />
<glyph unicode="&#xeb;" horiz-adv-x="1245" d="M82 555v16q0 258 154.5 421t396.5 163h12q242 0 384 -162t142 -438v-68h-815q15 -135 98 -210.5t216 -75.5h8q89 0 169.5 36t133.5 99l147 -158q-76 -99 -198 -153t-268 -54q-258 0 -419 161.5t-161 422.5zM244 1460q0 72 45.5 114t120.5 42q73 0 117 -42.5t44 -113.5 q0 -73 -44 -114t-117 -41q-76 0 -121 41t-45 114zM358 680h539q-14 123 -78 187.5t-174 64.5h-8q-112 0 -186 -68t-93 -184zM707 1460q0 71 45.5 113.5t119.5 42.5q73 0 118.5 -42.5t45.5 -113.5q0 -72 -45.5 -113.5t-118.5 -41.5q-75 0 -120 41.5t-45 113.5z" />
<glyph unicode="&#xec;" horiz-adv-x="548" d="M-156 1657h297l256 -393h-260zM143 0v1126h273v-1126h-273z" />
<glyph unicode="&#xed;" horiz-adv-x="548" d="M143 0v1126h273v-1126h-273zM158 1264l256 393h297l-293 -393h-260z" />
<glyph unicode="&#xee;" horiz-adv-x="548" d="M-139 1264l256 393h325l256 -393h-260l-157 213l-160 -213h-260zM143 0v1126h273v-1126h-273z" />
<glyph unicode="&#xef;" horiz-adv-x="548" d="M-117 1460q0 72 45.5 114t120.5 42q73 0 117.5 -42.5t44.5 -113.5q0 -72 -44.5 -113.5t-117.5 -41.5q-76 0 -121 41t-45 114zM143 0v1126h273v-1126h-273zM346 1460q0 71 46 113.5t120 42.5q73 0 118.5 -42.5t45.5 -113.5q0 -72 -45.5 -113.5t-118.5 -41.5 q-75 0 -120.5 41.5t-45.5 113.5z" />
<glyph unicode="&#xf0;" horiz-adv-x="1228" d="M82 471q0 209 124 339t322 130q84 0 169 -31.5t151 -87.5q-52 181 -238 322l-127 -135l-155 122l112 121q-73 41 -174 88l154 164q98 -42 176 -86l109 117l155 -123l-96 -102q383 -293 383 -740q0 -269 -150.5 -433.5t-396.5 -164.5q-143 0 -262 65.5t-187.5 180.5 t-68.5 254zM352 471q0 -110 72.5 -183t181.5 -73h6q120 0 191 87.5t71 236.5v43q-123 135 -301 135q-100 0 -160.5 -65t-60.5 -175v-6z" />
<glyph unicode="&#xf1;" horiz-adv-x="1253" d="M133 0v1126h273v-135q48 73 137 118.5t190 45.5h4q188 0 290.5 -111t102.5 -315v-729h-272v690q0 221 -190 221h-4q-123 0 -190.5 -87.5t-67.5 -248.5v-575h-273zM250 1272q-23 189 32.5 286t186.5 97q109 0 195 -99q58 -65 74 -76q19 -14 38 -14q27 0 40.5 21t15.5 59.5 t-1 91.5h170q23 -190 -32.5 -286.5t-186.5 -96.5q-101 0 -188 93q-7 8 -19.5 21.5t-18.5 19.5t-15.5 16t-14.5 14t-13 10t-13.5 8.5t-12.5 4.5t-14 2q-37 0 -47.5 -41.5t-7.5 -130.5h-168z" />
<glyph unicode="&#xf2;" horiz-adv-x="1292" d="M82 555v16q0 255 155.5 419.5t401.5 164.5h12q163 0 291 -75t198 -208t70 -301v-16q0 -254 -156 -419t-403 -165h-12q-162 0 -289.5 75.5t-197.5 208.5t-70 300zM211 1657h297l256 -393h-260zM352 559q0 -157 79.5 -250.5t209.5 -93.5h10q129 0 208 93.5t79 250.5v8 q0 157 -79 250.5t-208 93.5h-10q-130 0 -209.5 -93.5t-79.5 -250.5v-8z" />
<glyph unicode="&#xf3;" horiz-adv-x="1292" d="M82 555v16q0 255 155.5 419.5t401.5 164.5h12q163 0 291 -75t198 -208t70 -301v-16q0 -254 -156 -419t-403 -165h-12q-162 0 -289.5 75.5t-197.5 208.5t-70 300zM352 559q0 -157 79.5 -250.5t209.5 -93.5h10q129 0 208 93.5t79 250.5v8q0 157 -79 250.5t-208 93.5h-10 q-130 0 -209.5 -93.5t-79.5 -250.5v-8zM524 1264l256 393h297l-293 -393h-260z" />
<glyph unicode="&#xf4;" horiz-adv-x="1292" d="M82 555v16q0 255 155.5 419.5t401.5 164.5h12q163 0 291 -75t198 -208t70 -301v-16q0 -254 -156 -419t-403 -165h-12q-162 0 -289.5 75.5t-197.5 208.5t-70 300zM227 1264l256 393h326l256 -393h-260l-158 213l-160 -213h-260zM352 559q0 -157 79.5 -250.5t209.5 -93.5 h10q129 0 208 93.5t79 250.5v8q0 157 -79 250.5t-208 93.5h-10q-130 0 -209.5 -93.5t-79.5 -250.5v-8z" />
<glyph unicode="&#xf5;" horiz-adv-x="1292" d="M82 555v16q0 255 155.5 419.5t401.5 164.5h12q163 0 291 -75t198 -208t70 -301v-16q0 -254 -156 -419t-403 -165h-12q-162 0 -289.5 75.5t-197.5 208.5t-70 300zM270 1272q-23 189 32.5 286t186.5 97q109 0 195 -99q59 -65 76 -77q19 -13 37 -13q27 0 40.5 21t15.5 59.5 t-1 91.5h170q23 -190 -32.5 -286.5t-186.5 -96.5q-102 0 -189 93q-8 9 -22.5 24.5t-20.5 22t-16.5 17t-16 14.5t-14 9.5t-15.5 7t-15 1.5q-37 0 -48 -42t-8 -130h-168zM352 559q0 -157 79.5 -250.5t209.5 -93.5h10q129 0 208 93.5t79 250.5v8q0 157 -79 250.5t-208 93.5h-10 q-130 0 -209.5 -93.5t-79.5 -250.5v-8z" />
<glyph unicode="&#xf6;" horiz-adv-x="1292" d="M82 555v16q0 255 155.5 419.5t401.5 164.5h12q163 0 291 -75t198 -208t70 -301v-16q0 -254 -156 -419t-403 -165h-12q-162 0 -289.5 75.5t-197.5 208.5t-70 300zM250 1460q0 72 45.5 114t120.5 42q73 0 117.5 -42.5t44.5 -113.5q0 -72 -44.5 -113.5t-117.5 -41.5 q-76 0 -121 41t-45 114zM352 559q0 -157 79.5 -250.5t209.5 -93.5h10q129 0 208 93.5t79 250.5v8q0 157 -79 250.5t-208 93.5h-10q-130 0 -209.5 -93.5t-79.5 -250.5v-8zM713 1460q0 71 46 113.5t120 42.5q73 0 118 -42.5t45 -113.5q0 -72 -45 -113.5t-118 -41.5 q-75 0 -120.5 41.5t-45.5 113.5z" />
<glyph unicode="&#xf7;" horiz-adv-x="1071" d="M72 528v254h927v-254h-927zM393 264q0 62 39.5 98.5t104.5 36.5q64 0 102.5 -36.5t38.5 -98.5q0 -63 -39 -100t-102 -37q-65 0 -104.5 37t-39.5 100zM393 1049q0 62 39.5 98.5t104.5 36.5q64 0 102.5 -36.5t38.5 -98.5q0 -63 -39 -100.5t-102 -37.5q-65 0 -104.5 37.5 t-39.5 100.5z" />
<glyph unicode="&#xf8;" horiz-adv-x="1292" d="M82 555v16q0 255 155.5 419.5t401.5 164.5h12q33 0 49 -2l58 199h225l-72 -254q139 -70 219 -209t80 -318v-16q0 -254 -156 -419t-403 -165h-12l-47 2l-57 -198h-226l72 254q-140 71 -219.5 209.5t-79.5 316.5zM352 559q0 -182 103 -274l178 626q-127 -3 -204 -96.5 t-77 -247.5v-8zM659 215q125 3 202 96.5t77 247.5v8q0 179 -100 273z" />
<glyph unicode="&#xf9;" horiz-adv-x="1222" d="M123 391v735h272v-700q0 -100 47 -155.5t133 -55.5h5q118 0 182.5 88.5t64.5 247.5v575h271v-1126h-271v154q-50 -83 -139 -133t-190 -50h-4q-174 0 -272.5 111.5t-98.5 308.5zM182 1657h297l256 -393h-260z" />
<glyph unicode="&#xfa;" horiz-adv-x="1222" d="M123 391v735h272v-700q0 -100 47 -155.5t133 -55.5h5q118 0 182.5 88.5t64.5 247.5v575h271v-1126h-271v154q-50 -83 -139 -133t-190 -50h-4q-174 0 -272.5 111.5t-98.5 308.5zM496 1264l256 393h297l-293 -393h-260z" />
<glyph unicode="&#xfb;" horiz-adv-x="1222" d="M123 391v735h272v-700q0 -100 47 -155.5t133 -55.5h5q118 0 182.5 88.5t64.5 247.5v575h271v-1126h-271v154q-50 -83 -139 -133t-190 -50h-4q-174 0 -272.5 111.5t-98.5 308.5zM199 1264l256 393h325l256 -393h-260l-158 213l-159 -213h-260z" />
<glyph unicode="&#xfc;" horiz-adv-x="1222" d="M123 391v735h272v-700q0 -100 47 -155.5t133 -55.5h5q118 0 182.5 88.5t64.5 247.5v575h271v-1126h-271v154q-50 -83 -139 -133t-190 -50h-4q-174 0 -272.5 111.5t-98.5 308.5zM221 1460q0 72 45.5 114t120.5 42q73 0 117.5 -42.5t44.5 -113.5q0 -72 -44.5 -113.5 t-117.5 -41.5q-76 0 -121 41t-45 114zM684 1460q0 71 46 113.5t120 42.5q73 0 118.5 -42.5t45.5 -113.5q0 -72 -45.5 -113.5t-118.5 -41.5q-75 0 -120.5 41.5t-45.5 113.5z" />
<glyph unicode="&#xfd;" horiz-adv-x="1206" d="M37 1126h295l274 -835l273 835h297l-461 -1263q-72 -196 -165 -279.5t-241 -83.5q-65 0 -140.5 30.5t-121.5 74.5l156 170q61 -47 112 -47t88 47.5t80 167.5l19 57h-58zM479 1264l256 393h297l-293 -393h-260z" />
<glyph unicode="&#xfe;" horiz-adv-x="1339" d="M143 -471v1946h273v-492q53 82 144 127t196 45h10q218 0 354.5 -163.5t136.5 -420.5v-16q0 -258 -135 -421t-352 -163h-8q-105 0 -198.5 41.5t-147.5 116.5v-600h-273zM416 559q0 -155 77.5 -249.5t202.5 -94.5h11q126 0 203 94.5t77 249.5v8q0 155 -77 249.5t-203 94.5 h-11q-125 0 -202.5 -95t-77.5 -249v-8z" />
<glyph unicode="&#xff;" horiz-adv-x="1206" d="M37 1126h295l274 -835l273 835h297l-461 -1263q-72 -196 -165 -279.5t-241 -83.5q-65 0 -140.5 30.5t-121.5 74.5l156 170q61 -47 112 -47t88 47.5t80 167.5l19 57h-58zM205 1460q0 72 45.5 114t120.5 42q73 0 117 -42.5t44 -113.5q0 -73 -44 -114t-117 -41 q-76 0 -121 41t-45 114zM668 1460q0 71 46 113.5t120 42.5q73 0 118 -42.5t45 -113.5q0 -72 -45 -113.5t-118 -41.5q-75 0 -120.5 41.5t-45.5 113.5z" />
<glyph unicode="&#x152;" horiz-adv-x="2213" d="M102 707v20q0 212 81.5 378t237.5 261.5t363 95.5h11q226 0 381 -116v88h960v-252h-678v-320h621v-252h-621v-358h678v-252h-960v90q-151 -119 -379 -119q-209 0 -368 95t-243 261.5t-84 379.5zM389 707q0 -213 110.5 -348.5t293.5 -135.5h6q114 0 202.5 40t174.5 122 v666q-87 81 -177 120t-206 39h-7q-184 0 -290.5 -134.5t-106.5 -348.5v-20z" />
<glyph unicode="&#x153;" horiz-adv-x="2107" d="M82 555v16q0 257 157 420.5t404 163.5h12q131 0 240.5 -48.5t185.5 -137.5q75 89 181 137.5t235 48.5h12q244 0 384.5 -163.5t140.5 -436.5v-68h-813q15 -135 98.5 -210.5t212.5 -75.5h8q92 0 171.5 37t131.5 98l148 -158q-74 -96 -196 -151.5t-271 -55.5 q-137 0 -251.5 49.5t-191.5 139.5q-76 -89 -186 -139t-240 -50h-12q-247 0 -404 164t-157 420zM352 559q0 -156 80 -250t211 -94h10q132 0 211.5 93.5t79.5 250.5v8q0 157 -79.5 250.5t-211.5 93.5h-10q-131 0 -211 -94t-80 -250v-8zM1223 680h536q-12 120 -75 186t-175 66 h-10q-106 0 -181 -67.5t-95 -184.5z" />
<glyph unicode="&#x178;" horiz-adv-x="1390" d="M51 1434h307l336 -680l338 680h307l-503 -965v-469h-281v469zM299 1767q0 72 45.5 114t120.5 42q73 0 117.5 -42.5t44.5 -113.5q0 -72 -44.5 -113.5t-117.5 -41.5q-76 0 -121 41t-45 114zM762 1767q0 71 46 113.5t120 42.5q73 0 118.5 -42.5t45.5 -113.5 q0 -72 -45.5 -113.5t-118.5 -41.5q-75 0 -120.5 41.5t-45.5 113.5z" />
<glyph unicode="&#x2c6;" horiz-adv-x="980" d="M72 1571l256 393h325l256 -393h-260l-157 213l-160 -213h-260z" />
<glyph unicode="&#x2dc;" horiz-adv-x="911" d="M80 1579q-23 189 32.5 286t186.5 97q109 0 195 -98q58 -65 74 -76q19 -14 38 -14q27 0 40.5 21t16 59.5t-0.5 91.5h169q23 -190 -32.5 -286.5t-186.5 -96.5q-102 0 -188 92q-7 8 -19.5 21.5t-18.5 19.5t-15.5 16t-14.5 14t-13 10t-13.5 8.5t-12.5 4.5t-14 2 q-37 0 -47.5 -41.5t-7.5 -130.5h-168z" />
<glyph unicode="&#x2000;" horiz-adv-x="994" />
<glyph unicode="&#x2001;" horiz-adv-x="1989" />
<glyph unicode="&#x2002;" horiz-adv-x="994" />
<glyph unicode="&#x2003;" horiz-adv-x="1989" />
<glyph unicode="&#x2004;" horiz-adv-x="663" />
<glyph unicode="&#x2005;" horiz-adv-x="497" />
<glyph unicode="&#x2006;" horiz-adv-x="331" />
<glyph unicode="&#x2007;" horiz-adv-x="331" />
<glyph unicode="&#x2008;" horiz-adv-x="248" />
<glyph unicode="&#x2009;" horiz-adv-x="397" />
<glyph unicode="&#x200a;" horiz-adv-x="110" />
<glyph unicode="&#x2010;" horiz-adv-x="1046" d="M154 528v254h739v-254h-739z" />
<glyph unicode="&#x2011;" horiz-adv-x="1046" d="M154 528v254h739v-254h-739z" />
<glyph unicode="&#x2012;" horiz-adv-x="1046" d="M154 528v254h739v-254h-739z" />
<glyph unicode="&#x2013;" horiz-adv-x="1304" d="M154 528v254h997v-254h-997z" />
<glyph unicode="&#x2014;" horiz-adv-x="1783" d="M154 528v254h1474v-254h-1474z" />
<glyph unicode="&#x2018;" horiz-adv-x="671" d="M154 965q0 86 64.5 219.5t176.5 277.5l123 -92q-10 -18 -42.5 -75.5t-45.5 -81t-32 -63t-31 -71.5q60 -8 93.5 -45t33.5 -98q0 -71 -44.5 -113.5t-119.5 -42.5q-76 0 -126 52.5t-50 132.5z" />
<glyph unicode="&#x2019;" horiz-adv-x="671" d="M154 872q4 8 18 32t19 32t17 29.5t17 30.5t15.5 28t15.5 29.5t13.5 27t13.5 28.5t11 26.5t11 27.5q-59 8 -93 46t-34 100q0 70 44.5 111.5t119.5 41.5q76 0 126 -52t50 -132q0 -86 -65 -219.5t-177 -278.5z" />
<glyph unicode="&#x201a;" horiz-adv-x="671" d="M154 -307q115 194 153 289q-60 8 -94.5 46t-34.5 99q0 71 44.5 113.5t119.5 42.5q77 0 126.5 -52.5t49.5 -134.5q0 -85 -65 -218t-177 -279z" />
<glyph unicode="&#x201c;" horiz-adv-x="1110" d="M154 965q0 86 64.5 219.5t176.5 277.5l123 -92q-10 -18 -42.5 -75.5t-45.5 -81t-32 -63t-31 -71.5q60 -8 93.5 -45t33.5 -98q0 -71 -44.5 -113.5t-119.5 -42.5q-76 0 -126 52.5t-50 132.5zM592 965q0 86 65 219t177 278l120 -92q-8 -15 -34.5 -61.5t-36.5 -64.5 t-28 -52.5t-30 -60.5t-22 -52q60 -8 93.5 -45t33.5 -98q0 -71 -44.5 -113.5t-119.5 -42.5q-76 0 -125 52.5t-49 132.5z" />
<glyph unicode="&#x201d;" horiz-adv-x="1110" d="M154 872q4 8 18 32t19 32t17 29.5t17 30.5t15.5 28t15.5 29.5t13.5 27t13.5 28.5t11 26.5t11 27.5q-59 8 -93 46t-34 100q0 70 44.5 111.5t119.5 41.5q76 0 126 -52t50 -132q0 -86 -65 -219.5t-177 -278.5zM592 872q9 15 29.5 52t29.5 53t25.5 46.5t25.5 49.5t20 43.5 t19 46.5q-59 8 -93 46t-34 100q0 70 45.5 111.5t120.5 41.5t124.5 -52.5t49.5 -131.5q0 -87 -64.5 -220.5t-176.5 -277.5z" />
<glyph unicode="&#x201e;" horiz-adv-x="671" d="M154 -307q115 194 153 289q-60 8 -94.5 46t-34.5 99q0 71 44.5 113.5t119.5 42.5q77 0 126.5 -52.5t49.5 -134.5q0 -85 -65 -218t-177 -279z" />
<glyph unicode="&#x2022;" horiz-adv-x="792" d="M154 674q0 107 67.5 173t175.5 66q106 0 174 -66t68 -173q0 -106 -68 -173t-174 -67q-107 0 -175 67t-68 173z" />
<glyph unicode="&#x2026;" horiz-adv-x="1687" d="M154 127q0 71 45.5 113.5t119.5 42.5q73 0 118.5 -42.5t45.5 -113.5q0 -72 -45.5 -114t-118.5 -42q-75 0 -120 41.5t-45 114.5zM680 127q0 72 45 114t119 42t119 -42t45 -114q0 -73 -45 -114.5t-119 -41.5t-119 41.5t-45 114.5zM1206 127q0 72 45 114t119 42t119 -42 t45 -114q0 -73 -45 -114.5t-119 -41.5t-119 41.5t-45 114.5z" />
<glyph unicode="&#x202f;" horiz-adv-x="397" />
<glyph unicode="&#x2039;" horiz-adv-x="942" d="M154 629l335 391h299l-339 -391l339 -393h-299z" />
<glyph unicode="&#x203a;" horiz-adv-x="942" d="M154 236l340 393l-340 391h299l335 -391l-335 -393h-299z" />
<glyph unicode="&#x205f;" horiz-adv-x="497" />
<glyph unicode="&#x20ac;" horiz-adv-x="1634" d="M51 498l62 178h192v31v20v43h-254l62 178h219q57 237 233 375.5t426 138.5h10q162 0 307.5 -67t245.5 -187l-168 -180q-99 99 -186.5 140.5t-200.5 41.5h-6q-130 0 -224.5 -69t-139.5 -193h559l-62 -178h-532l-2 -43v-20v-31h502l-60 -178h-409q46 -129 144 -202t230 -73 h7q113 0 198.5 42.5t184.5 144.5l165 -177q-212 -262 -553 -262q-256 0 -436 142t-237 385h-277z" />
<glyph unicode="&#x2122;" horiz-adv-x="1355" d="M102 1288v146h482v-146h-160v-407h-162v407h-160zM643 881v553h172l133 -224l131 224h174v-553h-161v288l-111 -184h-66l-112 186v-290h-160z" />
<glyph unicode="&#x25fc;" horiz-adv-x="1126" d="M0 0v1126h1126v-1126h-1126z" />
<glyph unicode="&#xfb02;" horiz-adv-x="1368" d="M61 893v233h164v33q0 188 91.5 266t273.5 78q70 0 172 -10v-201q-63 2 -135 2q-71 0 -101 -23.5t-30 -88.5v-56h266v-233h-266v-893h-271v893h-164zM973 0v1475h272v-1475h-272z" />
<glyph unicode="&#xfb03;" horiz-adv-x="2152" d="M61 893v233h164v33q0 188 91.5 266t273.5 78q70 0 172 -10v-201q-63 2 -135 2q-71 0 -101 -23.5t-30 -88.5v-56h442v33q0 188 91 266t274 78q69 0 172 -10v-201q-66 2 -136 2q-72 0 -101.5 -23.5t-29.5 -88.5v-56h267v-233h-267v-893h-270v893h-442v-893h-271v893h-164z M1692 1411q0 65 44.5 105t118.5 40q75 0 119.5 -40t44.5 -105q0 -66 -44.5 -105.5t-119.5 -39.5t-119 39.5t-44 105.5zM1720 0v1126h271v-1126h-271z" />
<glyph unicode="&#xfb04;" horiz-adv-x="2084" d="M61 893v233h164v33q0 188 91.5 266t273.5 78q70 0 172 -10v-201q-63 2 -135 2q-71 0 -101 -23.5t-30 -88.5v-56h442v33q0 188 91 266t274 78q69 0 172 -10v-201q-66 2 -136 2q-72 0 -101.5 -23.5t-29.5 -88.5v-56h267v-233h-267v-893h-270v893h-442v-893h-271v893h-164z M1692 0v1475h270v-1475h-270z" />
</font>
</defs>
</svg>
