<?xml version="1.0" standalone="no"?>
<!DOCTYPE svg PUBLIC "-//W3C//DTD SVG 1.1//EN" "http://www.w3.org/Graphics/SVG/1.1/DTD/svg11.dtd" >
<svg xmlns="http://www.w3.org/2000/svg">
<metadata></metadata>
<defs>
<font id="rutanmedium" horiz-adv-x="1460" >
<font-face units-per-em="2048" ascent="1638" descent="-410" />
<missing-glyph horiz-adv-x="598" />
<glyph unicode="&#xfb01;" horiz-adv-x="1359" d="M72 938v188h168v62q0 168 84.5 241.5t248.5 73.5q55 0 162 -10v-174q-32 1 -63 2t-47.5 1.5t-28.5 0.5q-76 0 -106.5 -25.5t-30.5 -93.5v-78h276v-188h-276v-938h-219v938h-168zM938 1395q0 54 37 87.5t100 33.5q61 0 98 -33.5t37 -87.5q0 -57 -36.5 -91t-98.5 -34 q-63 0 -100 34t-37 91zM967 0v1126h217v-1126h-217z" />
<glyph horiz-adv-x="0" />
<glyph horiz-adv-x="682" />
<glyph unicode=" "  horiz-adv-x="598" />
<glyph unicode="&#x09;" horiz-adv-x="598" />
<glyph unicode="&#xa0;" horiz-adv-x="598" />
<glyph unicode="!" horiz-adv-x="616" d="M170 104q0 61 38 96.5t101 35.5q62 0 99.5 -35.5t37.5 -96.5t-37.5 -97t-99.5 -36q-63 0 -101 36t-38 97zM197 1130v304h223v-304l-41 -704h-141z" />
<glyph unicode="&#x22;" horiz-adv-x="972" d="M170 1323q0 67 34 103t99 36q62 0 96.5 -36t34.5 -103q0 -92 -69 -408h-127q-68 327 -68 408zM539 1323q0 67 35 103t98 36t97 -36t34 -103q0 -81 -68 -408h-127q-69 316 -69 408z" />
<glyph unicode="#" horiz-adv-x="1548" d="M170 377l41 182h217l57 244h-215l45 182h213l90 377h193l-90 -377h252l90 377h192l-90 -377h213l-43 -182h-213l-57 -244h213l-45 -182h-211l-90 -377h-193l90 377h-251l-91 -377h-192l90 377h-215zM621 559h251l58 244h-252z" />
<glyph unicode="$" horiz-adv-x="1325" d="M84 248l137 149q90 -110 212 -167.5t261 -57.5q143 0 231.5 63t88.5 164q0 93 -72.5 139.5t-286.5 90.5q-274 56 -397 150t-123 253q0 167 113.5 280.5t304.5 141.5v234h219v-232q277 -28 440 -205l-135 -147q-169 158 -411 158q-139 0 -222.5 -61.5t-83.5 -162.5 q0 -54 32 -87.5t111.5 -61t235.5 -58.5q270 -55 386 -153t116 -270q0 -171 -120 -288t-318 -143v-231h-217v234q-154 19 -284 87.5t-218 180.5z" />
<glyph unicode="%" horiz-adv-x="2439" d="M113 950v6q0 228 122 367t324 139h12q202 0 324.5 -139t122.5 -367v-6q0 -228 -122.5 -367t-324.5 -139h-12q-202 0 -324 139t-122 367zM317 948q0 -148 65.5 -233.5t180.5 -85.5h4q117 0 181.5 84.5t64.5 234.5v10q0 149 -65 234.5t-181 85.5h-4q-115 0 -180.5 -86 t-65.5 -234v-10zM721 0l774 1434h223l-774 -1434h-223zM1421 477v6q0 228 122 367t325 139h10q203 0 326 -139t123 -367v-6q0 -228 -123 -367t-326 -139h-10q-203 0 -325 139t-122 367zM1626 475q0 -147 64.5 -233t179.5 -86h6q116 0 180 85t64 234v10q0 149 -64.5 234.5 t-179.5 85.5h-6q-115 0 -179.5 -85.5t-64.5 -234.5v-10z" />
<glyph unicode="&#x26;" horiz-adv-x="1515" d="M84 354q0 129 80 223t282 197q-176 202 -176 354q0 146 124 240t317 94q198 0 320 -98t122 -256q0 -117 -81 -209t-273 -190l266 -285q55 44 238 201l143 -158q-142 -122 -240 -195l254 -272h-291l-139 150q-277 -179 -491 -179q-202 0 -328.5 106.5t-126.5 276.5z M307 350q0 -83 63.5 -131.5t172.5 -48.5q150 0 350 127l-297 317q-175 -84 -232 -137t-57 -127zM492 1122q0 -42 33.5 -97t123.5 -155q162 76 221.5 128t59.5 116q0 70 -60 111t-163 41q-98 0 -156.5 -39t-58.5 -105z" />
<glyph unicode="'" horiz-adv-x="604" d="M170 1323q0 67 34 103t99 36q62 0 96.5 -36t34.5 -103q0 -92 -69 -408h-127q-68 327 -68 408z" />
<glyph unicode="(" horiz-adv-x="798" d="M113 711v18q0 275 111 524t308 416l144 -133q-165 -153 -255.5 -362t-90.5 -439v-30q0 -230 90.5 -439t255.5 -362l-144 -133q-197 167 -308 416t-111 524z" />
<glyph unicode=")" horiz-adv-x="890" d="M170 -96q165 153 255.5 362t90.5 439v30q0 230 -90.5 439t-255.5 362l143 133q197 -168 308.5 -416.5t111.5 -523.5v-18q0 -275 -111.5 -523.5t-308.5 -416.5z" />
<glyph unicode="*" horiz-adv-x="1320" d="M170 1057l74 203l311 -117l-4 330h217l-4 -330l313 117l74 -203l-320 -117l224 -270l-166 -135l-227 286l-230 -286l-166 135l221 270z" />
<glyph unicode="+" horiz-adv-x="1079" d="M78 563v201h354v356h215v-358h357v-201h-357v-358h-215v360h-354z" />
<glyph unicode="," horiz-adv-x="659" d="M170 -307q105 187 143 289q-51 6 -80.5 38t-29.5 84q0 60 38 96t101 36q64 0 105.5 -45.5t41.5 -114.5q0 -75 -60.5 -203t-156.5 -258z" />
<glyph unicode="-" horiz-adv-x="1060" d="M170 565v201h721v-201h-721z" />
<glyph unicode="." horiz-adv-x="616" d="M170 104q0 61 38 96.5t101 35.5q62 0 99.5 -35.5t37.5 -96.5t-37.5 -97t-99.5 -36q-63 0 -101 36t-38 97z" />
<glyph unicode="/" horiz-adv-x="768" d="M57 -37l439 1544h217l-439 -1544h-217z" />
<glyph unicode="0" horiz-adv-x="1447" d="M113 711v12q0 340 161.5 539.5t442.5 199.5h14q281 0 442.5 -199.5t161.5 -539.5v-12q0 -340 -161.5 -540t-442.5 -200h-14q-281 0 -442.5 200t-161.5 540zM338 709q0 -248 101 -391.5t282 -143.5h6q181 0 282 143.5t101 391.5v16q0 248 -101 391.5t-282 143.5h-6 q-181 0 -282 -143.5t-101 -391.5v-16z" />
<glyph unicode="1" horiz-adv-x="882" d="M20 1018l512 416h181v-1434h-224v1139l-317 -262z" />
<glyph unicode="2" horiz-adv-x="1320" d="M129 0v152q187 160 304 262t213.5 192t145.5 143t82.5 103.5t42.5 84t9 75.5q0 112 -79 180t-202 68q-107 0 -198.5 -53.5t-176.5 -164.5l-133 148q97 130 232.5 201t287.5 71q222 0 359 -121.5t137 -322.5q0 -111 -55.5 -213t-193 -239.5t-410.5 -362.5h700v-203h-1065z " />
<glyph unicode="3" horiz-adv-x="1288" d="M84 242l137 147q178 -215 434 -215q142 0 232 66.5t90 173.5q0 115 -75.5 169t-235.5 54h-224v199h228q119 0 190.5 55.5t71.5 144.5q0 104 -77.5 164t-209.5 60q-218 0 -373 -195l-135 149q93 116 229.5 182t286.5 66q229 0 366.5 -111.5t137.5 -297.5q0 -92 -57 -172.5 t-154 -124.5q122 -37 190 -130t68 -223q0 -191 -153 -311.5t-392 -120.5q-170 0 -322 71.5t-253 199.5z" />
<glyph unicode="4" horiz-adv-x="1310" d="M57 350v158l641 926h308v-885h249v-199h-249v-350h-222v350h-727zM322 549h462v668z" />
<glyph unicode="5" horiz-adv-x="1304" d="M86 244l137 147q183 -217 424 -217q148 0 240 82t92 213t-86.5 210t-228.5 79q-186 0 -357 -142l-123 58l68 760h870v-203h-682l-32 -367q127 88 301 88q218 0 356.5 -135.5t138.5 -347.5q0 -218 -152 -358t-390 -140q-167 0 -318.5 72t-257.5 201z" />
<glyph unicode="6" horiz-adv-x="1286" d="M113 698q0 359 158.5 561.5t441.5 202.5q140 0 258 -49t200 -141l-141 -152q-132 144 -313 144q-338 0 -375 -478q73 76 175 121t206 45q204 0 335.5 -133t131.5 -340q0 -219 -145 -363.5t-367 -144.5q-267 0 -416 191.5t-149 535.5zM338 569q6 -177 98 -286t236 -109h4 q124 0 206.5 83.5t82.5 209.5v6q0 130 -72.5 207.5t-194.5 77.5q-107 0 -200 -48.5t-160 -140.5z" />
<glyph unicode="7" horiz-adv-x="1181" d="M61 1231v203h1059v-152q-192 -208 -304.5 -355t-183.5 -297t-95.5 -291.5t-24.5 -338.5h-223q0 256 48.5 447.5t162 375t321.5 408.5h-760z" />
<glyph unicode="8" horiz-adv-x="1280" d="M88 397q0 124 65.5 220.5t178.5 140.5q-97 46 -149 125.5t-52 183.5q0 177 139.5 286t364.5 109h10q226 0 366 -109t140 -286q0 -103 -52.5 -182t-148.5 -125q114 -44 179 -140.5t65 -222.5q0 -191 -151 -308.5t-398 -117.5h-8q-247 0 -398 117.5t-151 308.5zM311 410 q0 -111 86.5 -175.5t237.5 -64.5h10q152 0 239 64.5t87 175.5q0 117 -82.5 178t-243.5 61h-10q-160 0 -242 -60.5t-82 -178.5zM352 1051q2 -106 74.5 -161.5t210.5 -55.5h8q136 0 209.5 56.5t73.5 160.5q0 95 -78 153t-207 58h-6q-128 0 -206.5 -58t-78.5 -153z" />
<glyph unicode="9" horiz-adv-x="1286" d="M94 954q0 219 146 363.5t368 144.5q267 0 416.5 -191.5t149.5 -535.5q0 -359 -159 -561.5t-442 -202.5q-139 0 -257.5 49.5t-200.5 141.5l141 151q131 -143 313 -143q338 0 375 477q-73 -76 -175 -121t-206 -45q-204 0 -336.5 133t-132.5 340zM319 961 q0 -130 73.5 -207.5t195.5 -77.5q223 0 360 190q-8 178 -99 286t-235 108h-6q-123 0 -205 -83.5t-84 -209.5v-6z" />
<glyph unicode=":" horiz-adv-x="616" d="M170 104q0 61 38 96.5t101 35.5q62 0 99.5 -35.5t37.5 -96.5t-37.5 -97t-99.5 -36q-63 0 -101 36t-38 97zM170 1024q0 60 38 95.5t101 35.5q62 0 99.5 -35.5t37.5 -95.5q0 -62 -37.5 -97.5t-99.5 -35.5q-64 0 -101.5 35.5t-37.5 97.5z" />
<glyph unicode=";" horiz-adv-x="659" d="M170 -307q105 187 143 289q-51 6 -80.5 38t-29.5 84q0 60 38 96t101 36q64 0 105.5 -45.5t41.5 -114.5q0 -75 -60.5 -203t-156.5 -258zM203 1024q0 60 38.5 95.5t100.5 35.5t100.5 -35.5t38.5 -95.5q0 -62 -38 -97.5t-101 -35.5t-101 35.5t-38 97.5z" />
<glyph unicode="&#x3c;" horiz-adv-x="1081" d="M78 573v185l928 327v-215l-623 -202l623 -205v-217z" />
<glyph unicode="=" horiz-adv-x="1081" d="M78 356v203h928v-203h-928zM78 764v201h928v-201h-928z" />
<glyph unicode="&#x3e;" horiz-adv-x="1081" d="M78 246v217l620 205l-620 202v215l928 -327v-185z" />
<glyph unicode="?" horiz-adv-x="1275" d="M129 1243q213 219 500 219q221 0 354 -119.5t133 -316.5q0 -162 -123.5 -276t-318.5 -134l-21 -190h-143l-35 350q192 -3 304 62.5t112 181.5q0 110 -74 175t-201 65q-94 0 -177.5 -39t-172.5 -125zM442 104q0 61 39 96.5t101 35.5t100.5 -35.5t38.5 -96.5t-38.5 -97 t-100.5 -36t-101 36t-39 97z" />
<glyph unicode="@" horiz-adv-x="2277" d="M113 553q0 227 77.5 422t214.5 332t332 214.5t424 77.5q297 0 525 -119t353.5 -337.5t125.5 -505.5q0 -193 -56 -345t-156.5 -236.5t-228.5 -84.5q-102 0 -172.5 52.5t-95.5 144.5q-56 -93 -160 -145t-221 -52h-10q-222 0 -359 164t-137 420v16q0 256 138 420t360 164h10 q112 0 211.5 -49t153.5 -137v157h217v-831q0 -125 84 -125q91 0 154 134.5t63 330.5q0 354 -218.5 565t-582.5 211q-247 0 -437 -105t-295 -296.5t-108 -442.5q-6 -377 218 -601t604 -224q174 0 317 47v-190q-139 -48 -338 -48q-295 0 -524 125.5t-356 353.5t-127 523z M786 559q0 -177 89.5 -283t232.5 -106h12q143 0 232.5 106t89.5 283v8q0 177 -89.5 283t-232.5 106h-12q-143 0 -232.5 -106t-89.5 -283v-8z" />
<glyph unicode="A" d="M41 0l567 1434h244l567 -1434h-235l-156 408h-596l-156 -408h-235zM508 610h442l-221 582z" />
<glyph unicode="B" horiz-adv-x="1368" d="M170 0v1434h606q451 0 451 -367q0 -107 -40.5 -177.5t-125.5 -111.5q223 -96 223 -362q0 -196 -118 -306t-361 -110h-635zM391 203h412q131 0 193.5 61.5t62.5 163.5q0 99 -64 161t-196 62h-408v-448zM391 840h361q132 0 192 49t60 145q0 95 -54.5 146t-183.5 51h-375 v-391z" />
<glyph unicode="C" horiz-adv-x="1439" d="M113 707v20q0 218 83.5 385t236.5 258.5t351 91.5h13q163 0 309 -68.5t244 -191.5l-138 -147q-96 108 -195 156.5t-224 48.5h-7q-201 0 -324.5 -146.5t-123.5 -384.5v-24q0 -234 128 -382.5t329 -148.5h6q124 0 222.5 49.5t193.5 159.5l137 -145q-218 -267 -551 -267 q-311 0 -500.5 202.5t-189.5 533.5z" />
<glyph unicode="D" horiz-adv-x="1474" d="M170 0v1434h520q304 0 488 -194t184 -513v-20q0 -319 -184 -513t-488 -194h-520zM391 203h295q205 0 328 136.5t123 365.5v24q0 229 -123 365.5t-328 136.5h-295v-1028z" />
<glyph unicode="E" horiz-adv-x="1193" d="M170 0v1434h940v-203h-719v-389h658v-203h-658v-436h719v-203h-940z" />
<glyph unicode="F" horiz-adv-x="1196" d="M170 0v1434h940v-203h-719v-400h660v-200h-660v-631h-221z" />
<glyph unicode="G" horiz-adv-x="1554" d="M113 707v20q0 218 83.5 385t236.5 258.5t351 91.5h13q163 0 309 -68.5t244 -191.5l-138 -147q-96 108 -195 156.5t-224 48.5h-7q-201 0 -324.5 -146.5t-123.5 -384.5v-24q0 -237 124 -384t329 -147q169 0 281 110.5t122 290.5h-420v191h631v-766h-197v197 q-70 -106 -181.5 -166t-254.5 -60q-194 0 -344 93t-232.5 260.5t-82.5 382.5z" />
<glyph unicode="H" horiz-adv-x="1531" d="M170 0v1434h221v-592h750v592h221v-1434h-221v639h-750v-639h-221z" />
<glyph unicode="I" horiz-adv-x="561" d="M170 0v1434h221v-1434h-221z" />
<glyph unicode="J" horiz-adv-x="743" d="M57 -16v200q63 -10 111 -10q105 0 143.5 58t38.5 206v996h223v-1018q0 -229 -92.5 -337t-285.5 -108q-79 0 -138 13z" />
<glyph unicode="K" d="M170 0v1434h221v-777l680 777h285l-529 -596l578 -838h-264l-461 672l-289 -326v-346h-221z" />
<glyph unicode="L" horiz-adv-x="1126" d="M170 0v1434h221v-1231h660v-203h-881z" />
<glyph unicode="M" horiz-adv-x="1712" d="M150 0v1434h249l447 -867l446 867h250v-1434h-223v1061l-401 -793h-144l-403 797v-1065h-221z" />
<glyph unicode="N" horiz-adv-x="1501" d="M150 0v1434h235l745 -1094v1090h222v-1434h-236l-745 1098v-1094h-221z" />
<glyph unicode="O" horiz-adv-x="1593" d="M113 707v20q0 211 83 378t237 262t353 95h21q199 0 353.5 -95t237.5 -262t83 -378v-20q0 -211 -83 -378t-237.5 -262.5t-353.5 -95.5h-21q-199 0 -353 95.5t-237 262.5t-83 378zM338 705q0 -231 125.5 -381t327.5 -150h12q202 0 327 150t125 381v24q0 232 -125 381.5 t-327 149.5h-12q-202 0 -327.5 -150t-125.5 -381v-24z" />
<glyph unicode="P" horiz-adv-x="1368" d="M170 0v1434h614q247 0 363.5 -117.5t116.5 -323.5v-10q0 -206 -114 -322t-362 -116h-397v-545h-221zM391 745h397q138 0 194 64.5t56 175.5q0 115 -59.5 180.5t-200.5 65.5h-387v-486z" />
<glyph unicode="Q" horiz-adv-x="1593" d="M113 707v20q0 211 83 378t237 262t353 95h21q199 0 353.5 -95t237.5 -262t83 -378v-20q0 -169 -55.5 -312.5t-157.5 -242.5l133 -162l-160 -129l-143 172q-137 -62 -291 -62h-21q-199 0 -353 95.5t-237 262.5t-83 378zM338 705q0 -231 125.5 -381t327.5 -150h12 q79 0 155 29l-155 188l160 131l165 -200q127 149 127 383v24q0 232 -125 381.5t-327 149.5h-12q-202 0 -327.5 -150t-125.5 -381v-24z" />
<glyph unicode="R" horiz-adv-x="1363" d="M170 0v1434h614q247 0 363.5 -118t116.5 -325q0 -338 -287 -418l297 -573h-252l-279 551h-352v-551h-221zM391 752h397q137 0 193.5 63.5t56.5 171.5q0 244 -260 244h-387v-479z" />
<glyph unicode="S" horiz-adv-x="1325" d="M84 248l137 149q90 -110 212 -167.5t261 -57.5q143 0 231.5 63t88.5 164q0 93 -72.5 139.5t-286.5 90.5q-274 56 -397 150t-123 253q0 192 147.5 311t385.5 119q169 0 309 -54t235 -157l-135 -147q-169 158 -411 158q-139 0 -222.5 -61.5t-83.5 -162.5q0 -54 32 -87.5 t111.5 -61t235.5 -58.5q270 -55 386 -153t116 -270q0 -193 -151.5 -315t-389.5 -122q-188 0 -349 72.5t-267 204.5z" />
<glyph unicode="T" horiz-adv-x="1257" d="M57 1231v203h1145v-203h-461v-1231h-223v1231h-461z" />
<glyph unicode="U" horiz-adv-x="1466" d="M170 573v861h221v-859q0 -197 91.5 -299t254.5 -102h13q162 0 253 102t91 299v859h223v-861q0 -287 -150.5 -444.5t-412.5 -157.5h-21q-262 0 -412.5 157.5t-150.5 444.5z" />
<glyph unicode="V" horiz-adv-x="1406" d="M57 1434h236l412 -1188l411 1188h236l-521 -1434h-256z" />
<glyph unicode="W" horiz-adv-x="2048" d="M57 1434h234l297 -1145l307 1145h260l307 -1141l295 1141h236l-402 -1434h-252l-315 1163l-315 -1163h-252z" />
<glyph unicode="X" horiz-adv-x="1380" d="M57 0l500 735l-477 699h264l354 -523l353 523h262l-484 -711l496 -723h-264l-371 547l-371 -547h-262z" />
<glyph unicode="Y" horiz-adv-x="1353" d="M57 1434h246l373 -717l375 717h245l-508 -945v-489h-223v489z" />
<glyph unicode="Z" horiz-adv-x="1245" d="M84 0v203l786 1028h-757v203h1038v-203l-786 -1028h796v-203h-1077z" />
<glyph unicode="[" horiz-adv-x="851" d="M170 -207v1847h512v-202h-291v-1444h291v-201h-512z" />
<glyph unicode="\" horiz-adv-x="768" d="M57 1507h217l439 -1544h-217z" />
<glyph unicode="]" horiz-adv-x="851" d="M170 -6h289v1444h-289v202h512v-1847h-512v201z" />
<glyph unicode="^" horiz-adv-x="819" d="M78 1026l229 408h203l231 -408h-209l-122 225l-123 -225h-209z" />
<glyph unicode="_" horiz-adv-x="1404" d="M170 -63h1067v-183h-1067v183z" />
<glyph unicode="`" horiz-adv-x="667" d="M78 1964h248l264 -393h-219z" />
<glyph unicode="a" horiz-adv-x="1191" d="M92 315q0 193 179.5 286.5t564.5 94.5v27q0 122 -63 180t-191 58h-4q-84 0 -170.5 -38.5t-145.5 -95.5l-127 138q78 85 203 137.5t262 52.5q222 0 337.5 -113t115.5 -333v-709h-217v180q-54 -97 -152.5 -153t-216.5 -56h-4q-165 0 -268 95.5t-103 248.5zM307 326 q0 -75 53.5 -119.5t145.5 -44.5q145 0 237.5 105.5t92.5 269.5q-273 -3 -401 -53.5t-128 -157.5z" />
<glyph unicode="b" horiz-adv-x="1333" d="M150 0v1475h217v-500q56 86 155 133t211 47h12q146 0 259 -75.5t174 -208t61 -300.5v-16q0 -256 -138 -420t-360 -164h-10q-112 0 -211 49t-153 138v-158h-217zM367 559q0 -176 90 -282.5t233 -106.5h10q143 0 232.5 106t89.5 283v8q0 177 -89.5 283t-232.5 106h-10 q-143 0 -233 -106.5t-90 -282.5v-8z" />
<glyph unicode="c" horiz-adv-x="1169" d="M92 555v16q0 259 151.5 421.5t395.5 162.5h12q126 0 244 -55.5t192 -149.5l-129 -141q-54 66 -138 107.5t-167 41.5h-12q-152 0 -242 -106t-90 -285v-8q0 -179 90 -285t242 -106h12q83 0 167 41.5t138 107.5l127 -139q-77 -97 -193.5 -152t-246.5 -55q-249 0 -401 160.5 t-152 423.5z" />
<glyph unicode="d" horiz-adv-x="1333" d="M92 555v16q0 168 61.5 300.5t175 208t259.5 75.5h10q112 0 213 -47.5t156 -132.5v500h217v-1475h-217v158q-56 -89 -155.5 -138t-211.5 -49h-10q-222 0 -360 164t-138 420zM309 559q0 -177 89.5 -283t232.5 -106h12q143 0 233.5 106.5t90.5 282.5v8q0 176 -90.5 282.5 t-233.5 106.5h-12q-143 0 -232.5 -106t-89.5 -283v-8z" />
<glyph unicode="e" horiz-adv-x="1245" d="M92 555v16q0 258 151.5 421t389.5 163h12q236 0 377 -161t141 -431v-71h-850q15 -154 107.5 -242t241.5 -88h12q94 0 179 39t142 108l123 -133q-76 -98 -196.5 -151.5t-262.5 -53.5q-255 0 -411 160.5t-156 423.5zM315 664h627q-15 145 -92.5 224t-204.5 79h-10 q-129 0 -214.5 -81.5t-105.5 -221.5z" />
<glyph unicode="f" horiz-adv-x="808" d="M72 938v188h168v62q0 168 84.5 241.5t248.5 73.5q55 0 162 -10v-174q-32 1 -63 2t-47.5 1.5t-28.5 0.5q-76 0 -106.5 -25.5t-30.5 -93.5v-78h276v-188h-276v-938h-219v938h-168z" />
<glyph unicode="g" horiz-adv-x="1323" d="M92 557v16q0 254 138.5 418t359.5 164h10q112 0 211.5 -49t155.5 -137v157h217v-1056q0 -261 -148.5 -415.5t-400.5 -154.5q-292 0 -483 197l131 139q145 -145 338 -145h8q155 0 246.5 96t91.5 258v113q-57 -87 -157.5 -135t-211.5 -48h-10q-221 0 -358.5 164t-137.5 418 zM309 561q0 -176 89.5 -281.5t232.5 -105.5h12q143 0 233.5 106t90.5 281v6q0 176 -90.5 282.5t-233.5 106.5h-12q-143 0 -232.5 -106t-89.5 -283v-6z" />
<glyph unicode="h" horiz-adv-x="1259" d="M160 0v1475h217v-500q52 83 143 131.5t199 48.5h6q189 0 292 -110.5t103 -313.5v-731h-217v711q0 245 -223 245h-2q-140 0 -220.5 -103.5t-80.5 -281.5v-571h-217z" />
<glyph unicode="i" horiz-adv-x="581" d="M160 1395q0 54 37 87.5t100 33.5q61 0 98 -33.5t37 -87.5q0 -57 -36.5 -91t-98.5 -34q-63 0 -100 34t-37 91zM188 0v1126h218v-1126h-218z" />
<glyph unicode="j" horiz-adv-x="567" d="M-18 -301q47 -8 81 -8q58 0 84.5 28t26.5 97v1310h217v-1292q0 -334 -289 -334q-58 0 -120 15v184zM145 1395q0 54 37.5 87.5t100.5 33.5q61 0 99 -33.5t38 -87.5q0 -57 -37.5 -91t-99.5 -34q-63 0 -100.5 34t-37.5 91z" />
<glyph unicode="k" horiz-adv-x="1220" d="M160 0v1475h217v-916l504 567h268l-432 -473l467 -653h-260l-349 496l-198 -220v-276h-217z" />
<glyph unicode="l" horiz-adv-x="514" d="M160 0v1475h217v-1475h-217z" />
<glyph unicode="m" horiz-adv-x="1886" d="M150 0v1126h217v-147q47 80 128 128t181 48h6q120 0 206.5 -54t129.5 -153q57 98 145.5 152.5t202.5 54.5h4q177 0 278 -111t101 -303v-741h-217v723q0 110 -54 171.5t-149 61.5h-4q-130 0 -199 -102.5t-69 -282.5v-571h-217v723q0 110 -53 171.5t-150 61.5h-4 q-130 0 -198 -102t-68 -283v-571h-217z" />
<glyph unicode="n" horiz-adv-x="1249" d="M150 0v1126h217v-151q52 83 143 131.5t199 48.5h6q189 0 292 -110.5t103 -313.5v-731h-217v711q0 245 -223 245h-2q-140 0 -220.5 -103.5t-80.5 -281.5v-571h-217z" />
<glyph unicode="o" horiz-adv-x="1284" d="M92 555v16q0 255 151 419.5t394 164.5h12q243 0 393 -164.5t150 -419.5v-16q0 -167 -67 -299.5t-191.5 -208.5t-284.5 -76h-12q-243 0 -394 164.5t-151 419.5zM309 559q0 -178 91 -283.5t237 -105.5h10q148 0 238 105.5t90 283.5v8q0 178 -90 283.5t-238 105.5h-10 q-146 0 -237 -105.5t-91 -283.5v-8z" />
<glyph unicode="p" horiz-adv-x="1343" d="M160 -471v1597h217v-157q54 88 153 137t211 49h11q222 0 359.5 -164t137.5 -420v-16q0 -168 -61 -300.5t-173.5 -208t-258.5 -75.5h-13q-112 0 -211 47.5t-155 133.5v-623h-217zM377 559q0 -176 90 -282.5t233 -106.5h11q143 0 232 106t89 283v8q0 177 -89 283t-232 106 h-11q-143 0 -233 -106.5t-90 -282.5v-8z" />
<glyph unicode="q" horiz-adv-x="1333" d="M92 555v16q0 256 138 420t360 164h10q112 0 211.5 -49t155.5 -137v157h217v-1597h-217v623q-56 -86 -156.5 -133.5t-212.5 -47.5h-10q-146 0 -259.5 75.5t-175 208t-61.5 300.5zM309 559q0 -177 89.5 -283t232.5 -106h12q143 0 233.5 106.5t90.5 282.5v8 q0 176 -90.5 282.5t-233.5 106.5h-12q-143 0 -232.5 -106t-89.5 -283v-8z" />
<glyph unicode="r" horiz-adv-x="786" d="M150 0v1126h217v-174q51 96 141.5 149.5t200.5 53.5h2q21 0 41 -2v-203h-29q-169 0 -262.5 -108.5t-93.5 -304.5v-537h-217z" />
<glyph unicode="s" horiz-adv-x="1103" d="M82 193l121 135q153 -172 368 -172q101 0 167.5 43t66.5 110q0 65 -54 99t-204 65q-228 45 -328 125q-98 79 -98 212v5q1 154 119.5 247t312.5 93q285 0 442 -168l-123 -131q-132 115 -317 115q-94 0 -155.5 -43t-61.5 -109q0 -53 55 -82t217 -63q220 -46 317 -130 q95 -82 95 -221v-6q-3 -155 -126 -250.5t-318 -95.5q-153 0 -283.5 58.5t-212.5 163.5z" />
<glyph unicode="t" horiz-adv-x="835" d="M72 936v190h168v185l219 35v-220h284v-190h-284v-647q0 -70 32.5 -96.5t116.5 -26.5q45 0 135 4v-178q-108 -21 -196 -21q-153 0 -230 82t-77 256v627h-168z" />
<glyph unicode="u" horiz-adv-x="1212" d="M139 387v739h217v-723q0 -109 54.5 -171t152.5 -62h4q134 0 212.5 104t78.5 281v571h217v-1126h-217v164q-50 -88 -141.5 -140.5t-198.5 -52.5h-4q-176 0 -275.5 111t-99.5 305z" />
<glyph unicode="v" horiz-adv-x="1171" d="M37 1126h235l314 -899l313 899h236l-420 -1126h-260z" />
<glyph unicode="w" horiz-adv-x="1693" d="M37 1126h231l226 -856l223 856h260l225 -860l225 860h232l-324 -1126h-258l-229 881l-232 -881h-258z" />
<glyph unicode="x" horiz-adv-x="1140" d="M37 0l407 571l-395 555h254l270 -389l273 389h254l-400 -561l406 -565h-254l-281 401l-280 -401h-254z" />
<glyph unicode="y" horiz-adv-x="1173" d="M39 1126h235l314 -893l313 893h236l-471 -1263q-74 -197 -159 -280t-214 -83q-60 0 -123.5 26.5t-110.5 72.5l129 139q60 -47 111 -47q53 0 92.5 55t91.5 201l21 53h-45z" />
<glyph unicode="z" horiz-adv-x="1073" d="M92 0v193l610 737h-589v196h856v-192l-611 -737h623v-197h-889z" />
<glyph unicode="{" horiz-adv-x="944" d="M57 621v200h90q74 0 104 26.5t30 92.5v414q0 165 83.5 240t249.5 75q74 0 181 -10v-195q-84 2 -158 2q-77 0 -108 -25.5t-31 -90.5v-414q0 -146 -88 -215q88 -69 88 -213v-424q0 -66 31 -91.5t108 -25.5q74 0 158 2v-196q-97 -9 -181 -9q-166 0 -249.5 75t-83.5 241v424 q0 66 -30 91.5t-104 25.5h-90z" />
<glyph unicode="|" horiz-adv-x="561" d="M170 -205v1639h221v-1639h-221z" />
<glyph unicode="}" horiz-adv-x="983" d="M170 -31q82 -2 158 -2q77 0 107 25.5t30 91.5v424q0 142 90 213q-90 71 -90 215v414q0 66 -30 91t-107 25q-76 0 -158 -2v195q102 10 180 10q166 0 249 -75t83 -240v-414q0 -66 29.5 -92.5t103.5 -26.5h92v-200h-92q-74 0 -103.5 -25.5t-29.5 -91.5v-424q0 -166 -83 -241 t-249 -75q-88 0 -180 9v196z" />
<glyph unicode="~" horiz-adv-x="1013" d="M78 586q76 282 258 282q107 0 217 -96q50 -47 73.5 -61.5t43.5 -14.5q38 0 62.5 31t60.5 131l143 -80q-76 -282 -258 -282q-110 0 -217 96q-50 45 -73.5 59.5t-43.5 14.5q-38 0 -62.5 -31t-60.5 -129z" />
<glyph unicode="&#xa1;" horiz-adv-x="616" d="M170 1022q0 61 38 97t101 36q62 0 99.5 -36t37.5 -97t-37.5 -96t-99.5 -35q-64 0 -101.5 35t-37.5 96zM197 -4l41 704h141l41 -704v-303h-223v303z" />
<glyph unicode="&#xa2;" horiz-adv-x="1169" d="M92 555v16q0 229 121.5 385.5t323.5 190.5v233h217v-235q99 -19 187 -70t146 -125l-129 -141q-54 66 -138 107.5t-167 41.5h-12q-152 0 -242 -106t-90 -285v-8q0 -179 90 -285t242 -106h12q83 0 167 41.5t138 107.5l127 -139q-123 -156 -331 -196v-236h-217v234 q-204 36 -324.5 189.5t-120.5 385.5z" />
<glyph unicode="&#xa3;" horiz-adv-x="1335" d="M129 0v139q111 85 157 166t46 193q0 33 -6 63h-197v203h129q-37 117 -37 235q0 204 135 333.5t349 129.5q326 0 503 -272l-135 -148q-75 117 -157 167.5t-197 50.5q-119 0 -194.5 -73.5t-75.5 -191.5q0 -113 47 -231h442v-203h-385q2 -14 2 -45q0 -198 -121 -313h766 v-203h-1071z" />
<glyph unicode="&#xa4;" horiz-adv-x="1380" d="M37 61l158 158q-99 148 -99 336v16q0 190 97 336l-156 158l151 152l158 -158q148 96 338 96h12q191 0 336 -96l160 158l151 -152l-157 -158q98 -146 98 -336v-16q0 -190 -98 -336l157 -158l-151 -151l-160 158q-146 -97 -336 -97h-12q-190 0 -336 97l-160 -158zM313 559 q0 -170 104 -279.5t267 -109.5h12q163 0 267 109.5t104 279.5v8q0 170 -104 279.5t-267 109.5h-12q-163 0 -267 -109.5t-104 -279.5v-8z" />
<glyph unicode="&#xa5;" horiz-adv-x="1353" d="M57 1434h246l373 -717l375 717h245l-430 -801h236v-180h-314v-99h314v-180h-314v-174h-223v174h-313v180h313v99h-313v180h235z" />
<glyph unicode="&#xa6;" horiz-adv-x="561" d="M170 -205v656h221v-656h-221zM170 778v656h221v-656h-221z" />
<glyph unicode="&#xa7;" horiz-adv-x="1126" d="M92 522q3 163 141 248q-103 81 -100 219q3 154 121.5 247t310.5 93q289 0 443 -168l-121 -131q-70 61 -146 88t-172 27q-95 0 -157 -42.5t-62 -107.5q0 -54 55.5 -83.5t217.5 -63.5q222 -44 318 -127.5t93 -228.5q-3 -165 -141 -248q103 -81 100 -219 q-1 -153 -120.5 -246.5t-311.5 -93.5q-288 0 -442 168l121 131q70 -61 145.5 -88t171.5 -27q95 0 157 42t62 107q0 54 -55 84t-217 64q-222 44 -318 127.5t-94 228.5zM309 530q0 -66 53 -99t205 -64q34 -6 95 -23q71 14 113 50.5t42 88.5q0 66 -52.5 99.5t-203.5 64.5 q-28 5 -94 23q-72 -14 -115 -51t-43 -89z" />
<glyph unicode="&#xa8;" horiz-adv-x="864" d="M78 1767q0 61 37.5 96t101.5 35q62 0 99.5 -35t37.5 -96t-37.5 -97t-99.5 -36q-63 0 -101 36t-38 97zM510 1767q0 61 37.5 96t101.5 35q62 0 99.5 -35t37.5 -96t-37.5 -97t-99.5 -36q-63 0 -101 36t-38 97z" />
<glyph unicode="&#xa9;" horiz-adv-x="1355" d="M113 950q0 240 160 396.5t407 156.5q244 0 403.5 -157t159.5 -396t-159.5 -396t-403.5 -157q-247 0 -407 156.5t-160 396.5zM279 950q0 -175 112 -287t289 -112q173 0 285 112t112 287t-112 287.5t-285 112.5q-177 0 -289 -112.5t-112 -287.5zM408 948v6q0 127 76 207 t198 80h2q61 0 118.5 -26.5t100.5 -73.5l-100 -107q-36 29 -60 39t-55 10h-2q-50 0 -80.5 -36.5t-30.5 -94.5v-2q0 -60 30.5 -96.5t80.5 -36.5h2q33 0 56 9.5t59 37.5l96 -102q-38 -47 -95 -73.5t-120 -26.5h-2q-122 0 -198 79.5t-76 206.5z" />
<glyph unicode="&#xab;" horiz-adv-x="1374" d="M170 612l340 400h250l-342 -400l342 -399h-250zM614 612l340 400h250l-344 -400l344 -399h-250z" />
<glyph unicode="&#xac;" horiz-adv-x="1081" d="M78 565v201h928v-461h-224v260h-704z" />
<glyph unicode="&#xad;" horiz-adv-x="1060" d="M170 565v201h721v-201h-721z" />
<glyph unicode="&#xae;" horiz-adv-x="1355" d="M113 950q0 158 72.5 284t201.5 197.5t291 71.5q244 0 404.5 -157t160.5 -396t-160.5 -396t-404.5 -157q-162 0 -291 71.5t-201.5 197.5t-72.5 284zM279 950q0 -175 111.5 -287t287.5 -112q175 0 286 112t111 287t-111.5 287.5t-285.5 112.5q-176 0 -287.5 -112.5 t-111.5 -287.5zM444 678v553h277q207 0 207 -187q0 -109 -101 -153l113 -213h-190l-95 186h-41v-186h-170zM614 1008h97q49 0 49 36q0 43 -55 43h-91v-79z" />
<glyph unicode="&#xaf;" horiz-adv-x="665" d="M78 1651v182h512v-182h-512z" />
<glyph unicode="&#xb0;" horiz-adv-x="890" d="M113 1137v8q0 136 94 226.5t235 90.5h7q140 0 234.5 -91t94.5 -226v-8q0 -135 -95.5 -226.5t-233.5 -91.5h-7q-140 0 -234.5 91.5t-94.5 226.5zM297 1139q0 -64 42 -107t105 -43h2q63 0 105.5 43t42.5 107v4q0 64 -42.5 105.5t-105.5 41.5h-2q-64 0 -105.5 -41 t-41.5 -106v-4z" />
<glyph unicode="&#xb1;" horiz-adv-x="1079" d="M78 145v177h926v-177h-926zM78 680v174h366v258h193v-258h367v-176h-367v-260h-193v262h-366z" />
<glyph unicode="&#xb4;" horiz-adv-x="667" d="M78 1571l264 393h248l-293 -393h-219z" />
<glyph unicode="&#xb6;" horiz-adv-x="1366" d="M113 1028q0 223 100.5 328.5t314.5 105.5h668v-1933h-190v1755h-285v-1755h-193v1065q-209 0 -312 108t-103 326z" />
<glyph unicode="&#xb7;" horiz-adv-x="616" d="M170 643q0 61 37.5 96t101.5 35q62 0 99.5 -35t37.5 -96t-37.5 -97t-99.5 -36q-63 0 -101 36t-38 97z" />
<glyph unicode="&#xb8;" horiz-adv-x="598" d="M78 -240l141 240h184l-59 -80q79 2 127.5 -42t48.5 -124q0 -129 -126.5 -200t-315.5 -48v136q108 -9 170.5 15.5t62.5 76.5q0 46 -63 53t-170 -27z" />
<glyph unicode="&#xbb;" horiz-adv-x="1374" d="M170 213l342 399l-342 400h250l340 -400l-340 -399h-250zM614 213l342 399l-342 400h250l340 -400l-340 -399h-250z" />
<glyph unicode="&#xbc;" horiz-adv-x="2406" d="M170 1126l379 308h174v-963h-205v705l-211 -179zM657 0l775 1434h223l-774 -1434h-224zM1378 217v125l430 621h263v-564h165v-182h-165v-217h-207v217h-486zM1622 399h242v355z" />
<glyph unicode="&#xbd;" horiz-adv-x="2473" d="M170 1126l379 308h174v-963h-205v705l-211 -179zM657 0l775 1434h223l-774 -1434h-224zM1548 809q73 87 170 133.5t203 46.5q152 0 253 -92.5t101 -230.5q0 -114 -89 -222.5t-308 -259.5h426v-184h-743v154q179 139 269.5 212t149.5 130.5t73.5 87t14.5 65.5 q0 69 -46 112.5t-119 43.5q-119 0 -232 -133z" />
<glyph unicode="&#xbe;" horiz-adv-x="2545" d="M170 629l119 127q114 -129 266 -129q83 0 134.5 34.5t51.5 90.5q0 66 -38 96.5t-121 30.5h-150v172h139q63 0 101.5 29.5t38.5 80.5q0 55 -44.5 87t-121.5 32q-141 0 -242 -119l-115 131q64 77 162 123.5t201 46.5q158 0 262.5 -81t104.5 -203q0 -67 -37 -120.5 t-103 -82.5q80 -23 125 -85.5t45 -150.5q0 -128 -108.5 -211.5t-274.5 -83.5q-116 0 -225 51t-170 134zM797 0l774 1434h223l-774 -1434h-223zM1520 217v125l428 621h262v-564h166v-182h-166v-217h-205v217h-485zM1761 399h244v357z" />
<glyph unicode="&#xbf;" horiz-adv-x="1245" d="M129 100q0 162 124.5 276t319.5 134l19 190h145l33 -350q-191 3 -303.5 -63t-112.5 -181q0 -110 74.5 -174.5t200.5 -64.5q95 0 178 39t172 125l137 -148q-213 -219 -498 -219q-222 0 -355.5 119.5t-133.5 316.5zM524 1022q0 61 39 97t101 36t100.5 -36t38.5 -97 t-38.5 -96t-100.5 -35q-63 0 -101.5 35t-38.5 96z" />
<glyph unicode="&#xc0;" d="M41 0l567 1434h244l567 -1434h-235l-156 408h-596l-156 -408h-235zM315 1964h248l264 -393h-219zM508 610h442l-221 582z" />
<glyph unicode="&#xc1;" d="M41 0l567 1434h244l567 -1434h-235l-156 408h-596l-156 -408h-235zM508 610h442l-221 582zM631 1571l264 393h248l-293 -393h-219z" />
<glyph unicode="&#xc2;" d="M41 0l567 1434h244l567 -1434h-235l-156 408h-596l-156 -408h-235zM330 1571l264 393h274l265 -393h-220l-182 241l-182 -241h-219zM508 610h442l-221 582z" />
<glyph unicode="&#xc3;" d="M41 0l567 1434h244l567 -1434h-235l-156 408h-596l-156 -408h-235zM369 1581q-49 375 202 375q114 0 205 -113q34 -43 47.5 -59t30.5 -28.5t33 -12.5q40 0 49 45.5t4 148.5h152q49 -372 -203 -372q-62 0 -109.5 25.5t-91.5 82.5q-6 8 -18 22q-39 48 -57 64.5t-40 16.5 q-41 0 -49.5 -45.5t-3.5 -149.5h-151zM508 610h442l-221 582z" />
<glyph unicode="&#xc4;" d="M41 0l567 1434h244l567 -1434h-235l-156 408h-596l-156 -408h-235zM375 1767q0 61 37.5 96t101.5 35q62 0 99.5 -35t37.5 -96t-37.5 -97t-99.5 -36q-63 0 -101 36t-38 97zM508 610h442l-221 582zM807 1767q0 61 37.5 96t101.5 35q62 0 99.5 -35t37.5 -96t-37.5 -97 t-99.5 -36q-63 0 -101 36t-38 97z" />
<glyph unicode="&#xc5;" d="M41 0l567 1434h244l567 -1434h-235l-156 408h-596l-156 -408h-235zM492 1767q0 98 66.5 160t172.5 62t173 -62t67 -160t-67 -159.5t-173 -61.5t-172.5 61.5t-66.5 159.5zM508 610h442l-221 582zM641 1767q0 -41 24.5 -66.5t65.5 -25.5q40 0 64 25.5t24 66.5t-24 67 t-64 26q-41 0 -65.5 -25.5t-24.5 -67.5z" />
<glyph unicode="&#xc6;" horiz-adv-x="1773" d="M41 0l567 1434h1080v-203h-717v-389h657v-203h-657v-436h717v-203h-940v408h-316l-156 -408h-235zM508 610h240v629z" />
<glyph unicode="&#xc7;" horiz-adv-x="1439" d="M113 707v20q0 218 83.5 385t236.5 258.5t351 91.5h13q163 0 309 -68.5t244 -191.5l-138 -147q-96 108 -195 156.5t-224 48.5h-7q-201 0 -324.5 -146.5t-123.5 -384.5v-24q0 -234 128 -382.5t329 -148.5h6q124 0 222.5 49.5t193.5 159.5l137 -145q-192 -238 -480 -265 l-40 -53q79 2 127.5 -42t48.5 -124q0 -129 -127 -200t-316 -48v136q108 -9 171 15.5t63 76.5q0 46 -63.5 53t-170.5 -27l129 217q-267 35 -425 232t-158 498z" />
<glyph unicode="&#xc8;" horiz-adv-x="1193" d="M170 0v1434h940v-203h-719v-389h658v-203h-658v-436h719v-203h-940zM225 1964h248l264 -393h-219z" />
<glyph unicode="&#xc9;" horiz-adv-x="1193" d="M170 0v1434h940v-203h-719v-389h658v-203h-658v-436h719v-203h-940zM539 1571l264 393h248l-293 -393h-219z" />
<glyph unicode="&#xca;" horiz-adv-x="1193" d="M170 0v1434h940v-203h-719v-389h658v-203h-658v-436h719v-203h-940zM238 1571l264 393h274l264 -393h-219l-182 241l-182 -241h-219z" />
<glyph unicode="&#xcb;" horiz-adv-x="1193" d="M170 0v1434h940v-203h-719v-389h658v-203h-658v-436h719v-203h-940zM285 1767q0 61 37.5 96t101.5 35q62 0 99.5 -35t37.5 -96t-37.5 -97t-99.5 -36q-63 0 -101 36t-38 97zM717 1767q0 61 37.5 96t101.5 35q62 0 99.5 -35t37.5 -96t-37.5 -97t-99.5 -36q-63 0 -101 36 t-38 97z" />
<glyph unicode="&#xcc;" horiz-adv-x="561" d="M-133 1964h248l264 -393h-219zM170 0v1434h221v-1434h-221z" />
<glyph unicode="&#xcd;" horiz-adv-x="561" d="M170 0v1434h221v-1434h-221zM182 1571l264 393h248l-293 -393h-219z" />
<glyph unicode="&#xce;" horiz-adv-x="561" d="M-121 1571l264 393h275l264 -393h-219l-182 241l-183 -241h-219zM170 0v1434h221v-1434h-221z" />
<glyph unicode="&#xcf;" horiz-adv-x="561" d="M-74 1767q0 61 38 96t102 35q62 0 99.5 -35t37.5 -96t-37.5 -97t-99.5 -36q-63 0 -101.5 36t-38.5 97zM170 0v1434h221v-1434h-221zM358 1767q0 61 38 96t102 35q62 0 99.5 -35t37.5 -96t-37.5 -97t-99.5 -36q-63 0 -101.5 36t-38.5 97z" />
<glyph unicode="&#xd0;" horiz-adv-x="1474" d="M-10 627v200h180v607h520q304 0 488 -194t184 -513v-20q0 -319 -184 -513t-488 -194h-520v627h-180zM391 203h295q205 0 328 136.5t123 365.5v24q0 229 -123 365.5t-328 136.5h-295v-404h320v-200h-320v-424z" />
<glyph unicode="&#xd1;" horiz-adv-x="1501" d="M150 0v1434h235l745 -1094v1090h222v-1434h-236l-745 1098v-1094h-221zM385 1581q-49 375 203 375q114 0 205 -113q59 -75 77 -88q16 -12 33 -12q40 0 49 45.5t4 148.5h152q49 -372 -203 -372q-61 0 -108.5 25.5t-91.5 82.5q-6 8 -18 22q-39 48 -57 64.5t-40 16.5 q-41 0 -49.5 -45.5t-3.5 -149.5h-152z" />
<glyph unicode="&#xd2;" horiz-adv-x="1593" d="M113 707v20q0 211 83 378t237 262t353 95h21q199 0 353.5 -95t237.5 -262t83 -378v-20q0 -211 -83 -378t-237.5 -262.5t-353.5 -95.5h-21q-199 0 -353 95.5t-237 262.5t-83 378zM338 705q0 -231 125.5 -381t327.5 -150h12q202 0 327 150t125 381v24q0 232 -125 381.5 t-327 149.5h-12q-202 0 -327.5 -150t-125.5 -381v-24zM383 1964h248l264 -393h-219z" />
<glyph unicode="&#xd3;" horiz-adv-x="1593" d="M113 707v20q0 211 83 378t237 262t353 95h21q199 0 353.5 -95t237.5 -262t83 -378v-20q0 -211 -83 -378t-237.5 -262.5t-353.5 -95.5h-21q-199 0 -353 95.5t-237 262.5t-83 378zM338 705q0 -231 125.5 -381t327.5 -150h12q202 0 327 150t125 381v24q0 232 -125 381.5 t-327 149.5h-12q-202 0 -327.5 -150t-125.5 -381v-24zM696 1571l265 393h247l-293 -393h-219z" />
<glyph unicode="&#xd4;" horiz-adv-x="1593" d="M113 707v20q0 211 83 378t237 262t353 95h21q199 0 353.5 -95t237.5 -262t83 -378v-20q0 -211 -83 -378t-237.5 -262.5t-353.5 -95.5h-21q-199 0 -353 95.5t-237 262.5t-83 378zM338 705q0 -231 125.5 -381t327.5 -150h12q202 0 327 150t125 381v24q0 232 -125 381.5 t-327 149.5h-12q-202 0 -327.5 -150t-125.5 -381v-24zM395 1571l264 393h275l264 -393h-219l-182 241l-183 -241h-219z" />
<glyph unicode="&#xd5;" horiz-adv-x="1593" d="M113 707v20q0 211 83 378t237 262t353 95h21q199 0 353.5 -95t237.5 -262t83 -378v-20q0 -211 -83 -378t-237.5 -262.5t-353.5 -95.5h-21q-199 0 -353 95.5t-237 262.5t-83 378zM338 705q0 -231 125.5 -381t327.5 -150h12q202 0 327 150t125 381v24q0 232 -125 381.5 t-327 149.5h-12q-202 0 -327.5 -150t-125.5 -381v-24zM434 1581q-50 375 203 375q114 0 205 -113q59 -75 77 -88q16 -12 33 -12q41 0 50 46t4 148h151q49 -372 -203 -372q-61 0 -108.5 25.5t-91.5 82.5q-6 8 -18 22q-39 48 -57 64.5t-40 16.5q-41 0 -49.5 -45.5t-3.5 -149.5 h-152z" />
<glyph unicode="&#xd6;" horiz-adv-x="1593" d="M113 707v20q0 211 83 378t237 262t353 95h21q199 0 353.5 -95t237.5 -262t83 -378v-20q0 -211 -83 -378t-237.5 -262.5t-353.5 -95.5h-21q-199 0 -353 95.5t-237 262.5t-83 378zM338 705q0 -231 125.5 -381t327.5 -150h12q202 0 327 150t125 381v24q0 232 -125 381.5 t-327 149.5h-12q-202 0 -327.5 -150t-125.5 -381v-24zM442 1767q0 61 38 96t102 35q62 0 99.5 -35t37.5 -96t-37.5 -97t-99.5 -36q-63 0 -101.5 36t-38.5 97zM874 1767q0 61 38 96t102 35q62 0 99.5 -35t37.5 -96t-37.5 -97t-99.5 -36q-63 0 -101.5 36t-38.5 97z" />
<glyph unicode="&#xd7;" horiz-adv-x="954" d="M78 410l256 256l-256 256l143 143l256 -256l256 256l144 -143l-259 -256l256 -256l-141 -144l-256 256l-256 -256z" />
<glyph unicode="&#xd8;" horiz-adv-x="1593" d="M113 707v20q0 211 83 378t237 262t353 95h21q125 0 229 -37l56 111h211l-99 -199q131 -97 204 -256t73 -354v-20q0 -211 -83 -378t-237.5 -262.5t-353.5 -95.5h-21q-125 0 -229 37l-55 -110h-211l98 198q-131 97 -203.5 256.5t-72.5 354.5zM338 705q0 -125 39 -230 t110 -176l459 938q-74 23 -143 23h-12q-202 0 -327.5 -150t-125.5 -381v-24zM647 197q71 -23 144 -23h12q202 0 327 150t125 381v24q0 125 -39 230t-110 178z" />
<glyph unicode="&#xd9;" horiz-adv-x="1466" d="M170 573v861h221v-859q0 -197 91.5 -299t254.5 -102h13q162 0 253 102t91 299v859h223v-861q0 -287 -150.5 -444.5t-412.5 -157.5h-21q-262 0 -412.5 157.5t-150.5 444.5zM328 1964h247l265 -393h-219z" />
<glyph unicode="&#xda;" horiz-adv-x="1466" d="M170 573v861h221v-859q0 -197 91.5 -299t254.5 -102h13q162 0 253 102t91 299v859h223v-861q0 -287 -150.5 -444.5t-412.5 -157.5h-21q-262 0 -412.5 157.5t-150.5 444.5zM643 1571l264 393h248l-293 -393h-219z" />
<glyph unicode="&#xdb;" horiz-adv-x="1466" d="M170 573v861h221v-859q0 -197 91.5 -299t254.5 -102h13q162 0 253 102t91 299v859h223v-861q0 -287 -150.5 -444.5t-412.5 -157.5h-21q-262 0 -412.5 157.5t-150.5 444.5zM342 1571l264 393h275l264 -393h-219l-183 241l-182 -241h-219z" />
<glyph unicode="&#xdc;" horiz-adv-x="1466" d="M170 573v861h221v-859q0 -197 91.5 -299t254.5 -102h13q162 0 253 102t91 299v859h223v-861q0 -287 -150.5 -444.5t-412.5 -157.5h-21q-262 0 -412.5 157.5t-150.5 444.5zM387 1767q0 61 37.5 96t101.5 35q62 0 100 -35t38 -96t-38 -97t-100 -36q-63 0 -101 36t-38 97z M819 1767q0 61 37.5 96t101.5 35q62 0 100 -35t38 -96t-38 -97t-100 -36q-63 0 -101 36t-38 97z" />
<glyph unicode="&#xdd;" horiz-adv-x="1353" d="M57 1434h246l373 -717l375 717h245l-508 -945v-489h-223v489zM575 1571l265 393h247l-292 -393h-220z" />
<glyph unicode="&#xde;" horiz-adv-x="1368" d="M170 0v1434h221v-197h393q129 0 223 -32.5t149.5 -92.5t81.5 -137.5t26 -175.5v-13q0 -204 -113.5 -321t-362.5 -117h-397v-348h-221zM391 549h397q138 0 194 65t56 174q0 248 -260 248h-387v-487z" />
<glyph unicode="&#xdf;" horiz-adv-x="1269" d="M160 0v1059q0 200 129.5 321t343.5 121q220 0 355.5 -111t135.5 -294q0 -101 -57.5 -184.5t-157.5 -127.5q128 -35 202.5 -129.5t74.5 -224.5q0 -200 -130 -315t-356 -115h-211v199h199q134 0 207.5 63t73.5 180q0 224 -328 224h-100v196h96q119 0 194.5 61.5t75.5 159.5 q0 102 -73.5 162t-200.5 60q-117 0 -186.5 -66.5t-69.5 -175.5v-1063h-217z" />
<glyph unicode="&#xe0;" horiz-adv-x="1191" d="M92 315q0 193 179.5 286.5t564.5 94.5v27q0 122 -63 180t-191 58h-4q-84 0 -170.5 -38.5t-145.5 -95.5l-127 138q78 85 203 137.5t262 52.5q222 0 337.5 -113t115.5 -333v-709h-217v180q-54 -97 -152.5 -153t-216.5 -56h-4q-165 0 -268 95.5t-103 248.5zM176 1657h248 l264 -393h-219zM307 326q0 -75 53.5 -119.5t145.5 -44.5q145 0 237.5 105.5t92.5 269.5q-273 -3 -401 -53.5t-128 -157.5z" />
<glyph unicode="&#xe1;" horiz-adv-x="1191" d="M92 315q0 193 179.5 286.5t564.5 94.5v27q0 122 -63 180t-191 58h-4q-84 0 -170.5 -38.5t-145.5 -95.5l-127 138q78 85 203 137.5t262 52.5q222 0 337.5 -113t115.5 -333v-709h-217v180q-54 -97 -152.5 -153t-216.5 -56h-4q-165 0 -268 95.5t-103 248.5zM307 326 q0 -75 53.5 -119.5t145.5 -44.5q145 0 237.5 105.5t92.5 269.5q-273 -3 -401 -53.5t-128 -157.5zM489 1264l265 393h247l-292 -393h-220z" />
<glyph unicode="&#xe2;" horiz-adv-x="1191" d="M92 315q0 193 179.5 286.5t564.5 94.5v27q0 122 -63 180t-191 58h-4q-84 0 -170.5 -38.5t-145.5 -95.5l-127 138q78 85 203 137.5t262 52.5q222 0 337.5 -113t115.5 -333v-709h-217v180q-54 -97 -152.5 -153t-216.5 -56h-4q-165 0 -268 95.5t-103 248.5zM188 1264 l265 393h274l264 -393h-219l-182 241l-182 -241h-220zM307 326q0 -75 53.5 -119.5t145.5 -44.5q145 0 237.5 105.5t92.5 269.5q-273 -3 -401 -53.5t-128 -157.5z" />
<glyph unicode="&#xe3;" horiz-adv-x="1191" d="M92 315q0 193 179.5 286.5t564.5 94.5v27q0 122 -63 180t-191 58h-4q-84 0 -170.5 -38.5t-145.5 -95.5l-127 138q78 85 203 137.5t262 52.5q222 0 337.5 -113t115.5 -333v-709h-217v180q-54 -97 -152.5 -153t-216.5 -56h-4q-165 0 -268 95.5t-103 248.5zM227 1274 q-49 375 203 375q114 0 205 -113q59 -75 77 -88q16 -12 33 -12q41 0 50 46t4 148h151q49 -373 -202 -373q-61 0 -109 26t-92 83q-62 75 -77 88q-19 14 -38 14q-41 0 -49.5 -45t-3.5 -149h-152zM307 326q0 -75 53.5 -119.5t145.5 -44.5q145 0 237.5 105.5t92.5 269.5 q-273 -3 -401 -53.5t-128 -157.5z" />
<glyph unicode="&#xe4;" horiz-adv-x="1191" d="M92 315q0 193 179.5 286.5t564.5 94.5v27q0 122 -63 180t-191 58h-4q-84 0 -170.5 -38.5t-145.5 -95.5l-127 138q78 85 203 137.5t262 52.5q222 0 337.5 -113t115.5 -333v-709h-217v180q-54 -97 -152.5 -153t-216.5 -56h-4q-165 0 -268 95.5t-103 248.5zM236 1460 q0 61 37.5 96t101.5 35q62 0 99.5 -35t37.5 -96t-37.5 -97t-99.5 -36q-63 0 -101 36t-38 97zM307 326q0 -75 53.5 -119.5t145.5 -44.5q145 0 237.5 105.5t92.5 269.5q-273 -3 -401 -53.5t-128 -157.5zM668 1460q0 61 37.5 96t101.5 35q62 0 99.5 -35t37.5 -96t-37.5 -97 t-99.5 -36q-63 0 -101 36t-38 97z" />
<glyph unicode="&#xe5;" horiz-adv-x="1191" d="M92 315q0 193 179.5 286.5t564.5 94.5v27q0 122 -63 180t-191 58h-4q-84 0 -170.5 -38.5t-145.5 -95.5l-127 138q78 85 203 137.5t262 52.5q222 0 337.5 -113t115.5 -333v-709h-217v180q-54 -97 -152.5 -153t-216.5 -56h-4q-165 0 -268 95.5t-103 248.5zM307 326 q0 -75 53.5 -119.5t145.5 -44.5q145 0 237.5 105.5t92.5 269.5q-273 -3 -401 -53.5t-128 -157.5zM350 1460q0 98 67 159.5t173 61.5t172.5 -61.5t66.5 -159.5t-66.5 -159.5t-172.5 -61.5t-173 61.5t-67 159.5zM500 1460q0 -41 24.5 -66.5t65.5 -25.5q40 0 64 25.5t24 66.5 t-24 66.5t-64 25.5q-41 0 -65.5 -25.5t-24.5 -66.5z" />
<glyph unicode="&#xe6;" horiz-adv-x="1988" d="M92 315q0 196 180 287.5t564 93.5v27q0 123 -63.5 180.5t-190.5 57.5h-4q-84 0 -171.5 -39.5t-144.5 -94.5l-129 138q79 86 204.5 138t260.5 52h2q274 0 383 -170q72 81 172.5 125.5t220.5 44.5h13q161 0 279 -76t178.5 -209t60.5 -307v-71h-850q17 -153 111.5 -241.5 t236.5 -88.5h12q97 0 182.5 40.5t139.5 106.5l123 -133q-74 -95 -193.5 -150t-263.5 -55q-159 0 -285 67.5t-200 188.5q-72 -122 -187.5 -189t-257.5 -67h-4q-167 0 -273 96t-106 248zM307 326q0 -75 53 -119.5t144 -44.5h2q145 0 237.5 105t92.5 270q-274 -3 -401.5 -53.5 t-127.5 -157.5zM1059 664h627q-15 143 -92 223t-205 80h-11q-126 0 -212.5 -81t-106.5 -222z" />
<glyph unicode="&#xe7;" horiz-adv-x="1169" d="M92 555v16q0 259 151.5 421.5t395.5 162.5h12q126 0 244 -55.5t192 -149.5l-129 -141q-54 66 -138 107.5t-167 41.5h-12q-152 0 -242 -106t-90 -285v-8q0 -179 90 -285t242 -106h12q83 0 167 41.5t138 107.5l127 -139q-66 -83 -163 -136t-207 -67l-41 -55q79 2 127.5 -42 t48.5 -124q0 -129 -126.5 -200t-315.5 -48v136q108 -9 170.5 15.5t62.5 76.5q0 46 -63 53t-170 -27l129 220q-204 34 -324.5 188.5t-120.5 386.5z" />
<glyph unicode="&#xe8;" horiz-adv-x="1245" d="M92 555v16q0 258 151.5 421t389.5 163h12q236 0 377 -161t141 -431v-71h-850q15 -154 107.5 -242t241.5 -88h12q94 0 179 39t142 108l123 -133q-76 -98 -196.5 -151.5t-262.5 -53.5q-255 0 -411 160.5t-156 423.5zM225 1657h248l264 -393h-219zM315 664h627 q-15 145 -92.5 224t-204.5 79h-10q-129 0 -214.5 -81.5t-105.5 -221.5z" />
<glyph unicode="&#xe9;" horiz-adv-x="1245" d="M92 555v16q0 258 151.5 421t389.5 163h12q236 0 377 -161t141 -431v-71h-850q15 -154 107.5 -242t241.5 -88h12q94 0 179 39t142 108l123 -133q-76 -98 -196.5 -151.5t-262.5 -53.5q-255 0 -411 160.5t-156 423.5zM315 664h627q-15 145 -92.5 224t-204.5 79h-10 q-129 0 -214.5 -81.5t-105.5 -221.5zM539 1264l264 393h248l-293 -393h-219z" />
<glyph unicode="&#xea;" horiz-adv-x="1245" d="M92 555v16q0 258 151.5 421t389.5 163h12q236 0 377 -161t141 -431v-71h-850q15 -154 107.5 -242t241.5 -88h12q94 0 179 39t142 108l123 -133q-76 -98 -196.5 -151.5t-262.5 -53.5q-255 0 -411 160.5t-156 423.5zM238 1264l264 393h274l264 -393h-219l-182 241 l-182 -241h-219zM315 664h627q-15 145 -92.5 224t-204.5 79h-10q-129 0 -214.5 -81.5t-105.5 -221.5z" />
<glyph unicode="&#xeb;" horiz-adv-x="1245" d="M92 555v16q0 258 151.5 421t389.5 163h12q236 0 377 -161t141 -431v-71h-850q15 -154 107.5 -242t241.5 -88h12q94 0 179 39t142 108l123 -133q-76 -98 -196.5 -151.5t-262.5 -53.5q-255 0 -411 160.5t-156 423.5zM285 1460q0 61 37.5 96t101.5 35q62 0 99.5 -35 t37.5 -96t-37.5 -97t-99.5 -36q-63 0 -101 36t-38 97zM315 664h627q-15 145 -92.5 224t-204.5 79h-10q-129 0 -214.5 -81.5t-105.5 -221.5zM717 1460q0 61 37.5 96t101.5 35q62 0 99.5 -35t37.5 -96t-37.5 -97t-99.5 -36q-63 0 -101 36t-38 97z" />
<glyph unicode="&#xec;" horiz-adv-x="524" d="M-147 1657h247l265 -393h-220zM160 0v1126h217v-1126h-217z" />
<glyph unicode="&#xed;" horiz-adv-x="524" d="M160 0v1126h217v-1126h-217zM168 1264l264 393h248l-293 -393h-219z" />
<glyph unicode="&#xee;" horiz-adv-x="524" d="M-133 1264l264 393h275l264 -393h-219l-183 241l-182 -241h-219zM160 0v1126h217v-1126h-217z" />
<glyph unicode="&#xef;" horiz-adv-x="524" d="M-88 1460q0 61 37.5 96t101.5 35q62 0 99.5 -35t37.5 -96t-37.5 -97t-99.5 -36q-63 0 -101 36t-38 97zM160 0v1126h217v-1126h-217zM344 1460q0 61 37.5 96t101.5 35q62 0 100 -35t38 -96t-38 -97t-100 -36q-63 0 -101 36t-38 97z" />
<glyph unicode="&#xf0;" horiz-adv-x="1239" d="M92 471q0 210 128 342.5t329 132.5q94 0 187 -38.5t165 -104.5q-61 209 -270 371l-142 -152l-135 108l129 140q-90 50 -196 96l127 137q121 -49 200 -94l117 125l135 -109l-106 -112q187 -143 287 -333t100 -407q0 -272 -148.5 -437t-392.5 -165q-142 0 -260.5 66 t-186 181t-67.5 253zM309 465q0 -124 87 -209.5t212 -85.5h4q146 0 232 101.5t86 273.5v24q-68 91 -160.5 140t-198.5 49q-120 0 -191 -76.5t-71 -208.5v-8z" />
<glyph unicode="&#xf1;" horiz-adv-x="1249" d="M150 0v1126h217v-151q52 83 143 131.5t199 48.5h6q189 0 292 -110.5t103 -313.5v-731h-217v711q0 245 -223 245h-2q-140 0 -220.5 -103.5t-80.5 -281.5v-571h-217zM262 1274q-50 375 203 375q114 0 205 -113q59 -75 77 -88q16 -12 33 -12q41 0 50 46t4 148h151 q49 -373 -203 -373q-61 0 -108.5 26t-91.5 83q-62 75 -77 88q-19 14 -38 14q-41 0 -49.5 -45t-3.5 -149h-152z" />
<glyph unicode="&#xf2;" horiz-adv-x="1284" d="M92 555v16q0 255 151 419.5t394 164.5h12q243 0 393 -164.5t150 -419.5v-16q0 -167 -67 -299.5t-191.5 -208.5t-284.5 -76h-12q-243 0 -394 164.5t-151 419.5zM227 1657h248l264 -393h-219zM309 559q0 -178 91 -283.5t237 -105.5h10q148 0 238 105.5t90 283.5v8 q0 178 -90 283.5t-238 105.5h-10q-146 0 -237 -105.5t-91 -283.5v-8z" />
<glyph unicode="&#xf3;" horiz-adv-x="1284" d="M92 555v16q0 255 151 419.5t394 164.5h12q243 0 393 -164.5t150 -419.5v-16q0 -167 -67 -299.5t-191.5 -208.5t-284.5 -76h-12q-243 0 -394 164.5t-151 419.5zM309 559q0 -178 91 -283.5t237 -105.5h10q148 0 238 105.5t90 283.5v8q0 178 -90 283.5t-238 105.5h-10 q-146 0 -237 -105.5t-91 -283.5v-8zM543 1264l264 393h248l-293 -393h-219z" />
<glyph unicode="&#xf4;" horiz-adv-x="1284" d="M92 555v16q0 255 151 419.5t394 164.5h12q243 0 393 -164.5t150 -419.5v-16q0 -167 -67 -299.5t-191.5 -208.5t-284.5 -76h-12q-243 0 -394 164.5t-151 419.5zM242 1264l264 393h274l264 -393h-219l-182 241l-182 -241h-219zM309 559q0 -178 91 -283.5t237 -105.5h10 q148 0 238 105.5t90 283.5v8q0 178 -90 283.5t-238 105.5h-10q-146 0 -237 -105.5t-91 -283.5v-8z" />
<glyph unicode="&#xf5;" horiz-adv-x="1284" d="M92 555v16q0 255 151 419.5t394 164.5h12q243 0 393 -164.5t150 -419.5v-16q0 -167 -67 -299.5t-191.5 -208.5t-284.5 -76h-12q-243 0 -394 164.5t-151 419.5zM281 1274q-49 375 202 375q114 0 205 -113q34 -43 47.5 -59t30.5 -28.5t33 -12.5q40 0 49 45.5t4 148.5h152 q49 -373 -203 -373q-61 0 -109 26t-92 83q-62 75 -77 88q-19 14 -38 14q-41 0 -49.5 -45t-3.5 -149h-151zM309 559q0 -178 91 -283.5t237 -105.5h10q148 0 238 105.5t90 283.5v8q0 178 -90 283.5t-238 105.5h-10q-146 0 -237 -105.5t-91 -283.5v-8z" />
<glyph unicode="&#xf6;" horiz-adv-x="1284" d="M92 555v16q0 255 151 419.5t394 164.5h12q243 0 393 -164.5t150 -419.5v-16q0 -167 -67 -299.5t-191.5 -208.5t-284.5 -76h-12q-243 0 -394 164.5t-151 419.5zM287 1460q0 61 37.5 96t101.5 35q62 0 99.5 -35t37.5 -96t-37.5 -97t-99.5 -36q-63 0 -101 36t-38 97z M309 559q0 -178 91 -283.5t237 -105.5h10q148 0 238 105.5t90 283.5v8q0 178 -90 283.5t-238 105.5h-10q-146 0 -237 -105.5t-91 -283.5v-8zM719 1460q0 61 37.5 96t101.5 35q62 0 99.5 -35t37.5 -96t-37.5 -97t-99.5 -36q-63 0 -101 36t-38 97z" />
<glyph unicode="&#xf7;" horiz-adv-x="1081" d="M78 565v201h928v-201h-928zM412 287q0 55 35.5 88t93.5 33t93.5 -33t35.5 -88q0 -56 -35.5 -89.5t-93.5 -33.5t-93.5 33.5t-35.5 89.5zM412 1047q0 55 35.5 87.5t93.5 32.5t93.5 -32.5t35.5 -87.5q0 -56 -35.5 -89.5t-93.5 -33.5t-93.5 33.5t-35.5 89.5z" />
<glyph unicode="&#xf8;" horiz-adv-x="1284" d="M92 555v16q0 255 151 419.5t394 164.5h12q26 0 66 -4l57 201h191l-72 -250q141 -68 221 -208t80 -323v-16q0 -167 -67 -299.5t-191.5 -208.5t-284.5 -76h-12q-26 0 -66 4l-57 -200h-190l71 250q-142 68 -222.5 208t-80.5 322zM309 559q0 -112 38.5 -198t105.5 -134 l206 729h-12h-10q-146 0 -237 -105.5t-91 -283.5v-8zM627 170h10h10q148 0 238 105.5t90 283.5v8q0 226 -141 332z" />
<glyph unicode="&#xf9;" horiz-adv-x="1212" d="M139 387v739h217v-723q0 -109 54.5 -171t152.5 -62h4q134 0 212.5 104t78.5 281v571h217v-1126h-217v164q-50 -88 -141.5 -140.5t-198.5 -52.5h-4q-176 0 -275.5 111t-99.5 305zM199 1657h247l265 -393h-219z" />
<glyph unicode="&#xfa;" horiz-adv-x="1212" d="M139 387v739h217v-723q0 -109 54.5 -171t152.5 -62h4q134 0 212.5 104t78.5 281v571h217v-1126h-217v164q-50 -88 -141.5 -140.5t-198.5 -52.5h-4q-176 0 -275.5 111t-99.5 305zM512 1264l264 393h248l-293 -393h-219z" />
<glyph unicode="&#xfb;" horiz-adv-x="1212" d="M139 387v739h217v-723q0 -109 54.5 -171t152.5 -62h4q134 0 212.5 104t78.5 281v571h217v-1126h-217v164q-50 -88 -141.5 -140.5t-198.5 -52.5h-4q-176 0 -275.5 111t-99.5 305zM211 1264l264 393h275l264 -393h-219l-183 241l-182 -241h-219z" />
<glyph unicode="&#xfc;" horiz-adv-x="1212" d="M139 387v739h217v-723q0 -109 54.5 -171t152.5 -62h4q134 0 212.5 104t78.5 281v571h217v-1126h-217v164q-50 -88 -141.5 -140.5t-198.5 -52.5h-4q-176 0 -275.5 111t-99.5 305zM258 1460q0 61 37.5 96t101.5 35q62 0 100 -35t38 -96t-38 -97t-100 -36q-63 0 -101 36 t-38 97zM690 1460q0 61 37.5 96t101.5 35q62 0 100 -35t38 -96t-38 -97t-100 -36q-63 0 -101 36t-38 97z" />
<glyph unicode="&#xfd;" horiz-adv-x="1173" d="M39 1126h235l314 -893l313 893h236l-471 -1263q-74 -197 -159 -280t-214 -83q-60 0 -123.5 26.5t-110.5 72.5l129 139q60 -47 111 -47q53 0 92.5 55t91.5 201l21 53h-45zM485 1264l265 393h247l-292 -393h-220z" />
<glyph unicode="&#xfe;" horiz-adv-x="1343" d="M160 -471v1946h217v-506q54 88 153 137t211 49h11q222 0 359.5 -164t137.5 -420v-16q0 -168 -61 -300.5t-173.5 -208t-258.5 -75.5h-13q-112 0 -211 47.5t-155 133.5v-623h-217zM377 559q0 -176 90 -282.5t233 -106.5h11q143 0 232 106t89 283v8q0 177 -89 283t-232 106 h-11q-143 0 -233 -106.5t-90 -282.5v-8z" />
<glyph unicode="&#xff;" horiz-adv-x="1173" d="M39 1126h235l314 -893l313 893h236l-471 -1263q-74 -197 -159 -280t-214 -83q-60 0 -123.5 26.5t-110.5 72.5l129 139q60 -47 111 -47q53 0 92.5 55t91.5 201l21 53h-45zM229 1460q0 61 38 96t102 35q62 0 99.5 -35t37.5 -96t-37.5 -97t-99.5 -36q-63 0 -101.5 36 t-38.5 97zM662 1460q0 61 37.5 96t101.5 35q62 0 99.5 -35t37.5 -96t-37.5 -97t-99.5 -36q-63 0 -101 36t-38 97z" />
<glyph unicode="&#x152;" horiz-adv-x="2234" d="M113 707v20q0 212 79.5 378t232.5 261.5t357 95.5h13q233 0 413 -129v101h940v-203h-716v-389h657v-203h-657v-436h716v-203h-940v98q-166 -127 -407 -127q-210 0 -367 95t-239 261t-82 380zM338 705q0 -231 126 -381t329 -150h6q125 0 223 44.5t186 133.5v729 q-176 179 -420 179h-6q-203 0 -323.5 -149t-120.5 -382v-24z" />
<glyph unicode="&#x153;" horiz-adv-x="2131" d="M92 555v16q0 168 67.5 300.5t192.5 208t285 75.5h12q140 0 252.5 -57t185.5 -160q72 102 184 159.5t249 57.5h12q240 0 379 -164t139 -428v-71h-850q17 -153 111 -241.5t237 -88.5h11q97 0 182 40t139 107l125 -133q-76 -95 -195 -150t-264 -55q-146 0 -264.5 56.5 t-194.5 160.5q-72 -103 -185 -160t-253 -57h-12q-160 0 -285 75.5t-192.5 208t-67.5 300.5zM309 559q0 -179 90.5 -284t239.5 -105h10q148 0 239 105.5t91 283.5v8q0 178 -91 283.5t-239 105.5h-10q-149 0 -239.5 -105t-90.5 -284v-8zM1202 664h627q-18 143 -94 223t-203 80 h-10q-126 0 -213 -81t-107 -222z" />
<glyph unicode="&#x178;" horiz-adv-x="1353" d="M57 1434h246l373 -717l375 717h245l-508 -945v-489h-223v489zM322 1767q0 61 37.5 96t101.5 35q62 0 99.5 -35t37.5 -96t-37.5 -97t-99.5 -36q-63 0 -101 36t-38 97zM754 1767q0 61 37.5 96t101.5 35q62 0 99.5 -35t37.5 -96t-37.5 -97t-99.5 -36q-63 0 -101 36t-38 97z " />
<glyph unicode="&#x2c6;" horiz-adv-x="956" d="M78 1571l264 393h274l265 -393h-219l-183 241l-182 -241h-219z" />
<glyph unicode="&#x2dc;" horiz-adv-x="894" d="M86 1581q-50 375 203 375q114 0 205 -113q59 -75 77 -88q16 -12 33 -12q40 0 49 45.5t4 148.5h152q49 -372 -203 -372q-61 0 -108.5 25.5t-91.5 82.5q-6 8 -18 22q-39 48 -57 64.5t-40 16.5q-41 0 -49.5 -45.5t-3.5 -149.5h-152z" />
<glyph unicode="&#x2000;" horiz-adv-x="994" />
<glyph unicode="&#x2001;" horiz-adv-x="1989" />
<glyph unicode="&#x2002;" horiz-adv-x="994" />
<glyph unicode="&#x2003;" horiz-adv-x="1989" />
<glyph unicode="&#x2004;" horiz-adv-x="663" />
<glyph unicode="&#x2005;" horiz-adv-x="497" />
<glyph unicode="&#x2006;" horiz-adv-x="331" />
<glyph unicode="&#x2007;" horiz-adv-x="331" />
<glyph unicode="&#x2008;" horiz-adv-x="248" />
<glyph unicode="&#x2009;" horiz-adv-x="397" />
<glyph unicode="&#x200a;" horiz-adv-x="110" />
<glyph unicode="&#x2010;" horiz-adv-x="1060" d="M170 565v201h721v-201h-721z" />
<glyph unicode="&#x2011;" horiz-adv-x="1060" d="M170 565v201h721v-201h-721z" />
<glyph unicode="&#x2012;" horiz-adv-x="1060" d="M170 565v201h721v-201h-721z" />
<glyph unicode="&#x2013;" horiz-adv-x="1300" d="M170 565v201h960v-201h-960z" />
<glyph unicode="&#x2014;" horiz-adv-x="1812" d="M170 565v201h1475v-201h-1475z" />
<glyph unicode="&#x2018;" horiz-adv-x="659" d="M170 1001q0 75 60.5 204t156.5 257l102 -78q-113 -201 -143 -288q51 -6 81 -38.5t30 -84.5q0 -60 -38.5 -95.5t-103.5 -35.5q-63 0 -104 45t-41 114z" />
<glyph unicode="&#x2019;" horiz-adv-x="659" d="M170 920q106 189 143 288q-51 6 -80.5 38.5t-29.5 84.5q0 59 38 95t101 36q64 0 105.5 -45t41.5 -114q0 -75 -60.5 -203t-156.5 -258z" />
<glyph unicode="&#x201a;" horiz-adv-x="659" d="M170 -307q105 187 143 289q-51 6 -80.5 38t-29.5 84q0 60 38 96t101 36q64 0 105.5 -45.5t41.5 -114.5q0 -75 -60.5 -203t-156.5 -258z" />
<glyph unicode="&#x201c;" horiz-adv-x="1050" d="M170 1001q0 75 60.5 204t156.5 257l102 -78q-113 -201 -143 -288q51 -6 81 -38.5t30 -84.5q0 -60 -38.5 -95.5t-103.5 -35.5q-63 0 -104 45t-41 114zM561 1001q0 75 60.5 204t156.5 257l103 -78q-115 -205 -144 -288q51 -6 81 -38.5t30 -84.5q0 -60 -38 -95.5t-101 -35.5 q-64 0 -106 45t-42 114z" />
<glyph unicode="&#x201d;" horiz-adv-x="1050" d="M170 920q106 189 143 288q-51 6 -80.5 38.5t-29.5 84.5q0 59 38 95t101 36q64 0 105.5 -45t41.5 -114q0 -75 -60.5 -203t-156.5 -258zM561 920q115 205 144 288q-51 6 -81 38.5t-30 84.5q0 59 38 95t101 36q64 0 106 -45t42 -114q0 -75 -60.5 -204t-156.5 -257z" />
<glyph unicode="&#x201e;" horiz-adv-x="659" d="M170 -307q105 187 143 289q-51 6 -80.5 38t-29.5 84q0 60 38 96t101 36q64 0 105.5 -45.5t41.5 -114.5q0 -75 -60.5 -203t-156.5 -258z" />
<glyph unicode="&#x2022;" horiz-adv-x="808" d="M170 682q0 103 65 167t168 64q104 0 170 -64t66 -167q0 -104 -65.5 -168.5t-170.5 -64.5q-103 0 -168 64.5t-65 168.5z" />
<glyph unicode="&#x2026;" horiz-adv-x="1638" d="M170 104q0 61 38 96.5t101 35.5q62 0 99.5 -35.5t37.5 -96.5t-37.5 -97t-99.5 -36q-63 0 -101 36t-38 97zM680 104q0 61 38.5 96.5t100.5 35.5t100.5 -35.5t38.5 -96.5t-38.5 -97t-100.5 -36t-100.5 36t-38.5 97zM1190 104q0 61 38.5 96.5t102.5 35.5q61 0 99 -35.5 t38 -96.5t-38 -97t-99 -36q-64 0 -102.5 36t-38.5 97z" />
<glyph unicode="&#x202f;" horiz-adv-x="397" />
<glyph unicode="&#x2039;" horiz-adv-x="929" d="M170 612l340 400h250l-342 -400l342 -399h-250z" />
<glyph unicode="&#x203a;" horiz-adv-x="929" d="M170 213l342 399l-342 400h250l340 -400l-340 -399h-250z" />
<glyph unicode="&#x205f;" horiz-adv-x="497" />
<glyph unicode="&#x20ac;" horiz-adv-x="1648" d="M57 510l56 164h209v33v20l2 51h-267l56 164h233q56 241 228 380.5t421 139.5h13q163 0 308 -68.5t245 -191.5l-140 -147q-94 108 -193.5 156.5t-226.5 48.5h-6q-150 0 -259.5 -84.5t-157.5 -233.5h622l-55 -164h-596l-2 -49v-24v-31h561l-55 -164h-480 q46 -155 161.5 -245.5t271.5 -90.5h6q124 0 221 49t194 160l136 -145q-215 -267 -549 -267q-261 0 -440 145t-232 394h-285z" />
<glyph unicode="&#x2122;" horiz-adv-x="1398" d="M113 1284v150h489v-150h-164v-403h-162v403h-163zM659 881v553h172l142 -222l141 222h172v-553h-162v293l-123 -189h-55l-125 189v-293h-162z" />
<glyph unicode="&#x25fc;" horiz-adv-x="1126" d="M0 0v1126h1126v-1126h-1126z" />
<glyph unicode="&#xfb02;" horiz-adv-x="1323" d="M72 938v188h168v62q0 168 84.5 241.5t248.5 73.5q55 0 162 -10v-174q-32 1 -63 2t-47.5 1.5t-28.5 0.5q-76 0 -106.5 -25.5t-30.5 -93.5v-78h276v-188h-276v-938h-219v938h-168zM969 0v1475h217v-1475h-217z" />
<glyph unicode="&#xfb03;" horiz-adv-x="2103" d="M72 938v188h168v62q0 168 84.5 241.5t248.5 73.5q55 0 162 -10v-174q-32 1 -63 2t-47.5 1.5t-28.5 0.5q-76 0 -106.5 -25.5t-30.5 -93.5v-78h485v62q0 168 85 241.5t249 73.5q55 0 162 -10v-174q-31 1 -62.5 2t-48.5 1.5t-29 0.5q-77 0 -108 -25.5t-31 -93.5v-78h279 v-188h-279v-938h-217v938h-485v-938h-219v938h-168zM1679 1395q0 54 38 87.5t102 33.5q61 0 98 -33.5t37 -87.5q0 -57 -36.5 -91t-98.5 -34q-64 0 -102 34t-38 91zM1710 0v1126h217v-1126h-217z" />
<glyph unicode="&#xfb04;" horiz-adv-x="2035" d="M72 938v188h168v62q0 168 84.5 241.5t248.5 73.5q55 0 162 -10v-174q-32 1 -63 2t-47.5 1.5t-28.5 0.5q-76 0 -106.5 -25.5t-30.5 -93.5v-78h485v62q0 168 85 241.5t249 73.5q55 0 162 -10v-174q-31 1 -62.5 2t-48.5 1.5t-29 0.5q-77 0 -108 -25.5t-31 -93.5v-78h279 v-188h-279v-938h-217v938h-485v-938h-219v938h-168zM1679 0v1475h217v-1475h-217z" />
</font>
</defs>
</svg>
