<?xml version="1.0" standalone="no"?>
<!DOCTYPE svg PUBLIC "-//W3C//DTD SVG 1.1//EN" "http://www.w3.org/Graphics/SVG/1.1/DTD/svg11.dtd" >
<svg xmlns="http://www.w3.org/2000/svg">
<metadata></metadata>
<defs>
<font id="rutanlight" horiz-adv-x="536" >
<font-face units-per-em="2048" ascent="1638" descent="-410" />
<missing-glyph horiz-adv-x="583" />
<glyph unicode="&#xfb01;" horiz-adv-x="1259" d="M92 1034v92h162v86q0 152 69.5 219.5t211.5 67.5q74 0 147 -8v-92q-80 4 -143 4q-99 0 -140 -40.5t-41 -143.5v-93h324v-92h-324v-1034h-104v1034h-162zM913 1401q0 34 22 54t60 20q37 0 58.5 -20t21.5 -54t-22 -55t-58 -21q-38 0 -60 21t-22 55zM942 0v1126h107v-1126 h-107z" />
<glyph horiz-adv-x="0" />
<glyph horiz-adv-x="682" />
<glyph unicode=" "  horiz-adv-x="583" />
<glyph unicode="&#x09;" horiz-adv-x="583" />
<glyph unicode="&#xa0;" horiz-adv-x="583" />
<glyph unicode="!" horiz-adv-x="557" d="M195 57q0 36 23.5 57t62.5 21q36 0 58.5 -21t22.5 -57q0 -39 -22.5 -60.5t-58.5 -21.5q-39 0 -62.5 21.5t-23.5 60.5zM225 1112v322h109v-322l-19 -741h-71z" />
<glyph unicode="&#x22;" horiz-adv-x="813" d="M195 1374q0 84 75 84q34 0 53 -21.5t19 -62.5q0 -23 -5.5 -78t-16 -152t-17.5 -186h-70q-7 88 -17 186t-15.5 152t-5.5 78zM471 1374q0 84 74 84q73 0 73 -84q0 -24 -5.5 -78t-15.5 -152t-17 -186h-70q-7 89 -17.5 186t-16 152t-5.5 78z" />
<glyph unicode="#" horiz-adv-x="1548" d="M195 424l22 96h256l78 322h-256l22 96h256l101 424h102l-100 -424h319l101 424h102l-100 -424h256l-25 -96h-254l-78 -322h258l-24 -96h-256l-101 -424h-102l100 424h-319l-100 -424h-103l101 424h-256zM575 520h320l76 322h-320z" />
<glyph unicode="$" horiz-adv-x="1331" d="M109 244l67 73q92 -117 230.5 -181t298.5 -64q183 0 298 85t115 220q0 85 -39 137t-133 89.5t-276 74.5q-291 61 -403.5 142.5t-112.5 238.5q0 161 125 270.5t327 126.5v232h107v-232q142 -6 266 -58.5t211 -142.5l-68 -75q-83 87 -202 134.5t-254 47.5 q-181 0 -294.5 -84.5t-113.5 -218.5q0 -61 19.5 -101t73 -73t135 -57t219.5 -52q293 -60 406.5 -146.5t113.5 -250.5q0 -168 -133 -279.5t-344 -122.5v-231h-107v231q-164 12 -304.5 82t-227.5 185z" />
<glyph unicode="%" horiz-adv-x="2363" d="M154 948v6q0 230 116 367t308 137h8q194 0 309 -137t115 -367v-6q0 -230 -115 -367t-309 -137h-8q-192 0 -308 137t-116 367zM260 946q0 -187 86 -296t234 -109h4q149 0 235 108t86 297v10q0 189 -86 297.5t-235 108.5h-4q-148 0 -234 -108.5t-86 -297.5v-10zM739 0 l770 1434h115l-770 -1434h-115zM1354 479v6q0 230 115 367t309 137h8q192 0 308 -137t116 -367v-6q0 -230 -116 -367t-308 -137h-8q-194 0 -309 137t-115 367zM1458 477q0 -188 86.5 -296.5t235.5 -108.5h4q149 0 234 108t85 297v10q0 189 -85.5 297.5t-233.5 108.5h-4 q-149 0 -235.5 -108.5t-86.5 -297.5v-10z" />
<glyph unicode="&#x26;" horiz-adv-x="1454" d="M109 328q0 141 85 233t322 205l-27 29q-192 204 -192 358q0 133 113 219t288 86q188 0 304 -89t116 -234q0 -113 -95.5 -202.5t-334.5 -197.5l383 -405q94 72 225 186l68 -76q-129 -113 -223 -184l241 -256h-139l-186 197q-311 -222 -527 -222q-180 0 -300.5 101 t-120.5 252zM213 328q0 -112 89.5 -184t227.5 -72q187 0 459 196l-399 422q-119 -55 -189.5 -95.5t-114 -83t-58.5 -83.5t-15 -100zM403 1149q0 -63 47 -138t166 -200l2 2q225 102 309.5 170.5t84.5 151.5q0 103 -87.5 165t-230.5 62q-130 0 -210.5 -59t-80.5 -154z" />
<glyph unicode="'" d="M195 1374q0 84 75 84q34 0 53 -21.5t19 -62.5q0 -23 -5.5 -78t-16 -152t-17.5 -186h-70q-7 88 -17 186t-15.5 152t-5.5 78z" />
<glyph unicode="(" horiz-adv-x="829" d="M154 709v16q0 277 118 524.5t320 395.5l74 -68q-186 -132 -296 -362t-110 -486v-24q0 -257 110 -487.5t296 -360.5l-74 -68q-201 147 -319.5 394.5t-118.5 525.5z" />
<glyph unicode=")" horiz-adv-x="890" d="M195 -143q186 130 295.5 360.5t109.5 487.5v24q0 257 -109.5 486.5t-295.5 361.5l73 68q202 -148 320.5 -395.5t118.5 -524.5v-16q0 -277 -118.5 -525t-320.5 -395z" />
<glyph unicode="*" horiz-adv-x="1155" d="M195 1169l34 99l297 -109l-2 316h107l-2 -316l297 109l35 -99l-297 -108l208 -260l-84 -66l-210 269l-213 -269l-82 66l211 262z" />
<glyph unicode="+" horiz-adv-x="1112" d="M92 618v95h412v409h104v-409h412v-97h-412v-411h-104v413h-412z" />
<glyph unicode="," horiz-adv-x="579" d="M154 -287q102 154 127 267q-70 7 -70 77q0 35 23 56.5t63 21.5t64 -28t24 -72q0 -67 -46.5 -173t-117.5 -198z" />
<glyph unicode="-" horiz-adv-x="1044" d="M195 618v97h655v-97h-655z" />
<glyph unicode="." horiz-adv-x="557" d="M195 57q0 36 23.5 57t62.5 21q36 0 58.5 -21t22.5 -57q0 -39 -22.5 -60.5t-58.5 -21.5q-39 0 -62.5 21.5t-23.5 60.5z" />
<glyph unicode="/" horiz-adv-x="686" d="M72 -31l438 1538h104l-438 -1538h-104z" />
<glyph unicode="0" horiz-adv-x="1470" d="M154 713v10q0 341 153.5 538t421.5 197h12q268 0 422 -197.5t154 -537.5v-10q0 -341 -154 -539.5t-422 -198.5h-12q-268 0 -421.5 198.5t-153.5 539.5zM260 711q0 -296 125.5 -467.5t347.5 -171.5h6q222 0 347.5 171.5t125.5 467.5v14q0 296 -125.5 466.5t-347.5 170.5 h-6q-222 0 -347.5 -170.5t-125.5 -466.5v-14z" />
<glyph unicode="1" horiz-adv-x="843" d="M31 1018l512 416h86v-1434h-105v1290l-418 -342z" />
<glyph unicode="2" horiz-adv-x="1320" d="M133 0v80q220 185 349 295.5t240.5 213t163 157t88.5 112t45.5 94.5t8.5 88q0 144 -102 233t-264 89q-135 0 -248 -66t-189 -190l-67 76q89 133 220 204.5t286 71.5q206 0 337.5 -117t131.5 -301q0 -58 -11.5 -106t-47.5 -109t-90 -123t-151 -154t-217.5 -196 t-302.5 -256h875v-96h-1055z" />
<glyph unicode="3" horiz-adv-x="1292" d="M109 250l69 74q94 -122 222.5 -187t275.5 -65q175 0 289 90t114 231q0 152 -98 225.5t-299 73.5h-240v96h217q172 0 271.5 76.5t99.5 204.5q0 132 -103 212.5t-270 80.5q-138 0 -249.5 -63.5t-186.5 -184.5l-67 74q86 131 215.5 200.5t287.5 69.5q215 0 346.5 -108.5 t131.5 -286.5q0 -103 -64 -185.5t-174 -123.5q140 -35 213.5 -126.5t73.5 -232.5q0 -184 -143 -302t-365 -118q-167 0 -315.5 72t-251.5 203z" />
<glyph unicode="4" horiz-adv-x="1275" d="M61 381v80l744 973h131v-957h278v-96h-278v-381h-107v381h-768zM199 477h630v828z" />
<glyph unicode="5" horiz-adv-x="1298" d="M102 252l70 74q95 -122 223.5 -188t270.5 -66q185 0 300 106t115 277q0 166 -109 269t-286 103q-222 0 -414 -163l-61 28l76 742h819v-97h-733l-54 -540q155 127 379 127q212 0 350 -133.5t138 -337.5q0 -212 -144.5 -345t-373.5 -133q-164 0 -312 72.5t-254 204.5z" />
<glyph unicode="6" horiz-adv-x="1300" d="M154 690q0 367 145.5 567.5t411.5 200.5q133 0 243.5 -48t186.5 -140l-72 -76q-133 168 -356 168q-215 0 -329.5 -164.5t-123.5 -486.5q79 104 199.5 163.5t255.5 59.5q204 0 333.5 -131t129.5 -338q0 -209 -138 -349.5t-344 -140.5q-258 0 -400 187t-142 528zM262 580 q15 -238 128.5 -373t301.5 -135h6q158 0 265.5 111t107.5 274v6q0 171 -97 273t-259 102q-279 0 -453 -258z" />
<glyph unicode="7" horiz-adv-x="1177" d="M61 1337v97h1055v-78q-212 -222 -336 -378.5t-202 -315t-105 -307.5t-27 -355h-106q0 267 54.5 465.5t187 400.5t385.5 471h-906z" />
<glyph unicode="8" horiz-adv-x="1286" d="M109 389q0 135 78.5 232.5t215.5 134.5q-116 38 -180.5 121.5t-64.5 197.5q0 175 130.5 279t348.5 104h12q219 0 349 -104t130 -279q0 -114 -64.5 -197.5t-180.5 -121.5q137 -37 216 -134t79 -233q0 -189 -144 -301.5t-387 -112.5h-8q-243 0 -386.5 112.5t-143.5 301.5z M213 389q0 -148 113.5 -232.5t310.5 -84.5h12q197 0 310.5 84.5t113.5 232.5q0 150 -108.5 228.5t-317.5 78.5h-8q-209 0 -317.5 -78.5t-108.5 -228.5zM262 1075q0 -127 104 -204.5t275 -77.5h4q171 0 275 77.5t104 204.5q0 130 -103.5 208.5t-275.5 78.5h-4 q-172 0 -275.5 -78.5t-103.5 -208.5z" />
<glyph unicode="9" horiz-adv-x="1300" d="M123 969q0 209 137.5 349t343.5 140q258 0 400.5 -186t142.5 -527q0 -367 -146 -568.5t-411 -201.5q-132 0 -243 48.5t-187 140.5l71 78q132 -170 357 -170q215 0 329 164.5t123 488.5q-79 -104 -199 -163.5t-255 -59.5q-204 0 -333.5 130t-129.5 337zM229 973 q0 -172 97 -273.5t260 -101.5q280 0 452 256q-14 237 -128 372.5t-302 135.5h-6q-158 0 -265.5 -110.5t-107.5 -274.5v-4z" />
<glyph unicode=":" horiz-adv-x="557" d="M195 57q0 36 23.5 57t62.5 21q36 0 58.5 -21t22.5 -57q0 -39 -22.5 -60.5t-58.5 -21.5q-39 0 -62.5 21.5t-23.5 60.5zM195 1073q0 36 23.5 57t62.5 21q36 0 58.5 -21t22.5 -57q0 -39 -22.5 -60.5t-58.5 -21.5q-39 0 -62.5 21.5t-23.5 60.5z" />
<glyph unicode=";" horiz-adv-x="579" d="M154 -287q102 154 127 267q-70 7 -70 77q0 35 23 56.5t63 21.5t64 -28t24 -72q0 -67 -46.5 -173t-117.5 -198zM211 1073q0 36 23.5 57t62.5 21q36 0 59 -21t23 -57q0 -39 -23 -60.5t-59 -21.5q-39 0 -62.5 21.5t-23.5 60.5z" />
<glyph unicode="&#x3c;" horiz-adv-x="1112" d="M92 612v99l928 327v-106l-778 -270l778 -271v-106z" />
<glyph unicode="=" horiz-adv-x="1112" d="M92 406v96h928v-96h-928zM92 819v96h928v-96h-928z" />
<glyph unicode="&#x3e;" horiz-adv-x="1112" d="M92 285v106l778 271l-778 270v106l928 -327v-99z" />
<glyph unicode="?" horiz-adv-x="1226" d="M133 1247q205 211 477 211q207 0 335 -114.5t128 -301.5q0 -171 -132.5 -286.5t-340.5 -130.5l-14 -254h-72l-18 336q221 6 347 95t126 240q0 145 -99 232.5t-262 87.5q-226 0 -405 -188zM467 57q0 36 23.5 57t60.5 21t60.5 -21t23.5 -57q0 -39 -23 -60.5t-61 -21.5 t-61 21.5t-23 60.5z" />
<glyph unicode="@" horiz-adv-x="2277" d="M154 555q0 218 73.5 403t203.5 315.5t316 203.5t404 73q292 0 513 -116t340.5 -329.5t119.5 -496.5q0 -278 -103 -455.5t-264 -177.5q-100 0 -159.5 68t-59.5 182v17q-57 -125 -171.5 -196t-258.5 -71h-12q-151 0 -267.5 75.5t-179.5 208t-63 298.5v12q0 166 63 298.5 t179.5 208t267.5 75.5h12q145 0 259 -70t171 -194v239h104v-895q0 -77 30 -118t87 -41q112 0 185 151.5t73 382.5q0 390 -233.5 619t-632.5 229q-196 0 -361 -65t-281 -181.5t-182 -283t-67 -363.5q-3 -253 107.5 -452t311 -309.5t456.5 -110.5q98 0 198 16.5t166 42.5v-96 q-71 -27 -172 -43.5t-194 -16.5q-212 0 -394 72t-310.5 198t-201.5 305.5t-73 387.5zM692 559q0 -216 116 -351.5t300 -135.5h12q187 0 302.5 130t115.5 357v8q0 217 -117 352.5t-301 135.5h-12q-184 0 -300 -135.5t-116 -352.5v-8z" />
<glyph unicode="A" horiz-adv-x="1417" d="M61 0l588 1434h119l588 -1434h-113l-199 489h-671l-199 -489h-113zM414 588h592l-297 727z" />
<glyph unicode="B" horiz-adv-x="1384" d="M215 0v1434h561q449 0 449 -365q0 -232 -221 -307q274 -74 274 -359q0 -188 -113 -295.5t-358 -107.5h-592zM322 96h489q190 0 275 82t85 223q0 297 -374 297h-475v-602zM322 795h423q200 0 287.5 70t87.5 202q0 126 -79 198t-265 72h-454v-542z" />
<glyph unicode="C" horiz-adv-x="1468" d="M154 709v16q0 330 177 531.5t472 201.5h14q159 0 301.5 -67.5t237.5 -184.5l-70 -73q-89 110 -209.5 169.5t-263.5 59.5h-10q-246 0 -394.5 -175t-148.5 -460v-20q0 -184 69 -328.5t194 -225.5t286 -81h10q291 0 473 233l70 -74q-100 -123 -237 -189.5t-302 -66.5 q-204 0 -356.5 92.5t-232.5 258.5t-80 383z" />
<glyph unicode="D" horiz-adv-x="1509" d="M215 0v1434h490q293 0 472 -195.5t179 -513.5v-16q0 -318 -179 -513.5t-472 -195.5h-490zM322 96h378q247 0 398 167.5t151 443.5v20q0 276 -151 443t-398 167h-378v-1241z" />
<glyph unicode="E" horiz-adv-x="1232" d="M215 0v1434h909v-97h-802v-542h745v-97h-745v-602h802v-96h-909z" />
<glyph unicode="F" horiz-adv-x="1232" d="M215 0v1434h909v-97h-802v-553h745v-96h-745v-688h-107z" />
<glyph unicode="G" horiz-adv-x="1581" d="M154 709v16q0 330 177 531.5t472 201.5h14q159 0 301.5 -67.5t237.5 -184.5l-70 -73q-89 110 -209.5 169.5t-263.5 59.5h-10q-246 0 -394.5 -175t-148.5 -460v-20q0 -185 67.5 -329.5t192 -225t287.5 -80.5q220 0 362 155t142 408v12h-514v96h620v-743h-106v299 q-66 -155 -198 -239.5t-306 -84.5q-194 0 -343 93.5t-229.5 260.5t-80.5 380z" />
<glyph unicode="H" horiz-adv-x="1550" d="M215 0v1434h107v-639h909v639h104v-1434h-104v698h-909v-698h-107z" />
<glyph unicode="I" d="M215 0v1434h107v-1434h-107z" />
<glyph unicode="J" horiz-adv-x="747" d="M72 -16v98q77 -10 123 -10q129 0 181 77.5t52 245.5v1039h104v-1037q0 -214 -75.5 -318t-257.5 -104q-66 0 -127 9z" />
<glyph unicode="K" horiz-adv-x="1421" d="M215 0v1434h107v-912l827 912h133l-532 -588l600 -846h-127l-543 768l-358 -393v-375h-107z" />
<glyph unicode="L" horiz-adv-x="1138" d="M215 0v1434h107v-1338h745v-96h-852z" />
<glyph unicode="M" horiz-adv-x="1710" d="M195 0v1434h116l535 -983l532 983h117v-1434h-106v1243l-504 -928h-80l-504 928v-1243h-106z" />
<glyph unicode="N" horiz-adv-x="1513" d="M195 0v1434h108l911 -1272v1270h105v-1434h-107l-911 1272v-1270h-106z" />
<glyph unicode="O" horiz-adv-x="1634" d="M154 709v16q0 211 80.5 377.5t229.5 261t341 94.5h24q144 0 266.5 -55t206.5 -152t131.5 -232.5t47.5 -293.5v-16q0 -211 -80.5 -377.5t-230 -261.5t-341.5 -95h-24q-192 0 -341 95t-229.5 261.5t-80.5 377.5zM260 707q0 -279 152.5 -457t396.5 -178h18q244 0 396.5 178 t152.5 457v20q0 279 -152.5 457t-396.5 178h-18q-244 0 -396.5 -178t-152.5 -457v-20z" />
<glyph unicode="P" horiz-adv-x="1384" d="M215 0v1434h567q126 0 218 -31t145 -88.5t77.5 -130.5t24.5 -166v-8q0 -414 -461 -414h-464v-596h-107zM322 692h469q101 0 171 23t108 67.5t54.5 99.5t16.5 130t-17 131.5t-56 101.5t-109.5 68.5t-170.5 23.5h-466v-645z" />
<glyph unicode="Q" horiz-adv-x="1634" d="M154 709v16q0 211 80.5 377.5t229.5 261t341 94.5h24q144 0 266.5 -55t206.5 -152t131.5 -232.5t47.5 -293.5v-16q0 -186 -64 -339.5t-180 -250.5l154 -187l-82 -65l-158 190q-142 -82 -322 -82h-24q-192 0 -341 95t-229.5 261.5t-80.5 377.5zM260 707q0 -279 152.5 -457 t396.5 -178h18q141 0 258 63l-188 227l82 66l192 -231q98 86 151.5 217.5t53.5 292.5v20q0 279 -152.5 457t-396.5 178h-18q-244 0 -396.5 -178t-152.5 -457v-20z" />
<glyph unicode="R" horiz-adv-x="1386" d="M215 0v1434h567q126 0 218 -31t145 -89t77.5 -132t24.5 -168q0 -343 -325 -398l329 -616h-121l-319 606h-25h-464v-606h-107zM322 702h469q101 0 171 23t108 66.5t54.5 97t16.5 125.5q0 74 -17 130.5t-56 101t-109.5 68t-170.5 23.5h-466v-635z" />
<glyph unicode="S" horiz-adv-x="1331" d="M109 244l67 73q92 -117 230.5 -181t298.5 -64q183 0 298 85t115 220q0 85 -39 137t-133 89.5t-276 74.5q-291 61 -403.5 142.5t-112.5 238.5q0 174 144.5 286.5t369.5 112.5q157 0 293.5 -53t228.5 -150l-68 -75q-83 87 -202 134.5t-254 47.5q-181 0 -294.5 -84.5 t-113.5 -218.5q0 -61 19.5 -101t73 -73t135 -57t219.5 -52q293 -60 406.5 -146.5t113.5 -250.5q0 -177 -146 -290.5t-372 -113.5q-183 0 -342 71.5t-256 197.5z" />
<glyph unicode="T" horiz-adv-x="1255" d="M72 1337v97h1112v-97h-504v-1337h-105v1337h-503z" />
<glyph unicode="U" horiz-adv-x="1501" d="M215 565v869h107v-871q0 -237 112.5 -364t317.5 -127h18q205 0 318.5 127.5t113.5 363.5v871h105v-869q0 -280 -140.5 -435t-392.5 -155h-24q-252 0 -393.5 155.5t-141.5 434.5z" />
<glyph unicode="V" horiz-adv-x="1353" d="M72 1434h112l494 -1307l491 1307h113l-547 -1434h-117z" />
<glyph unicode="W" horiz-adv-x="1984" d="M72 1434h108l373 -1301l379 1301h121l381 -1305l370 1305h109l-418 -1434h-121l-381 1296l-381 -1296h-120z" />
<glyph unicode="X" horiz-adv-x="1308" d="M72 0l520 735l-494 699h125l434 -615l437 615h127l-498 -705l514 -729h-125l-457 645l-456 -645h-127z" />
<glyph unicode="Y" horiz-adv-x="1314" d="M72 1434h121l462 -807l467 807h121l-534 -918v-516h-105v516z" />
<glyph unicode="Z" horiz-adv-x="1263" d="M109 0v96l909 1241h-887v97h1014v-97l-912 -1241h922v-96h-1046z" />
<glyph unicode="[" horiz-adv-x="815" d="M195 -190v1810h426v-96h-320v-1618h320v-96h-426z" />
<glyph unicode="\" horiz-adv-x="686" d="M72 1507h104l438 -1538h-104z" />
<glyph unicode="]" horiz-adv-x="815" d="M195 -94h319v1618h-319v96h426v-1810h-426v96z" />
<glyph unicode="^" horiz-adv-x="737" d="M92 1059l221 375h111l221 -375h-117l-159 272l-160 -272h-117z" />
<glyph unicode="_" horiz-adv-x="1456" d="M195 -63h1067v-97h-1067v97z" />
<glyph unicode="`" horiz-adv-x="604" d="M92 1964h131l289 -393h-121z" />
<glyph unicode="a" horiz-adv-x="1191" d="M113 307q0 196 194 289.5t604 95.5v56q0 307 -301 307h-10q-107 0 -204 -44t-163 -118l-65 70q78 89 191.5 138.5t248.5 49.5h8q197 0 299.5 -104.5t102.5 -311.5v-735h-107v256q-56 -129 -172 -205t-258 -76h-4q-166 0 -265 90.5t-99 241.5zM219 305q0 -108 70.5 -170.5 t193.5 -62.5q184 0 306 139t122 348v41q-359 -1 -525.5 -72.5t-166.5 -222.5z" />
<glyph unicode="b" horiz-adv-x="1353" d="M184 0v1475h107v-584q57 122 171.5 191t256.5 69h12q152 0 268.5 -76t179 -208t62.5 -298v-12q0 -166 -62.5 -298t-179 -208t-268.5 -76h-12q-142 0 -256.5 70t-171.5 193v-238h-107zM291 559q0 -216 116 -351.5t300 -135.5h12q184 0 301 135.5t117 351.5v8 q0 217 -117 352.5t-301 135.5h-12q-184 0 -300 -135.5t-116 -352.5v-8z" />
<glyph unicode="c" horiz-adv-x="1183" d="M113 557v12q0 257 146 419.5t382 162.5h12q126 0 238.5 -53t189.5 -148l-65 -71q-66 81 -162 128.5t-201 47.5h-12q-189 0 -305.5 -136t-116.5 -352v-8q0 -216 116 -351.5t306 -135.5h12q105 0 201 47.5t162 128.5l65 -70q-77 -96 -190 -149.5t-242 -53.5 q-244 0 -390 160.5t-146 421.5z" />
<glyph unicode="d" horiz-adv-x="1353" d="M113 557v12q0 166 63 298.5t179.5 208t267.5 75.5h12q145 0 259 -70t171 -194v588h104v-1475h-104v242q-57 -125 -171.5 -196t-258.5 -71h-12q-151 0 -267.5 75.5t-179.5 208t-63 298.5zM219 559q0 -216 116 -351.5t300 -135.5h12q184 0 301 135.5t117 351.5v8 q0 217 -117 352.5t-301 135.5h-12q-184 0 -300 -135.5t-116 -352.5v-8z" />
<glyph unicode="e" horiz-adv-x="1251" d="M113 557v12q0 259 145 420.5t377 161.5h12q227 0 364.5 -159t137.5 -423v-51h-928q11 -203 127 -324.5t301 -121.5h13q112 0 208 45.5t164 130.5l66 -70q-78 -98 -193 -150.5t-250 -52.5q-249 0 -396.5 158t-147.5 424zM221 614h823q-12 203 -119 322t-278 119h-12 q-177 0 -289.5 -120.5t-124.5 -320.5z" />
<glyph unicode="f" horiz-adv-x="780" d="M92 1034v92h162v86q0 152 69.5 219.5t211.5 67.5q74 0 147 -8v-92q-80 4 -143 4q-99 0 -140 -40.5t-41 -143.5v-93h324v-92h-324v-1034h-104v1034h-162z" />
<glyph unicode="g" horiz-adv-x="1343" d="M113 557v12q0 166 63 298.5t179.5 208t267.5 75.5h12q145 0 259 -70t171 -194v239h104v-1079q0 -250 -138.5 -396.5t-373.5 -146.5q-290 0 -469 197l66 72q156 -172 401 -172q190 0 300 119.5t110 326.5v195q-57 -125 -171.5 -196t-258.5 -71h-12q-151 0 -267.5 75.5 t-179.5 208t-63 298.5zM219 559q0 -216 116 -351.5t300 -135.5h12q184 0 301 135.5t117 351.5v8q0 217 -117 352.5t-301 135.5h-12q-184 0 -300 -135.5t-116 -352.5v-8z" />
<glyph unicode="h" horiz-adv-x="1275" d="M195 0v1475h106v-582q53 120 156.5 189t236.5 69h8q193 0 296.5 -114.5t103.5 -321.5v-715h-107v715q0 165 -76 252.5t-225 87.5h-8q-169 0 -277 -136.5t-108 -351.5v-567h-106z" />
<glyph unicode="i" horiz-adv-x="540" d="M195 1401q0 34 21.5 54t59.5 20q37 0 58.5 -20t21.5 -54t-22 -55t-58 -21q-38 0 -59.5 21t-21.5 55zM223 0v1126h107v-1126h-107z" />
<glyph unicode="j" horiz-adv-x="532" d="M-27 -391q47 -8 88 -8q85 0 119.5 41.5t34.5 144.5v1339h107v-1325q0 -153 -59 -225t-189 -72q-56 0 -101 11v94zM186 1401q0 34 22 54t60 20q37 0 58.5 -20t21.5 -54t-22 -55t-58 -21q-38 0 -60 21t-22 55z" />
<glyph unicode="k" horiz-adv-x="1173" d="M195 0v1475h106v-1029l639 680h137l-454 -479l499 -647h-129l-442 571l-250 -262v-309h-106z" />
<glyph unicode="l" horiz-adv-x="475" d="M195 0v1475h106v-1475h-106z" />
<glyph unicode="m" horiz-adv-x="1959" d="M184 0v1126h107v-223q47 117 138.5 182.5t219.5 65.5h8q144 0 236.5 -71t126.5 -201q47 127 144.5 199.5t232.5 72.5h8q184 0 282.5 -115t98.5 -317v-719h-107v719q0 159 -71 247.5t-211 88.5h-8q-164 0 -257.5 -134.5t-93.5 -353.5v-567h-106v719q0 159 -71.5 247.5 t-211.5 88.5h-8q-164 0 -257 -134t-93 -354v-567h-107z" />
<glyph unicode="n" horiz-adv-x="1265" d="M184 0v1126h107v-233q53 120 156.5 189t236.5 69h8q193 0 296.5 -114.5t103.5 -321.5v-715h-107v715q0 165 -76 252.5t-225 87.5h-8q-169 0 -277 -136.5t-108 -351.5v-567h-107z" />
<glyph unicode="o" horiz-adv-x="1288" d="M113 557v12q0 254 145 418t381 164h12q236 0 380.5 -164t144.5 -418v-12q0 -254 -144.5 -418t-380.5 -164h-12q-236 0 -381 164t-145 418zM219 559q0 -217 116.5 -352t303.5 -135h12q187 0 303.5 135t116.5 352v8q0 218 -116 353t-304 135h-12q-188 0 -304 -135 t-116 -353v-8z" />
<glyph unicode="p" horiz-adv-x="1363" d="M195 -471v1597h106v-235q57 122 171.5 191t256.5 69h12q152 0 268.5 -76t179 -208t62.5 -298v-12q0 -166 -62.5 -298t-179 -208t-268.5 -76h-12q-142 0 -256.5 70t-171.5 193v-709h-106zM301 559q0 -216 116 -351.5t300 -135.5h12q184 0 301 135.5t117 351.5v8 q0 217 -117 352.5t-301 135.5h-12q-184 0 -300 -135.5t-116 -352.5v-8z" />
<glyph unicode="q" horiz-adv-x="1353" d="M113 557v12q0 166 63 298.5t179.5 208t267.5 75.5h12q145 0 259 -70t171 -194v239h104v-1597h-104v713q-57 -125 -171.5 -196t-258.5 -71h-12q-151 0 -267.5 75.5t-179.5 208t-63 298.5zM219 559q0 -216 116 -351.5t300 -135.5h12q184 0 301 135.5t117 351.5v8 q0 217 -117 352.5t-301 135.5h-12q-184 0 -300 -135.5t-116 -352.5v-8z" />
<glyph unicode="r" horiz-adv-x="770" d="M184 0v1126h107v-241q54 124 155.5 195t235.5 71q21 0 37 -2v-94h-31q-181 0 -289 -139.5t-108 -362.5v-553h-107z" />
<glyph unicode="s" horiz-adv-x="1116" d="M109 188l65 74q72 -92 178.5 -141t233.5 -49q138 0 227.5 62.5t89.5 160.5q0 94 -70 140t-274 87q-235 47 -327.5 116t-92.5 196q0 140 117 228.5t301 88.5q128 0 237.5 -42t182.5 -120l-66 -71q-134 137 -354 137q-134 0 -222.5 -63t-88.5 -158q0 -85 68 -126.5 t274 -84.5q237 -49 328.5 -121.5t91.5 -206.5q0 -140 -118 -230t-302 -90q-148 0 -276.5 57.5t-202.5 155.5z" />
<glyph unicode="t" horiz-adv-x="794" d="M92 1034v92h162v187l104 18v-205h324v-92h-324v-772q0 -106 38 -148t141 -42q51 0 145 8v-92q-102 -13 -164 -13q-141 0 -202.5 72t-61.5 229v758h-162z" />
<glyph unicode="u" horiz-adv-x="1234" d="M174 406v720h107v-720q0 -157 74.5 -245.5t215.5 -88.5h2q167 0 274 136.5t107 350.5v567h107v-1126h-107v236q-54 -121 -155.5 -191t-233.5 -70h-2q-187 0 -288 115t-101 316z" />
<glyph unicode="v" horiz-adv-x="1116" d="M51 1126h113l395 -1013l393 1013h113l-442 -1126h-129z" />
<glyph unicode="w" horiz-adv-x="1665" d="M51 1126h111l303 -997l303 997h129l303 -997l303 997h111l-350 -1126h-127l-303 993l-306 -993h-127z" />
<glyph unicode="x" horiz-adv-x="1073" d="M51 0l422 573l-405 553h127l342 -469l346 469h125l-408 -553l422 -573h-127l-356 492l-361 -492h-127z" />
<glyph unicode="y" horiz-adv-x="1116" d="M51 1126h113l395 -1015l393 1015h113l-506 -1286q-73 -189 -139.5 -262.5t-161.5 -73.5q-94 0 -176 82l65 72q63 -57 113 -57q60 0 104 59t107 223l45 117h-22z" />
<glyph unicode="z" horiz-adv-x="1110" d="M102 0v96l764 934h-725v96h856v-96l-766 -934h777v-96h-906z" />
<glyph unicode="{" horiz-adv-x="954" d="M72 676v96h84q100 0 140 40.5t40 143.5v400q0 152 69 220.5t211 68.5q29 0 144 -9v-94q-111 6 -139 6q-100 0 -140.5 -41.5t-40.5 -144.5v-399q0 -182 -104 -240q104 -58 104 -240v-415q0 -104 40.5 -145.5t140.5 -41.5q65 0 139 4v-92q-68 -8 -144 -8q-142 0 -211 68.5 t-69 220.5v415q0 103 -40 145t-140 42h-84z" />
<glyph unicode="|" d="M215 -205v1639h107v-1639h-107z" />
<glyph unicode="}" horiz-adv-x="954" d="M195 -115q76 -4 139 -4q100 0 140 41.5t40 145.5v415q0 182 104 240q-104 58 -104 240v399q0 103 -40 144.5t-140 41.5q-25 0 -139 -6v94q115 9 143 9q143 0 213 -68.5t70 -220.5v-400q0 -103 40 -143.5t140 -40.5h82v-96h-82q-100 0 -140 -42t-40 -145v-415 q0 -152 -70 -220.5t-213 -68.5q-75 0 -143 8v92z" />
<glyph unicode="~" horiz-adv-x="1009" d="M92 604q33 128 91.5 188t144.5 60q57 0 104.5 -26.5t104.5 -90.5q59 -65 86.5 -85.5t58.5 -20.5q54 0 88.5 42t65.5 154l82 -45q-33 -128 -91.5 -188t-144.5 -60q-57 0 -104.5 26.5t-104.5 90.5q-59 66 -86.5 86.5t-58.5 20.5q-54 0 -88.5 -42t-65.5 -155z" />
<glyph unicode="&#xa1;" horiz-adv-x="557" d="M195 1071q0 38 23.5 59t62.5 21q36 0 58.5 -21.5t22.5 -58.5t-22.5 -58.5t-58.5 -21.5q-39 0 -62.5 21t-23.5 59zM225 16l19 740h71l19 -740v-323h-109v323z" />
<glyph unicode="&#xa2;" horiz-adv-x="1183" d="M113 557v12q0 244 132 404.5t351 175.5v231h104v-231q113 -9 212 -61t169 -138l-65 -71q-66 81 -162 128.5t-201 47.5h-12q-189 0 -305.5 -136t-116.5 -352v-8q0 -216 116 -351.5t306 -135.5h12q105 0 201 47.5t162 128.5l65 -70q-144 -179 -381 -201v-231h-104v231 q-222 19 -352.5 176t-130.5 404z" />
<glyph unicode="&#xa3;" horiz-adv-x="1312" d="M133 0v80q119 89 172 180.5t53 206.5q0 65 -22 129h-203v96h166q-25 59 -38 95.5t-26.5 101t-13.5 129.5q0 194 130 317t335 123q326 0 494 -276l-66 -76q-146 256 -426 256q-158 0 -260 -96.5t-102 -247.5q0 -25 2.5 -50.5t5 -44.5t9.5 -45t10 -39t13.5 -40t13.5 -35 t15.5 -37.5t14.5 -34.5h505v-96h-471q19 -62 19 -127q0 -114 -43 -204.5t-135 -168.5h893v-96h-1045z" />
<glyph unicode="&#xa4;" horiz-adv-x="1333" d="M51 1104l74 74l158 -156q154 129 376 129h13q223 0 377 -129l157 158l74 -74l-158 -160q125 -153 125 -377v-12q0 -222 -125 -375l160 -159l-74 -74l-157 157q-153 -131 -379 -131h-13q-223 0 -376 131l-156 -159l-74 76l156 157q-123 155 -123 377v12q0 222 123 377z M190 559q0 -214 131.5 -350.5t337.5 -136.5h13q207 0 339 136.5t132 350.5v8q0 215 -132 351.5t-339 136.5h-13q-206 0 -337.5 -136.5t-131.5 -351.5v-8z" />
<glyph unicode="&#xa5;" horiz-adv-x="1314" d="M72 1434h121l462 -807l467 807h121l-504 -867h310v-96h-340v-139h340v-96h-340v-236h-105v236h-338v96h338v139h-338v96h307z" />
<glyph unicode="&#xa6;" d="M215 -205v662h107v-662h-107zM215 772v662h107v-662h-107z" />
<glyph unicode="&#xa7;" horiz-adv-x="1128" d="M113 541q0 85 49.5 145.5t140.5 91.5q-84 41 -120 96t-36 138q0 140 117 228.5t301 88.5q127 0 237 -42t183 -120l-65 -71q-137 137 -357 137q-134 0 -222.5 -63t-88.5 -158q0 -84 68.5 -126t275.5 -85q237 -49 328.5 -121.5t91.5 -206.5q0 -168 -193 -237 q85 -39 121.5 -94t36.5 -138q0 -141 -116.5 -230t-301.5 -89q-127 0 -237 42t-183 119l66 72q137 -137 356 -137q134 0 223 63.5t89 159.5q0 83 -69.5 125.5t-275.5 85.5q-236 47 -327.5 119t-91.5 207zM219 543q0 -94 69.5 -140.5t272.5 -89.5l86 -18q121 6 191.5 52 t70.5 126q0 94 -69.5 140t-272.5 87l-86 19q-121 -6 -191.5 -52t-70.5 -124z" />
<glyph unicode="&#xa8;" horiz-adv-x="731" d="M92 1774q0 36 23.5 56.5t62.5 20.5q36 0 59 -20.5t23 -56.5q0 -39 -23 -60.5t-59 -21.5q-39 0 -62.5 21.5t-23.5 60.5zM471 1774q0 36 23.5 56.5t62.5 20.5q36 0 59 -20.5t23 -56.5q0 -39 -23 -60.5t-59 -21.5q-39 0 -62.5 21.5t-23.5 60.5z" />
<glyph unicode="&#xa9;" horiz-adv-x="1415" d="M154 952q0 154 72 279.5t199.5 196.5t283.5 71t283 -71t198.5 -196.5t71.5 -279.5q0 -235 -158 -392t-395 -157q-156 0 -283.5 71.5t-199.5 197.5t-72 280zM260 952q0 -195 127 -323.5t322 -128.5q193 0 319.5 128.5t126.5 323.5q0 194 -126.5 322.5t-319.5 128.5 q-194 0 -321.5 -128.5t-127.5 -322.5zM449 950v4q0 131 72 210t192 79h4q58 0 115.5 -27t95.5 -73l-64 -66q-70 70 -147 70h-2q-72 0 -117 -54t-45 -139v-4q0 -85 45 -138.5t117 -53.5h2q81 0 147 69l62 -65q-37 -46 -93 -73t-116 -27h-4q-120 0 -192 79.5t-72 208.5z" />
<glyph unicode="&#xab;" horiz-adv-x="1286" d="M195 588l362 424h131l-362 -424l362 -424h-131zM598 588l363 424h131l-363 -424l363 -424h-131z" />
<glyph unicode="&#xac;" horiz-adv-x="1112" d="M92 618v97h928v-383h-105v286h-823z" />
<glyph unicode="&#xad;" horiz-adv-x="1044" d="M195 618v97h655v-97h-655z" />
<glyph unicode="&#xae;" horiz-adv-x="1413" d="M154 952q0 154 72 279.5t199 196.5t282 71q156 0 283 -71t198.5 -196.5t71.5 -279.5q0 -235 -158 -392t-395 -157q-155 0 -282 71.5t-199 197.5t-72 280zM260 952q0 -195 127 -323.5t320 -128.5t320.5 128.5t127.5 323.5q0 194 -127.5 322.5t-320.5 128.5t-320 -128.5 t-127 -322.5zM498 672v553h250q192 0 192 -170q0 -115 -111 -150l125 -233h-118l-119 219h-115v-219h-104zM602 981h133q54 0 77.5 18t23.5 56q0 43 -24.5 61.5t-80.5 18.5h-129v-154z" />
<glyph unicode="&#xaf;" horiz-adv-x="696" d="M92 1690v96h512v-96h-512z" />
<glyph unicode="&#xb0;" horiz-adv-x="962" d="M154 1133v8q0 135 93.5 226t231.5 91h6q137 0 230.5 -91t93.5 -226v-8q0 -134 -94 -226t-230 -92h-6q-136 0 -230.5 92t-94.5 226zM260 1135q0 -94 63.5 -159t155.5 -65h4q94 0 158 65t64 159v6q0 95 -64 158t-158 63h-4q-94 0 -156.5 -63t-62.5 -158v-6z" />
<glyph unicode="&#xb1;" horiz-adv-x="1112" d="M92 176v96h928v-96h-928zM92 684v94h412v289h104v-289h412v-96h-412v-291h-104v293h-412z" />
<glyph unicode="&#xb4;" horiz-adv-x="604" d="M92 1571l289 393h131l-299 -393h-121z" />
<glyph unicode="&#xb6;" horiz-adv-x="1353" d="M154 1024q0 223 100.5 328.5t314.5 105.5h570v-1929h-105v1833h-358v-1833h-107v1063q-209 -1 -312 106t-103 326z" />
<glyph unicode="&#xb7;" horiz-adv-x="557" d="M195 651q0 38 23.5 59t62.5 21q36 0 58.5 -21.5t22.5 -58.5t-22.5 -58.5t-58.5 -21.5q-39 0 -62.5 21t-23.5 59z" />
<glyph unicode="&#xb8;" horiz-adv-x="573" d="M92 -233l135 233h107l-76 -121q100 18 161.5 -22.5t61.5 -128.5q0 -114 -112.5 -177t-276.5 -40v83q126 -15 204.5 19t78.5 104q0 44 -33.5 64.5t-97 16.5t-152.5 -31z" />
<glyph unicode="&#xbb;" horiz-adv-x="1286" d="M195 164l364 424l-364 424h133l360 -424l-360 -424h-133zM598 164l365 424l-365 424h133l361 -424l-361 -424h-133z" />
<glyph unicode="&#xbc;" horiz-adv-x="2289" d="M195 1139l364 295h92v-965h-104v827l-279 -227zM651 0l770 1434h117l-770 -1434h-117zM1282 236v71l500 658h123v-633h190v-96h-190v-236h-105v236h-518zM1419 332h381v502z" />
<glyph unicode="&#xbd;" horiz-adv-x="2394" d="M195 1139l364 295h92v-965h-104v827l-279 -227zM651 0l770 1434h117l-770 -1434h-117zM1458 0v86q401 325 498.5 421.5t97.5 180.5q0 89 -65 147t-164 58q-176 0 -287 -166l-70 76q64 90 157 138t204 48q141 0 236.5 -84.5t95.5 -208.5q0 -109 -109.5 -229t-431.5 -371 h580v-96h-742z" />
<glyph unicode="&#xbe;" horiz-adv-x="2478" d="M195 627l65 67q129 -153 328 -153q112 0 183 53.5t71 136.5q0 92 -62 140.5t-180 48.5h-166v96h148q106 0 167.5 46.5t61.5 125.5q0 76 -68 125t-174 49q-186 0 -288 -152l-64 70q61 85 153.5 131.5t198.5 46.5q148 0 247 -77.5t99 -192.5q0 -74 -42.5 -130.5 t-118.5 -84.5q91 -22 142.5 -85t51.5 -155q0 -125 -102.5 -207t-257.5 -82q-115 0 -219.5 49t-173.5 134zM840 0l770 1434h116l-770 -1434h-116zM1470 236v71l500 658h123v-633h191v-96h-191v-236h-104v236h-519zM1608 332h381v502z" />
<glyph unicode="&#xbf;" horiz-adv-x="1206" d="M133 86q0 170 132 286.5t341 129.5l17 254h69l21 -336q-221 -4 -347 -94t-126 -242q0 -145 97.5 -232.5t260.5 -87.5q117 0 215 46t191 143l69 -74q-205 -211 -477 -211q-208 0 -335.5 115t-127.5 303zM573 1071q0 37 23 58.5t59 21.5q39 0 62.5 -21t23.5 -59t-23.5 -59 t-62.5 -21q-36 0 -59 21.5t-23 58.5z" />
<glyph unicode="&#xc0;" horiz-adv-x="1417" d="M61 0l588 1434h119l588 -1434h-113l-199 489h-671l-199 -489h-113zM344 1964h131l289 -393h-121zM414 588h592l-297 727z" />
<glyph unicode="&#xc1;" horiz-adv-x="1417" d="M61 0l588 1434h119l588 -1434h-113l-199 489h-671l-199 -489h-113zM414 588h592l-297 727zM653 1571l289 393h131l-299 -393h-121z" />
<glyph unicode="&#xc2;" horiz-adv-x="1417" d="M61 0l588 1434h119l588 -1434h-113l-199 489h-671l-199 -489h-113zM350 1571l289 393h141l289 -393h-119l-239 313l-240 -313h-121zM414 588h592l-297 727z" />
<glyph unicode="&#xc3;" horiz-adv-x="1417" d="M61 0l588 1434h119l588 -1434h-113l-199 489h-671l-199 -489h-113zM365 1604q-26 161 16.5 245t148.5 84q63 0 109 -28.5t102 -100.5q57 -76 84 -99.5t64 -23.5q104 0 74 236h90q26 -161 -17 -245.5t-149 -84.5q-63 0 -109 28.5t-102 100.5q-57 76 -84 99.5t-64 23.5 q-103 0 -73 -235h-90zM414 588h592l-297 727z" />
<glyph unicode="&#xc4;" horiz-adv-x="1417" d="M61 0l588 1434h119l588 -1434h-113l-199 489h-671l-199 -489h-113zM414 588h592l-297 727zM434 1774q0 36 23.5 56.5t62.5 20.5q36 0 59 -20.5t23 -56.5q0 -39 -23 -60.5t-59 -21.5q-39 0 -62.5 21.5t-23.5 60.5zM813 1774q0 36 23.5 56.5t62.5 20.5q36 0 59 -20.5 t23 -56.5q0 -39 -23 -60.5t-59 -21.5q-39 0 -62.5 21.5t-23.5 60.5z" />
<glyph unicode="&#xc5;" horiz-adv-x="1417" d="M61 0l588 1434h119l588 -1434h-113l-199 489h-671l-199 -489h-113zM414 588h592l-297 727zM473 1767q0 98 66.5 160t171.5 62q103 0 169 -62t66 -160q0 -97 -66 -159t-169 -62q-104 0 -171 62t-67 159zM569 1767q0 -61 39.5 -99t102.5 -38t101 37.5t38 99.5t-38 101 t-101 39t-102.5 -39t-39.5 -101z" />
<glyph unicode="&#xc6;" horiz-adv-x="1730" d="M61 0l588 1434h973v-97h-803v-542h746v-97h-746v-602h803v-96h-909v489h-340l-199 -489h-113zM412 588h301v739z" />
<glyph unicode="&#xc7;" horiz-adv-x="1468" d="M154 709v16q0 330 177 531.5t472 201.5h14q159 0 301.5 -67.5t237.5 -184.5l-70 -73q-89 110 -209.5 169.5t-263.5 59.5h-10q-246 0 -394.5 -175t-148.5 -460v-20q0 -184 69 -328.5t194 -225.5t286 -81h10q291 0 473 233l70 -74q-193 -241 -502 -256l-61 -96 q100 18 161.5 -22.5t61.5 -128.5q0 -114 -112.5 -177t-276.5 -40v83q126 -15 204 19t78 104q0 44 -33.5 64.5t-96.5 16.5t-152 -31l123 210q-279 23 -440.5 222t-161.5 510z" />
<glyph unicode="&#xc8;" horiz-adv-x="1232" d="M215 0v1434h909v-97h-802v-542h745v-97h-745v-602h802v-96h-909zM305 1964h131l289 -393h-121z" />
<glyph unicode="&#xc9;" horiz-adv-x="1232" d="M215 0v1434h909v-97h-802v-542h745v-97h-745v-602h802v-96h-909zM614 1571l289 393h131l-299 -393h-121z" />
<glyph unicode="&#xca;" horiz-adv-x="1232" d="M215 0v1434h909v-97h-802v-542h745v-97h-745v-602h802v-96h-909zM311 1571l289 393h141l289 -393h-119l-239 313l-240 -313h-121z" />
<glyph unicode="&#xcb;" horiz-adv-x="1232" d="M215 0v1434h909v-97h-802v-542h745v-97h-745v-602h802v-96h-909zM395 1774q0 36 23.5 56.5t62.5 20.5q36 0 59 -20.5t23 -56.5q0 -39 -23 -60.5t-59 -21.5q-39 0 -62.5 21.5t-23.5 60.5zM774 1774q0 36 23.5 56.5t62.5 20.5q36 0 59 -20.5t23 -56.5q0 -39 -23 -60.5 t-59 -21.5q-39 0 -62.5 21.5t-23.5 60.5z" />
<glyph unicode="&#xcc;" d="M-96 1964h131l289 -393h-121zM215 0v1434h107v-1434h-107z" />
<glyph unicode="&#xcd;" d="M215 0v1434h107v-1434h-107zM215 1571l289 393h131l-299 -393h-121z" />
<glyph unicode="&#xce;" d="M-90 1571l289 393h141l289 -393h-119l-240 313l-239 -313h-121zM215 0v1434h107v-1434h-107z" />
<glyph unicode="&#xcf;" d="M-6 1774q0 36 23.5 56.5t62.5 20.5q36 0 59 -20.5t23 -56.5q0 -39 -23 -60.5t-59 -21.5q-39 0 -62.5 21.5t-23.5 60.5zM215 0v1434h107v-1434h-107zM373 1774q0 36 23.5 56.5t62.5 20.5q36 0 59 -20.5t23 -56.5q0 -39 -23 -60.5t-59 -21.5q-39 0 -62.5 21.5t-23.5 60.5z " />
<glyph unicode="&#xd0;" horiz-adv-x="1509" d="M-16 678v96h231v660h490q293 0 472 -195.5t179 -513.5v-16q0 -318 -179 -513.5t-472 -195.5h-490v678h-231zM322 96h378q247 0 398 167.5t151 443.5v20q0 276 -151 443t-398 167h-378v-563h317v-96h-317v-582z" />
<glyph unicode="&#xd1;" horiz-adv-x="1513" d="M195 0v1434h108l911 -1272v1270h105v-1434h-107l-911 1272v-1270h-106zM412 1604q-26 161 17 245t149 84q63 0 108.5 -28.5t101.5 -100.5q57 -76 84 -99.5t64 -23.5q104 0 74 236h90q26 -161 -17 -245.5t-149 -84.5q-63 0 -109 28.5t-102 100.5q-57 76 -84 99.5t-64 23.5 q-103 0 -73 -235h-90z" />
<glyph unicode="&#xd2;" horiz-adv-x="1634" d="M154 709v16q0 211 80.5 377.5t229.5 261t341 94.5h24q144 0 266.5 -55t206.5 -152t131.5 -232.5t47.5 -293.5v-16q0 -211 -80.5 -377.5t-230 -261.5t-341.5 -95h-24q-192 0 -341 95t-229.5 261.5t-80.5 377.5zM260 707q0 -279 152.5 -457t396.5 -178h18q244 0 396.5 178 t152.5 457v20q0 279 -152.5 457t-396.5 178h-18q-244 0 -396.5 -178t-152.5 -457v-20zM453 1964h131l288 -393h-120z" />
<glyph unicode="&#xd3;" horiz-adv-x="1634" d="M154 709v16q0 211 80.5 377.5t229.5 261t341 94.5h24q144 0 266.5 -55t206.5 -152t131.5 -232.5t47.5 -293.5v-16q0 -211 -80.5 -377.5t-230 -261.5t-341.5 -95h-24q-192 0 -341 95t-229.5 261.5t-80.5 377.5zM260 707q0 -279 152.5 -457t396.5 -178h18q244 0 396.5 178 t152.5 457v20q0 279 -152.5 457t-396.5 178h-18q-244 0 -396.5 -178t-152.5 -457v-20zM762 1571l289 393h131l-299 -393h-121z" />
<glyph unicode="&#xd4;" horiz-adv-x="1634" d="M154 709v16q0 211 80.5 377.5t229.5 261t341 94.5h24q144 0 266.5 -55t206.5 -152t131.5 -232.5t47.5 -293.5v-16q0 -211 -80.5 -377.5t-230 -261.5t-341.5 -95h-24q-192 0 -341 95t-229.5 261.5t-80.5 377.5zM260 707q0 -279 152.5 -457t396.5 -178h18q244 0 396.5 178 t152.5 457v20q0 279 -152.5 457t-396.5 178h-18q-244 0 -396.5 -178t-152.5 -457v-20zM459 1571l289 393h141l289 -393h-119l-240 313l-239 -313h-121z" />
<glyph unicode="&#xd5;" horiz-adv-x="1634" d="M154 709v16q0 211 80.5 377.5t229.5 261t341 94.5h24q144 0 266.5 -55t206.5 -152t131.5 -232.5t47.5 -293.5v-16q0 -211 -80.5 -377.5t-230 -261.5t-341.5 -95h-24q-192 0 -341 95t-229.5 261.5t-80.5 377.5zM260 707q0 -279 152.5 -457t396.5 -178h18q244 0 396.5 178 t152.5 457v20q0 279 -152.5 457t-396.5 178h-18q-244 0 -396.5 -178t-152.5 -457v-20zM473 1604q-26 161 17 245t149 84q63 0 109 -28.5t102 -100.5q57 -76 83.5 -99.5t63.5 -23.5q104 0 74 236h90q26 -161 -17 -245.5t-149 -84.5q-63 0 -109 28.5t-102 100.5 q-57 76 -83.5 99.5t-63.5 23.5q-104 0 -74 -235h-90z" />
<glyph unicode="&#xd6;" horiz-adv-x="1634" d="M154 709v16q0 211 80.5 377.5t229.5 261t341 94.5h24q144 0 266.5 -55t206.5 -152t131.5 -232.5t47.5 -293.5v-16q0 -211 -80.5 -377.5t-230 -261.5t-341.5 -95h-24q-192 0 -341 95t-229.5 261.5t-80.5 377.5zM260 707q0 -279 152.5 -457t396.5 -178h18q244 0 396.5 178 t152.5 457v20q0 279 -152.5 457t-396.5 178h-18q-244 0 -396.5 -178t-152.5 -457v-20zM543 1774q0 36 23.5 56.5t62.5 20.5q36 0 59 -20.5t23 -56.5q0 -39 -23 -60.5t-59 -21.5q-39 0 -62.5 21.5t-23.5 60.5zM922 1774q0 36 23.5 56.5t62.5 20.5q36 0 59 -20.5t23 -56.5 q0 -39 -23 -60.5t-59 -21.5q-39 0 -62.5 21.5t-23.5 60.5z" />
<glyph unicode="&#xd7;" horiz-adv-x="909" d="M92 373l295 295l-293 293l68 67l293 -293l293 293l69 -67l-295 -295l293 -293l-67 -68l-293 293l-293 -293z" />
<glyph unicode="&#xd8;" horiz-adv-x="1634" d="M154 709v16q0 211 80.5 377.5t229.5 261t341 94.5h24q148 0 271 -57l65 135h109l-88 -182q139 -94 217 -259t78 -370v-16q0 -211 -80.5 -377.5t-230 -261.5t-341.5 -95h-24q-148 0 -266 56l-66 -133h-108l88 180q-141 95 -220 259.5t-79 371.5zM260 707 q0 -174 62.5 -313.5t175.5 -223.5l559 1143q-111 49 -230 49h-18q-244 0 -396.5 -178t-152.5 -457v-20zM582 121q101 -49 227 -49h18q244 0 396.5 178t152.5 457v20q0 174 -62 313.5t-175 221.5z" />
<glyph unicode="&#xd9;" horiz-adv-x="1501" d="M215 565v869h107v-871q0 -237 112.5 -364t317.5 -127h18q205 0 318.5 127.5t113.5 363.5v871h105v-869q0 -280 -140.5 -435t-392.5 -155h-24q-252 0 -393.5 155.5t-141.5 434.5zM397 1964h131l289 -393h-121z" />
<glyph unicode="&#xda;" horiz-adv-x="1501" d="M215 565v869h107v-871q0 -237 112.5 -364t317.5 -127h18q205 0 318.5 127.5t113.5 363.5v871h105v-869q0 -280 -140.5 -435t-392.5 -155h-24q-252 0 -393.5 155.5t-141.5 434.5zM707 1571l288 393h131l-299 -393h-120z" />
<glyph unicode="&#xdb;" horiz-adv-x="1501" d="M215 565v869h107v-871q0 -237 112.5 -364t317.5 -127h18q205 0 318.5 127.5t113.5 363.5v871h105v-869q0 -280 -140.5 -435t-392.5 -155h-24q-252 0 -393.5 155.5t-141.5 434.5zM401 1571l289 393h141l289 -393h-119l-239 313l-240 -313h-121z" />
<glyph unicode="&#xdc;" horiz-adv-x="1501" d="M215 565v869h107v-871q0 -237 112.5 -364t317.5 -127h18q205 0 318.5 127.5t113.5 363.5v871h105v-869q0 -280 -140.5 -435t-392.5 -155h-24q-252 0 -393.5 155.5t-141.5 434.5zM487 1774q0 36 23.5 56.5t62.5 20.5q36 0 59 -20.5t23 -56.5q0 -39 -23 -60.5t-59 -21.5 q-39 0 -62.5 21.5t-23.5 60.5zM866 1774q0 36 23.5 56.5t62.5 20.5q36 0 59 -20.5t23 -56.5q0 -39 -23 -60.5t-59 -21.5q-39 0 -62.5 21.5t-23.5 60.5z" />
<glyph unicode="&#xdd;" horiz-adv-x="1314" d="M72 1434h121l462 -807l467 807h121l-534 -918v-516h-105v516zM602 1571l289 393h131l-299 -393h-121z" />
<glyph unicode="&#xde;" horiz-adv-x="1384" d="M215 0v1434h107v-187h460q126 0 218 -31t145 -88.5t77.5 -130.5t24.5 -166v-8q0 -94 -24 -167t-76.5 -129.5t-143.5 -86.5t-217 -30h-464v-410h-107zM322 506h469q101 0 171 22.5t108 67t54.5 99.5t16.5 130q0 74 -17 131t-56 102t-109.5 69t-170.5 24h-466v-645z" />
<glyph unicode="&#xdf;" horiz-adv-x="1263" d="M195 0v1094q0 183 121 294t321 111q212 0 335.5 -107t123.5 -282q0 -110 -62.5 -198t-175.5 -132q142 -37 219.5 -131t77.5 -229q0 -204 -122.5 -312t-356.5 -108h-252v96h252q375 0 375 322q0 149 -104 226t-310 77h-139v96h110q178 0 280.5 79t102.5 214q0 137 -94 215 t-260 78q-152 0 -244 -83.5t-92 -219.5v-1100h-106z" />
<glyph unicode="&#xe0;" horiz-adv-x="1191" d="M113 307q0 196 194 289.5t604 95.5v56q0 307 -301 307h-10q-107 0 -204 -44t-163 -118l-65 70q78 89 191.5 138.5t248.5 49.5h8q197 0 299.5 -104.5t102.5 -311.5v-735h-107v256q-56 -129 -172 -205t-258 -76h-4q-166 0 -265 90.5t-99 241.5zM219 305q0 -108 70.5 -170.5 t193.5 -62.5q184 0 306 139t122 348v41q-359 -1 -525.5 -72.5t-166.5 -222.5zM236 1657h131l288 -393h-120z" />
<glyph unicode="&#xe1;" horiz-adv-x="1191" d="M113 307q0 196 194 289.5t604 95.5v56q0 307 -301 307h-10q-107 0 -204 -44t-163 -118l-65 70q78 89 191.5 138.5t248.5 49.5h8q197 0 299.5 -104.5t102.5 -311.5v-735h-107v256q-56 -129 -172 -205t-258 -76h-4q-166 0 -265 90.5t-99 241.5zM219 305q0 -108 70.5 -170.5 t193.5 -62.5q184 0 306 139t122 348v41q-359 -1 -525.5 -72.5t-166.5 -222.5zM545 1264l289 393h131l-299 -393h-121z" />
<glyph unicode="&#xe2;" horiz-adv-x="1191" d="M113 307q0 196 194 289.5t604 95.5v56q0 307 -301 307h-10q-107 0 -204 -44t-163 -118l-65 70q78 89 191.5 138.5t248.5 49.5h8q197 0 299.5 -104.5t102.5 -311.5v-735h-107v256q-56 -129 -172 -205t-258 -76h-4q-166 0 -265 90.5t-99 241.5zM219 305q0 -108 70.5 -170.5 t193.5 -62.5q184 0 306 139t122 348v41q-359 -1 -525.5 -72.5t-166.5 -222.5zM240 1264l288 393h142l288 -393h-118l-240 313l-240 -313h-120z" />
<glyph unicode="&#xe3;" horiz-adv-x="1191" d="M113 307q0 196 194 289.5t604 95.5v56q0 307 -301 307h-10q-107 0 -204 -44t-163 -118l-65 70q78 89 191.5 138.5t248.5 49.5h8q197 0 299.5 -104.5t102.5 -311.5v-735h-107v256q-56 -129 -172 -205t-258 -76h-4q-166 0 -265 90.5t-99 241.5zM219 305q0 -108 70.5 -170.5 t193.5 -62.5q184 0 306 139t122 348v41q-359 -1 -525.5 -72.5t-166.5 -222.5zM256 1296q-26 161 17 245.5t149 84.5q63 0 109 -28.5t102 -100.5q57 -76 83.5 -99.5t63.5 -23.5q104 0 74 236h90q26 -161 -17 -245.5t-149 -84.5q-63 0 -109 28.5t-102 100.5q-57 76 -83.5 99.5 t-63.5 23.5q-104 0 -74 -236h-90z" />
<glyph unicode="&#xe4;" horiz-adv-x="1191" d="M113 307q0 196 194 289.5t604 95.5v56q0 307 -301 307h-10q-107 0 -204 -44t-163 -118l-65 70q78 89 191.5 138.5t248.5 49.5h8q197 0 299.5 -104.5t102.5 -311.5v-735h-107v256q-56 -129 -172 -205t-258 -76h-4q-166 0 -265 90.5t-99 241.5zM219 305q0 -108 70.5 -170.5 t193.5 -62.5q184 0 306 139t122 348v41q-359 -1 -525.5 -72.5t-166.5 -222.5zM326 1466q0 36 23.5 57t62.5 21q36 0 59 -21t23 -57q0 -39 -23 -60.5t-59 -21.5q-39 0 -62.5 21.5t-23.5 60.5zM705 1466q0 36 23.5 57t62.5 21q36 0 58.5 -21t22.5 -57q0 -39 -22.5 -60.5 t-58.5 -21.5q-39 0 -62.5 21.5t-23.5 60.5z" />
<glyph unicode="&#xe5;" horiz-adv-x="1191" d="M113 307q0 196 194 289.5t604 95.5v56q0 307 -301 307h-10q-107 0 -204 -44t-163 -118l-65 70q78 89 191.5 138.5t248.5 49.5h8q197 0 299.5 -104.5t102.5 -311.5v-735h-107v256q-56 -129 -172 -205t-258 -76h-4q-166 0 -265 90.5t-99 241.5zM219 305q0 -108 70.5 -170.5 t193.5 -62.5q184 0 306 139t122 348v41q-359 -1 -525.5 -72.5t-166.5 -222.5zM362 1460q0 98 66.5 159.5t171.5 61.5q103 0 169.5 -61.5t66.5 -159.5q0 -97 -66.5 -159t-169.5 -62q-104 0 -171 62t-67 159zM459 1460q0 -61 39 -99t102 -38t101 37.5t38 99.5t-38 100.5 t-101 38.5t-102 -38.5t-39 -100.5z" />
<glyph unicode="&#xe6;" horiz-adv-x="2050" d="M113 307q0 198 193 290.5t605 94.5v56q0 307 -301 307h-10q-107 0 -204 -44t-163 -118l-65 70q78 89 191.5 138.5t248.5 49.5h8q305 0 379 -246q67 116 180.5 181t258.5 65h12q155 0 270 -76t173.5 -207t58.5 -299v-51h-928q10 -202 127.5 -324t300.5 -122h12 q115 0 211 47.5t162 128.5l65 -70q-77 -96 -190.5 -149.5t-251.5 -53.5q-183 0 -314.5 90t-189.5 250q-57 -154 -185 -247t-286 -93h-4q-165 0 -264.5 91t-99.5 241zM219 305q0 -107 70.5 -170t191.5 -63h2q184 0 306 139t122 348v41q-361 -1 -526.5 -72t-165.5 -223z M1020 614h823q-12 201 -117.5 321t-279.5 120h-12q-176 0 -289 -121t-125 -320z" />
<glyph unicode="&#xe7;" horiz-adv-x="1183" d="M113 557v12q0 257 146 419.5t382 162.5h12q126 0 238.5 -53t189.5 -148l-65 -71q-66 81 -162 128.5t-201 47.5h-12q-189 0 -305.5 -136t-116.5 -352v-8q0 -216 116 -351.5t306 -135.5h12q105 0 201 47.5t162 128.5l65 -70q-71 -90 -173.5 -142.5t-221.5 -58.5l-61 -98 q100 18 161.5 -22.5t61.5 -128.5q0 -114 -112.5 -177t-276.5 -40v83q126 -15 204 19t78 104q0 44 -33.5 64.5t-96.5 16.5t-152 -31l123 213q-216 22 -342.5 178.5t-126.5 398.5z" />
<glyph unicode="&#xe8;" horiz-adv-x="1251" d="M113 557v12q0 259 145 420.5t377 161.5h12q227 0 364.5 -159t137.5 -423v-51h-928q11 -203 127 -324.5t301 -121.5h13q112 0 208 45.5t164 130.5l66 -70q-78 -98 -193 -150.5t-250 -52.5q-249 0 -396.5 158t-147.5 424zM221 614h823q-12 203 -119 322t-278 119h-12 q-177 0 -289.5 -120.5t-124.5 -320.5zM276 1657h132l288 -393h-121z" />
<glyph unicode="&#xe9;" horiz-adv-x="1251" d="M113 557v12q0 259 145 420.5t377 161.5h12q227 0 364.5 -159t137.5 -423v-51h-928q11 -203 127 -324.5t301 -121.5h13q112 0 208 45.5t164 130.5l66 -70q-78 -98 -193 -150.5t-250 -52.5q-249 0 -396.5 158t-147.5 424zM221 614h823q-12 203 -119 322t-278 119h-12 q-177 0 -289.5 -120.5t-124.5 -320.5zM586 1264l288 393h132l-299 -393h-121z" />
<glyph unicode="&#xea;" horiz-adv-x="1251" d="M113 557v12q0 259 145 420.5t377 161.5h12q227 0 364.5 -159t137.5 -423v-51h-928q11 -203 127 -324.5t301 -121.5h13q112 0 208 45.5t164 130.5l66 -70q-78 -98 -193 -150.5t-250 -52.5q-249 0 -396.5 158t-147.5 424zM221 614h823q-12 203 -119 322t-278 119h-12 q-177 0 -289.5 -120.5t-124.5 -320.5zM281 1264l288 393h142l288 -393h-118l-240 313l-240 -313h-120z" />
<glyph unicode="&#xeb;" horiz-adv-x="1251" d="M113 557v12q0 259 145 420.5t377 161.5h12q227 0 364.5 -159t137.5 -423v-51h-928q11 -203 127 -324.5t301 -121.5h13q112 0 208 45.5t164 130.5l66 -70q-78 -98 -193 -150.5t-250 -52.5q-249 0 -396.5 158t-147.5 424zM221 614h823q-12 203 -119 322t-278 119h-12 q-177 0 -289.5 -120.5t-124.5 -320.5zM367 1466q0 36 23.5 57t62.5 21q36 0 59 -21t23 -57q0 -39 -23 -60.5t-59 -21.5q-39 0 -62.5 21.5t-23.5 60.5zM745 1466q0 36 23.5 57t62.5 21q36 0 59 -21t23 -57q0 -39 -23 -60.5t-59 -21.5q-39 0 -62.5 21.5t-23.5 60.5z" />
<glyph unicode="&#xec;" horiz-adv-x="485" d="M-117 1657h131l289 -393h-121zM195 0v1126h106v-1126h-106z" />
<glyph unicode="&#xed;" horiz-adv-x="485" d="M193 1264l288 393h131l-299 -393h-120zM195 0v1126h106v-1126h-106z" />
<glyph unicode="&#xee;" horiz-adv-x="485" d="M-113 1264l289 393h141l289 -393h-119l-239 313l-240 -313h-121zM195 0v1126h106v-1126h-106z" />
<glyph unicode="&#xef;" horiz-adv-x="485" d="M-27 1466q0 36 23.5 57t62.5 21q36 0 59 -21t23 -57q0 -39 -23 -60.5t-59 -21.5q-39 0 -62.5 21.5t-23.5 60.5zM195 0v1126h106v-1126h-106zM352 1466q0 36 23.5 57t62.5 21q36 0 59 -21t23 -57q0 -39 -23 -60.5t-59 -21.5q-39 0 -62.5 21.5t-23.5 60.5z" />
<glyph unicode="&#xf0;" horiz-adv-x="1239" d="M113 463q0 207 127.5 339t328.5 132q126 0 241 -54t194 -149q-66 330 -336 529l-176 -189l-76 59l172 185q-107 66 -252 115l65 69q130 -38 254 -113l138 148l75 -59l-133 -142q185 -139 288 -345t103 -445q0 -257 -141.5 -412.5t-374.5 -155.5q-209 0 -353 141.5 t-144 346.5zM219 455q0 -160 113 -271.5t276 -111.5h6q184 0 296 125.5t112 332.5v7v41q-85 127 -200.5 193.5t-252.5 66.5q-159 0 -254.5 -103.5t-95.5 -275.5v-4z" />
<glyph unicode="&#xf1;" horiz-adv-x="1265" d="M184 0v1126h107v-233q53 120 156.5 189t236.5 69h8q193 0 296.5 -114.5t103.5 -321.5v-715h-107v715q0 165 -76 252.5t-225 87.5h-8q-169 0 -277 -136.5t-108 -351.5v-567h-107zM289 1296q-26 161 17 245.5t149 84.5q63 0 109 -28.5t102 -100.5q57 -76 83.5 -99.5 t63.5 -23.5q104 0 74 236h90q26 -161 -17 -245.5t-149 -84.5q-63 0 -109 28.5t-102 100.5q-57 76 -83.5 99.5t-63.5 23.5q-104 0 -74 -236h-90z" />
<glyph unicode="&#xf2;" horiz-adv-x="1288" d="M113 557v12q0 254 145 418t381 164h12q236 0 380.5 -164t144.5 -418v-12q0 -254 -144.5 -418t-380.5 -164h-12q-236 0 -381 164t-145 418zM219 559q0 -217 116.5 -352t303.5 -135h12q187 0 303.5 135t116.5 352v8q0 218 -116 353t-304 135h-12q-188 0 -304 -135 t-116 -353v-8zM281 1657h131l288 -393h-120z" />
<glyph unicode="&#xf3;" horiz-adv-x="1288" d="M113 557v12q0 254 145 418t381 164h12q236 0 380.5 -164t144.5 -418v-12q0 -254 -144.5 -418t-380.5 -164h-12q-236 0 -381 164t-145 418zM219 559q0 -217 116.5 -352t303.5 -135h12q187 0 303.5 135t116.5 352v8q0 218 -116 353t-304 135h-12q-188 0 -304 -135 t-116 -353v-8zM590 1264l289 393h131l-299 -393h-121z" />
<glyph unicode="&#xf4;" horiz-adv-x="1288" d="M113 557v12q0 254 145 418t381 164h12q236 0 380.5 -164t144.5 -418v-12q0 -254 -144.5 -418t-380.5 -164h-12q-236 0 -381 164t-145 418zM219 559q0 -217 116.5 -352t303.5 -135h12q187 0 303.5 135t116.5 352v8q0 218 -116 353t-304 135h-12q-188 0 -304 -135 t-116 -353v-8zM285 1264l288 393h142l289 -393h-119l-240 313l-239 -313h-121z" />
<glyph unicode="&#xf5;" horiz-adv-x="1288" d="M113 557v12q0 254 145 418t381 164h12q236 0 380.5 -164t144.5 -418v-12q0 -254 -144.5 -418t-380.5 -164h-12q-236 0 -381 164t-145 418zM219 559q0 -217 116.5 -352t303.5 -135h12q187 0 303.5 135t116.5 352v8q0 218 -116 353t-304 135h-12q-188 0 -304 -135 t-116 -353v-8zM301 1296q-26 161 17 245.5t149 84.5q63 0 109 -28.5t102 -100.5q57 -76 83.5 -99.5t63.5 -23.5q104 0 74 236h90q26 -161 -17 -245.5t-149 -84.5q-63 0 -109 28.5t-102 100.5q-57 76 -83.5 99.5t-63.5 23.5q-104 0 -74 -236h-90z" />
<glyph unicode="&#xf6;" horiz-adv-x="1288" d="M113 557v12q0 254 145 418t381 164h12q236 0 380.5 -164t144.5 -418v-12q0 -254 -144.5 -418t-380.5 -164h-12q-236 0 -381 164t-145 418zM219 559q0 -217 116.5 -352t303.5 -135h12q187 0 303.5 135t116.5 352v8q0 218 -116 353t-304 135h-12q-188 0 -304 -135 t-116 -353v-8zM371 1466q0 36 23.5 57t62.5 21q36 0 59 -21t23 -57q0 -39 -23 -60.5t-59 -21.5q-39 0 -62.5 21.5t-23.5 60.5zM750 1466q0 36 23.5 57t62.5 21q36 0 59 -21t23 -57q0 -39 -23 -60.5t-59 -21.5q-39 0 -62.5 21.5t-23.5 60.5z" />
<glyph unicode="&#xf7;" horiz-adv-x="1112" d="M92 618v97h928v-97h-928zM473 309q0 37 23 58.5t61 21.5t61 -21.5t23 -58.5t-23 -58.5t-61 -21.5t-61 21.5t-23 58.5zM473 1026q0 37 23 58.5t61 21.5t61 -21.5t23 -58.5t-23 -58.5t-61 -21.5t-61 21.5t-23 58.5z" />
<glyph unicode="&#xf8;" horiz-adv-x="1288" d="M113 557v12q0 254 145 418t381 164h12q51 0 109 -10l59 211h101l-68 -238q152 -61 238 -206t86 -339v-12q0 -254 -144.5 -418t-380.5 -164h-12q-45 0 -109 11l-59 -211h-100l67 237q-152 61 -238.5 206t-86.5 339zM219 559q0 -160 65.5 -278.5t180.5 -171.5l268 938 q-36 8 -82 8h-12q-188 0 -304 -135t-116 -353v-8zM557 80q36 -8 82 -8h12q187 0 303.5 135t116.5 352v8q0 161 -66 279.5t-182 171.5z" />
<glyph unicode="&#xf9;" horiz-adv-x="1234" d="M174 406v720h107v-720q0 -157 74.5 -245.5t215.5 -88.5h2q167 0 274 136.5t107 350.5v567h107v-1126h-107v236q-54 -121 -155.5 -191t-233.5 -70h-2q-187 0 -288 115t-101 316zM246 1657h131l289 -393h-121z" />
<glyph unicode="&#xfa;" horiz-adv-x="1234" d="M174 406v720h107v-720q0 -157 74.5 -245.5t215.5 -88.5h2q167 0 274 136.5t107 350.5v567h107v-1126h-107v236q-54 -121 -155.5 -191t-233.5 -70h-2q-187 0 -288 115t-101 316zM555 1264l289 393h131l-299 -393h-121z" />
<glyph unicode="&#xfb;" horiz-adv-x="1234" d="M174 406v720h107v-720q0 -157 74.5 -245.5t215.5 -88.5h2q167 0 274 136.5t107 350.5v567h107v-1126h-107v236q-54 -121 -155.5 -191t-233.5 -70h-2q-187 0 -288 115t-101 316zM252 1264l289 393h141l289 -393h-119l-240 313l-239 -313h-121z" />
<glyph unicode="&#xfc;" horiz-adv-x="1234" d="M174 406v720h107v-720q0 -157 74.5 -245.5t215.5 -88.5h2q167 0 274 136.5t107 350.5v567h107v-1126h-107v236q-54 -121 -155.5 -191t-233.5 -70h-2q-187 0 -288 115t-101 316zM336 1466q0 36 23.5 57t62.5 21q36 0 59 -21t23 -57q0 -39 -23 -60.5t-59 -21.5 q-39 0 -62.5 21.5t-23.5 60.5zM715 1466q0 36 23.5 57t62.5 21q36 0 59 -21t23 -57q0 -39 -23 -60.5t-59 -21.5q-39 0 -62.5 21.5t-23.5 60.5z" />
<glyph unicode="&#xfd;" horiz-adv-x="1116" d="M51 1126h113l395 -1015l393 1015h113l-506 -1286q-73 -189 -139.5 -262.5t-161.5 -73.5q-94 0 -176 82l65 72q63 -57 113 -57q60 0 104 59t107 223l45 117h-22zM516 1264l289 393h131l-299 -393h-121z" />
<glyph unicode="&#xfe;" horiz-adv-x="1363" d="M195 -471v1946h106v-584q57 122 171.5 191t256.5 69h12q152 0 268.5 -76t179 -208t62.5 -298v-12q0 -166 -62.5 -298t-179 -208t-268.5 -76h-12q-142 0 -256.5 70t-171.5 193v-709h-106zM301 559q0 -216 116 -351.5t300 -135.5h12q184 0 301 135.5t117 351.5v8 q0 217 -117 352.5t-301 135.5h-12q-184 0 -300 -135.5t-116 -352.5v-8z" />
<glyph unicode="&#xff;" horiz-adv-x="1116" d="M51 1126h113l395 -1015l393 1015h113l-506 -1286q-73 -189 -139.5 -262.5t-161.5 -73.5q-94 0 -176 82l65 72q63 -57 113 -57q60 0 104 59t107 223l45 117h-22zM297 1466q0 36 23.5 57t62.5 21q36 0 59 -21t23 -57q0 -39 -23 -60.5t-59 -21.5q-39 0 -62.5 21.5 t-23.5 60.5zM676 1466q0 36 23.5 57t62.5 21q36 0 59 -21t23 -57q0 -39 -23 -60.5t-59 -21.5q-39 0 -62.5 21.5t-23.5 60.5z" />
<glyph unicode="&#x152;" horiz-adv-x="2295" d="M154 709v16q0 215 77.5 380.5t225.5 259t346 93.5h14q133 0 252 -44t211 -120v140h909v-97h-805v-542h746v-97h-746v-602h805v-96h-909v137q-194 -162 -457 -162q-207 0 -359.5 94.5t-231 259.5t-78.5 380zM260 707q0 -279 152.5 -457t396.5 -178h10q138 0 256.5 53.5 t204.5 150.5v879q-87 97 -208 152t-259 55h-10q-249 0 -396 -175.5t-147 -459.5v-20z" />
<glyph unicode="&#x153;" horiz-adv-x="2209" d="M113 557v12q0 254 145 418t381 164h12q164 0 287 -83t184 -226q62 143 183.5 226t285.5 83h13q156 0 271 -76t173.5 -207t58.5 -299v-51h-929q10 -202 128.5 -324t301.5 -122h12q113 0 209.5 47.5t161.5 128.5l65 -70q-75 -96 -188.5 -149.5t-251.5 -53.5 q-173 0 -301.5 82t-192.5 228q-61 -144 -184 -227t-287 -83h-12q-236 0 -381 164t-145 418zM219 559q0 -217 116.5 -352t303.5 -135h12q187 0 303.5 135t116.5 352v8q0 218 -116 353t-304 135h-12q-188 0 -304 -135t-116 -353v-8zM1178 614h823q-12 201 -117.5 321 t-279.5 120h-13q-174 0 -287.5 -121.5t-125.5 -319.5z" />
<glyph unicode="&#x178;" horiz-adv-x="1314" d="M72 1434h121l462 -807l467 807h121l-534 -918v-516h-105v516zM383 1774q0 36 23.5 56.5t62.5 20.5q36 0 59 -20.5t23 -56.5q0 -39 -23 -60.5t-59 -21.5q-39 0 -62.5 21.5t-23.5 60.5zM762 1774q0 36 23.5 56.5t62.5 20.5q36 0 59 -20.5t23 -56.5q0 -39 -23 -60.5 t-59 -21.5q-39 0 -62.5 21.5t-23.5 60.5z" />
<glyph unicode="&#x2c6;" horiz-adv-x="903" d="M92 1571l289 393h141l289 -393h-119l-239 313l-240 -313h-121z" />
<glyph unicode="&#x2dc;" horiz-adv-x="892" d="M102 1604q-26 161 17 245t149 84q63 0 109 -28.5t102 -100.5q57 -76 84 -99.5t64 -23.5q103 0 73 236h91q26 -161 -17 -245.5t-149 -84.5q-63 0 -109 28.5t-102 100.5q-57 76 -84 99.5t-64 23.5q-103 0 -73 -235h-91z" />
<glyph unicode="&#x2000;" horiz-adv-x="994" />
<glyph unicode="&#x2001;" horiz-adv-x="1989" />
<glyph unicode="&#x2002;" horiz-adv-x="994" />
<glyph unicode="&#x2003;" horiz-adv-x="1989" />
<glyph unicode="&#x2004;" horiz-adv-x="663" />
<glyph unicode="&#x2005;" horiz-adv-x="497" />
<glyph unicode="&#x2006;" horiz-adv-x="331" />
<glyph unicode="&#x2007;" horiz-adv-x="331" />
<glyph unicode="&#x2008;" horiz-adv-x="248" />
<glyph unicode="&#x2009;" horiz-adv-x="397" />
<glyph unicode="&#x200a;" horiz-adv-x="110" />
<glyph unicode="&#x2010;" horiz-adv-x="1044" d="M195 618v97h655v-97h-655z" />
<glyph unicode="&#x2011;" horiz-adv-x="1044" d="M195 618v97h655v-97h-655z" />
<glyph unicode="&#x2012;" horiz-adv-x="1044" d="M195 618v97h655v-97h-655z" />
<glyph unicode="&#x2013;" horiz-adv-x="1296" d="M195 618v97h907v-97h-907z" />
<glyph unicode="&#x2014;" horiz-adv-x="1798" d="M195 618v97h1409v-97h-1409z" />
<glyph unicode="&#x2018;" horiz-adv-x="579" d="M195 1090q0 66 47 170.5t118 197.5l66 -49q-104 -167 -127 -266q33 -3 51.5 -23t18.5 -53q0 -37 -23 -58.5t-61 -21.5q-40 0 -65 28.5t-25 74.5z" />
<glyph unicode="&#x2019;" horiz-adv-x="579" d="M154 1038q102 154 127 265q-70 10 -70 77q0 35 23 56.5t63 21.5t64 -28t24 -72q0 -66 -47 -172.5t-117 -198.5z" />
<glyph unicode="&#x201a;" horiz-adv-x="579" d="M154 -287q102 154 127 267q-70 7 -70 77q0 35 23 56.5t63 21.5t64 -28t24 -72q0 -67 -46.5 -173t-117.5 -198z" />
<glyph unicode="&#x201c;" horiz-adv-x="882" d="M195 1090q0 66 47 170.5t118 197.5l66 -49q-104 -167 -127 -266q33 -3 51.5 -23t18.5 -53q0 -37 -23 -58.5t-61 -21.5q-40 0 -65 28.5t-25 74.5zM498 1090q0 66 46.5 171t117.5 197l67 -49q-103 -160 -127 -266q33 -3 51.5 -23t18.5 -53q0 -37 -23 -58.5t-63 -21.5 t-64 28.5t-24 74.5z" />
<glyph unicode="&#x201d;" horiz-adv-x="882" d="M154 1038q102 154 127 265q-70 10 -70 77q0 35 23 56.5t63 21.5t64 -28t24 -72q0 -66 -47 -172.5t-117 -198.5zM457 1038q103 161 127 265q-70 10 -70 77q0 35 23 56.5t61 21.5q40 0 65 -28t25 -72q0 -66 -47.5 -172.5t-118.5 -198.5z" />
<glyph unicode="&#x201e;" horiz-adv-x="579" d="M154 -287q102 154 127 267q-70 7 -70 77q0 35 23 56.5t63 21.5t64 -28t24 -72q0 -67 -46.5 -173t-117.5 -198z" />
<glyph unicode="&#x2022;" horiz-adv-x="806" d="M195 705q0 92 58.5 149t149.5 57q93 0 151 -57t58 -149q0 -91 -58.5 -149t-150.5 -58q-91 0 -149.5 58t-58.5 149z" />
<glyph unicode="&#x2026;" horiz-adv-x="1523" d="M195 57q0 36 23.5 57t62.5 21q36 0 58.5 -21t22.5 -57q0 -39 -22.5 -60.5t-58.5 -21.5q-39 0 -62.5 21.5t-23.5 60.5zM678 57q0 36 23.5 57t62.5 21q36 0 59 -21t23 -57q0 -39 -23 -60.5t-59 -21.5q-39 0 -62.5 21.5t-23.5 60.5zM1161 57q0 36 23.5 57t62.5 21 q36 0 59 -21t23 -57q0 -39 -23 -60.5t-59 -21.5q-39 0 -62.5 21.5t-23.5 60.5z" />
<glyph unicode="&#x202f;" horiz-adv-x="397" />
<glyph unicode="&#x2039;" horiz-adv-x="882" d="M195 588l362 424h131l-362 -424l362 -424h-131z" />
<glyph unicode="&#x203a;" horiz-adv-x="882" d="M195 164l364 424l-364 424h133l360 -424l-360 -424h-133z" />
<glyph unicode="&#x205f;" horiz-adv-x="497" />
<glyph unicode="&#x20ac;" horiz-adv-x="1658" d="M72 545l32 96h242q-2 23 -2 68v16q0 30 4 92h-276l32 96h256q48 252 215 398.5t418 146.5h15q159 0 301 -67.5t235 -184.5l-69 -73q-87 110 -208.5 169.5t-262.5 59.5h-11q-203 0 -342 -120.5t-184 -328.5h700l-32 -96h-682q-4 -58 -4 -90v-20q0 -46 2 -66h624l-33 -96 h-579q42 -215 185.5 -344t350.5 -129h11q289 0 471 233l69 -74q-100 -123 -236.5 -189.5t-299.5 -66.5q-266 0 -440.5 154t-217.5 416h-284z" />
<glyph unicode="&#x2122;" horiz-adv-x="1429" d="M154 1337v97h477v-97h-187v-456h-104v456h-186zM686 881v553h109l186 -279l186 279h109v-553h-107v381l-174 -258h-30l-174 258v-381h-105z" />
<glyph unicode="&#x25fc;" horiz-adv-x="1126" d="M0 0v1126h1126v-1126h-1126z" />
<glyph unicode="&#xfb02;" horiz-adv-x="1253" d="M92 1034v92h162v86q0 152 69.5 219.5t211.5 67.5q74 0 147 -8v-92q-80 4 -143 4q-99 0 -140 -40.5t-41 -143.5v-93h324v-92h-324v-1034h-104v1034h-162zM975 0v1475h106v-1475h-106z" />
<glyph unicode="&#xfb03;" horiz-adv-x="1996" d="M92 1034v92h162v86q0 152 69.5 219.5t211.5 67.5q74 0 147 -8v-92q-80 4 -143 4q-99 0 -140 -40.5t-41 -143.5v-93h568v86q0 152 69 219.5t211 67.5q75 0 148 -8v-92q-80 4 -144 4q-99 0 -139.5 -40.5t-40.5 -143.5v-93h324v-92h-324v-1034h-104v1034h-568v-1034h-104 v1034h-162zM1651 1401q0 34 22 54t60 20q37 0 58 -20t21 -54t-21.5 -55t-57.5 -21q-38 0 -60 21t-22 55zM1679 0v1126h107v-1126h-107z" />
<glyph unicode="&#xfb04;" horiz-adv-x="1931" d="M92 1034v92h162v86q0 152 69.5 219.5t211.5 67.5q74 0 147 -8v-92q-80 4 -143 4q-99 0 -140 -40.5t-41 -143.5v-93h568v86q0 152 69 219.5t211 67.5q75 0 148 -8v-92q-80 4 -144 4q-99 0 -139.5 -40.5t-40.5 -143.5v-93h324v-92h-324v-1034h-104v1034h-568v-1034h-104 v1034h-162zM1651 0v1475h106v-1475h-106z" />
</font>
</defs>
</svg>
